<svg width="32" height="32" viewBox="0 0 32 32" fill="none" xmlns="http://www.w3.org/2000/svg">
<g clip-path="url(#clip0)">
<path d="M14.7465 13.7183L14.8301 16.1332C15.5758 16.0938 17.9171 16.1987 17.8708 14.8244C17.8137 13.411 15.503 13.7179 14.7465 13.7183Z" fill="#ED6C0C"/>
<path d="M17.8817 14.8634C17.8636 13.4392 15.503 13.7179 14.7573 13.7574L14.8302 16.1332" fill="#E05A00"/>
<path d="M14.6688 10.419L14.7372 12.6279C15.3659 12.6211 17.3234 12.7067 17.2707 11.4603C17.2071 10.1748 15.2975 10.4122 14.6688 10.419Z" fill="#ED6C0C"/>
<path d="M17.2707 11.4603C17.2462 10.164 15.2975 10.4122 14.6688 10.419L14.7372 12.6279" fill="#E05A00"/>
<path d="M15.2656 3.65301C9.88527 3.80552 5.67139 8.29946 5.81304 13.6408C5.96555 19.0211 10.4205 23.2459 15.8008 23.0934C21.1812 22.9408 25.4059 18.4859 25.2534 13.1056C25.1117 7.76426 20.6568 3.53952 15.2656 3.65301ZM19.2995 10.8955C19.4322 11.8254 19.0553 12.4348 18.3965 12.7863C19.4632 12.9939 20.1377 13.6048 20.0279 15.0226C19.927 16.7742 18.6331 17.2605 16.7906 17.4371L16.8393 19.2732L15.738 19.2434L15.7002 17.4464C15.4054 17.4443 15.1105 17.4423 14.8266 17.4793L14.8644 19.2764L13.774 19.2857L13.7253 17.4496C13.4695 17.4367 13.2246 17.4629 12.9298 17.4609L11.5056 17.479L11.6869 16.1674L12.4825 16.1561C12.7773 16.1581 12.8791 15.9196 12.8855 15.7917L12.7994 12.9151C12.8384 12.9042 12.8774 12.8934 12.9273 12.9215C12.8883 12.9324 12.8384 12.9042 12.7994 12.9151L12.7354 10.8731C12.6703 10.639 12.5162 10.3876 12.1043 10.4182L11.3088 10.4295L11.2778 9.26106L12.78 9.22122C12.986 9.20594 13.2418 9.2188 13.4867 9.19266L13.4489 7.39559L14.5393 7.38632L14.5662 9.14438C14.8611 9.14638 15.145 9.10938 15.4398 9.11138L15.3739 7.36419L16.4642 7.35493L16.5021 9.15199C17.987 9.20104 19.147 9.59278 19.2995 10.8955Z" fill="#FFB600"/>
<path d="M5.81302 13.6408C5.96553 19.0212 10.4205 23.2459 15.8008 23.0934C21.1811 22.9409 25.4059 18.486 25.2534 13.1056C25.1009 7.72526 20.6459 3.50053 15.2656 3.65304L5.81302 13.6408ZM19.2994 10.8956C19.4322 11.8255 19.0553 12.4348 18.3965 12.7863C19.4632 12.9939 20.1377 13.6048 20.0279 15.0226C19.927 16.7742 18.6331 17.2605 16.7906 17.4371L16.8392 19.2732L15.738 19.2434L15.7002 17.4464C15.4053 17.4444 15.1105 17.4424 14.8266 17.4794L14.8644 19.2764L13.774 19.2857L13.7253 17.4496C13.4695 17.4368 13.2246 17.4629 12.9298 17.4609L11.5055 17.479L11.6869 16.1674L12.4825 16.1561C12.7773 16.1581 12.8791 15.9196 12.8855 15.7917L12.7994 12.9151C12.8384 12.9043 12.8774 12.8934 12.9273 12.9216C12.8883 12.9324 12.8384 12.9043 12.7994 12.9151L12.7354 10.8731C12.6702 10.639 12.5162 10.3877 12.1043 10.4182L11.3088 10.4295L11.2778 9.26109L12.78 9.22125C12.986 9.20596 13.2418 9.21883 13.4867 9.19268L13.4489 7.39561L14.5393 7.38635L14.5662 9.1444C14.861 9.14641 15.145 9.1094 15.4398 9.11141L15.3738 7.36421L16.4642 7.35495L16.5021 9.15202C17.987 9.20107 19.147 9.5928 19.2994 10.8956Z" fill="#F6921E"/>
<path d="M25.2731 13.4785L18.7895 9.81844C19.0714 10.0763 19.2971 10.4338 19.3494 10.9237C19.4821 11.8536 19.1052 12.463 18.4464 12.8145C19.5131 13.022 20.1876 13.633 20.0778 15.0508C19.9769 16.8024 18.683 17.2887 16.8405 17.4653L16.8892 19.3013L15.738 19.2434L15.7002 17.4464C15.4054 17.4444 15.1106 17.4424 14.8266 17.4794L14.8644 19.2764L14.6086 19.2636L19.6958 22.1353C22.9661 20.5944 25.2362 17.2721 25.2731 13.4785Z" fill="#D85107"/>
<path d="M11.5164 17.5181L13.7608 18.785L13.7253 17.4497C13.4695 17.4368 13.2246 17.4629 12.9298 17.4609L11.5164 17.5181Z" fill="#E26600"/>
<path d="M16.595 8.5797L16.5801 9.13032C17.0917 9.15606 17.5752 9.23167 17.9914 9.36801L16.595 8.5797Z" fill="#E26600"/>
<path d="M14.5782 7.3755L14.6052 9.13356C14.9 9.13556 15.184 9.09856 15.4788 9.10056L15.4261 7.85412L14.5782 7.3755Z" fill="#ED6C0C"/>
<path d="M16.5314 7.2942L16.5692 9.09127L16.6191 9.11943C17.8981 9.18376 18.9692 9.5582 19.2624 10.6116L25.2473 13.9901C25.2493 13.6952 25.2514 13.4004 25.2642 13.1446C25.2554 12.8108 25.2184 12.5268 25.1705 12.2039L16.5314 7.2942Z" fill="#ED6C0C"/>
<path d="M21.3601 21.1675L16.8215 18.6055L16.8283 19.2342L15.738 19.2435L15.7134 17.9471L14.8157 17.4404L14.8535 19.2374L13.7631 19.2467L13.7523 19.2077L13.7241 19.2576L19.1604 22.3263C19.9688 22.0593 20.6948 21.647 21.3601 21.1675Z" fill="#ED6C0C"/>
<path d="M22.2051 20.4279L16.8186 17.3873C16.8186 17.3873 16.8186 17.3873 16.7796 17.3981L16.8283 19.2342L15.7878 19.2716L20.3264 21.8336C21.0133 21.4322 21.6396 20.9636 22.2051 20.4279Z" fill="#E05A00"/>
</g>
<defs>
<clipPath id="clip0">
<rect width="25.1941" height="25.1941" fill="white" transform="translate(0.789795 7.38345) rotate(-15.5554)"/>
</clipPath>
</defs>
</svg>
