<svg width="9" height="14" viewBox="0 0 9 14" fill="none" xmlns="http://www.w3.org/2000/svg">
<path d="M8.764 9.032C8.764 9.80667 8.484 10.4787 7.924 11.048C7.37333 11.608 6.57067 11.9673 5.516 12.126V13.68H3.836V12.182C3.136 12.1353 2.47333 12.0187 1.848 11.832C1.22267 11.636 0.704667 11.398 0.294 11.118L1.204 9.074C1.64267 9.36333 2.15133 9.59667 2.73 9.774C3.30867 9.95133 3.878 10.04 4.438 10.04C5.502 10.04 6.034 9.774 6.034 9.242C6.034 8.962 5.88 8.75667 5.572 8.626C5.27333 8.486 4.788 8.34133 4.116 8.192C3.37867 8.03333 2.76267 7.86533 2.268 7.688C1.77333 7.50133 1.34867 7.20733 0.994 6.806C0.639333 6.40467 0.462 5.86333 0.462 5.182C0.462 4.37933 0.751333 3.69333 1.33 3.124C1.90867 2.54533 2.744 2.19067 3.836 2.06V0.519999H5.516V2.032C6.048 2.07867 6.55667 2.172 7.042 2.312C7.53667 2.452 7.97533 2.634 8.358 2.858L7.504 4.916C6.57067 4.412 5.66533 4.16 4.788 4.16C4.23733 4.16 3.836 4.244 3.584 4.412C3.332 4.57067 3.206 4.78067 3.206 5.042C3.206 5.30333 3.35533 5.49933 3.654 5.63C3.95267 5.76067 4.43333 5.896 5.096 6.036C5.84267 6.19467 6.45867 6.36733 6.944 6.554C7.43867 6.73133 7.86333 7.02067 8.218 7.422C8.582 7.814 8.764 8.35067 8.764 9.032Z" fill="black"/>
</svg>
