<svg width="391" height="15" viewBox="0 0 391 15" fill="none" xmlns="http://www.w3.org/2000/svg">
<path d="M5.474 12.042C4.55933 12.042 3.724 11.8227 2.968 11.384C2.22133 10.9453 1.62867 10.348 1.19 9.592C0.760667 8.836 0.546 8.00533 0.546 7.1C0.546 6.19467 0.760667 5.364 1.19 4.608C1.62867 3.852 2.226 3.25467 2.982 2.816C3.738 2.37733 4.578 2.158 5.502 2.158C6.426 2.158 7.26133 2.37267 8.008 2.802C8.764 3.23133 9.35667 3.824 9.786 4.58C10.2153 5.32667 10.43 6.15733 10.43 7.072C10.43 7.98667 10.2107 8.82667 9.772 9.592C9.33333 10.348 8.736 10.9453 7.98 11.384C7.224 11.8227 6.38867 12.042 5.474 12.042ZM5.474 11.132C6.22067 11.132 6.89733 10.9547 7.504 10.6C8.12 10.236 8.60067 9.746 8.946 9.13C9.30067 8.50467 9.478 7.81867 9.478 7.072C9.478 6.316 9.30533 5.63467 8.96 5.028C8.624 4.42133 8.15267 3.94533 7.546 3.6C6.93933 3.24533 6.258 3.068 5.502 3.068C4.746 3.068 4.06467 3.24533 3.458 3.6C2.85133 3.95467 2.37533 4.44 2.03 5.056C1.68467 5.672 1.512 6.35333 1.512 7.1C1.512 7.84667 1.68467 8.528 2.03 9.144C2.37533 9.76 2.84667 10.2453 3.444 10.6C4.05067 10.9547 4.72733 11.132 5.474 11.132ZM5.656 9.928C5.08667 9.928 4.57333 9.80667 4.116 9.564C3.668 9.32133 3.31333 8.98533 3.052 8.556C2.8 8.12667 2.674 7.64133 2.674 7.1C2.674 6.55867 2.8 6.07333 3.052 5.644C3.31333 5.21467 3.668 4.87867 4.116 4.636C4.57333 4.39333 5.08667 4.272 5.656 4.272C6.20667 4.272 6.692 4.39333 7.112 4.636C7.532 4.86933 7.84467 5.19133 8.05 5.602L6.79 6.344C6.538 5.90533 6.15533 5.686 5.642 5.686C5.26867 5.686 4.95133 5.81667 4.69 6.078C4.438 6.33 4.312 6.67067 4.312 7.1C4.312 7.52933 4.438 7.87467 4.69 8.136C4.95133 8.388 5.26867 8.514 5.642 8.514C6.15533 8.514 6.538 8.29467 6.79 7.856L8.05 8.584C7.84467 9.004 7.532 9.33533 7.112 9.578C6.692 9.81133 6.20667 9.928 5.656 9.928ZM16.8442 12.168C15.8455 12.168 14.9402 11.9533 14.1282 11.524C13.3255 11.0853 12.6909 10.4833 12.2242 9.718C11.7669 8.94333 11.5382 8.07067 11.5382 7.1C11.5382 6.12933 11.7669 5.26133 12.2242 4.496C12.6909 3.72133 13.3255 3.11933 14.1282 2.69C14.9402 2.25133 15.8502 2.032 16.8582 2.032C17.7075 2.032 18.4729 2.18133 19.1542 2.48C19.8449 2.77867 20.4235 3.208 20.8902 3.768L19.4342 5.112C18.7715 4.34667 17.9502 3.964 16.9702 3.964C16.3635 3.964 15.8222 4.09933 15.3462 4.37C14.8702 4.63133 14.4969 5 14.2262 5.476C13.9649 5.952 13.8342 6.49333 13.8342 7.1C13.8342 7.70667 13.9649 8.248 14.2262 8.724C14.4969 9.2 14.8702 9.57333 15.3462 9.844C15.8222 10.1053 16.3635 10.236 16.9702 10.236C17.9502 10.236 18.7715 9.84867 19.4342 9.074L20.8902 10.418C20.4235 10.9873 19.8449 11.4213 19.1542 11.72C18.4635 12.0187 17.6935 12.168 16.8442 12.168ZM25.592 12.112C24.7987 12.112 24.0847 11.9487 23.45 11.622C22.8247 11.286 22.3347 10.824 21.98 10.236C21.6253 9.648 21.448 8.98067 21.448 8.234C21.448 7.48733 21.6253 6.82 21.98 6.232C22.3347 5.644 22.8247 5.18667 23.45 4.86C24.0847 4.524 24.7987 4.356 25.592 4.356C26.3853 4.356 27.0947 4.524 27.72 4.86C28.3453 5.18667 28.8353 5.644 29.19 6.232C29.5447 6.82 29.722 7.48733 29.722 8.234C29.722 8.98067 29.5447 9.648 29.19 10.236C28.8353 10.824 28.3453 11.286 27.72 11.622C27.0947 11.9487 26.3853 12.112 25.592 12.112ZM25.592 10.32C26.152 10.32 26.6093 10.1333 26.964 9.76C27.328 9.37733 27.51 8.86867 27.51 8.234C27.51 7.59933 27.328 7.09533 26.964 6.722C26.6093 6.33933 26.152 6.148 25.592 6.148C25.032 6.148 24.57 6.33933 24.206 6.722C23.842 7.09533 23.66 7.59933 23.66 8.234C23.66 8.86867 23.842 9.37733 24.206 9.76C24.57 10.1333 25.032 10.32 25.592 10.32ZM35.6338 4.356C36.3338 4.356 36.9685 4.51933 37.5378 4.846C38.1165 5.16333 38.5692 5.616 38.8958 6.204C39.2225 6.78267 39.3858 7.45933 39.3858 8.234C39.3858 9.00867 39.2225 9.69 38.8958 10.278C38.5692 10.8567 38.1165 11.3093 37.5378 11.636C36.9685 11.9533 36.3338 12.112 35.6338 12.112C34.6725 12.112 33.9165 11.8087 33.3658 11.202V14.716H31.1818V4.468H33.2678V5.336C33.8092 4.68267 34.5978 4.356 35.6338 4.356ZM35.2558 10.32C35.8158 10.32 36.2732 10.1333 36.6278 9.76C36.9918 9.37733 37.1738 8.86867 37.1738 8.234C37.1738 7.59933 36.9918 7.09533 36.6278 6.722C36.2732 6.33933 35.8158 6.148 35.2558 6.148C34.6958 6.148 34.2338 6.33933 33.8698 6.722C33.5152 7.09533 33.3378 7.59933 33.3378 8.234C33.3378 8.86867 33.5152 9.37733 33.8698 9.76C34.2338 10.1333 34.6958 10.32 35.2558 10.32ZM48.1188 4.468L44.7168 12.462C44.3714 13.33 43.9421 13.9413 43.4288 14.296C42.9248 14.6507 42.3134 14.828 41.5948 14.828C41.2028 14.828 40.8154 14.7673 40.4328 14.646C40.0501 14.5247 39.7374 14.3567 39.4948 14.142L40.2928 12.588C40.4608 12.7373 40.6521 12.854 40.8668 12.938C41.0908 13.022 41.3101 13.064 41.5248 13.064C41.8234 13.064 42.0661 12.9893 42.2528 12.84C42.4394 12.7 42.6074 12.462 42.7568 12.126L42.7848 12.056L39.5228 4.468H41.7768L43.8908 9.578L46.0188 4.468H48.1188ZM55.1588 4.048H52.0228V2.2H60.5628V4.048H57.4268V12H55.1588V4.048ZM68.2415 8.262C68.2415 8.29 68.2275 8.486 68.1995 8.85H62.5015C62.6041 9.31667 62.8468 9.68533 63.2295 9.956C63.6121 10.2267 64.0881 10.362 64.6575 10.362C65.0495 10.362 65.3948 10.306 65.6935 10.194C66.0015 10.0727 66.2861 9.886 66.5475 9.634L67.7095 10.894C67.0001 11.706 65.9641 12.112 64.6015 12.112C63.7521 12.112 63.0008 11.9487 62.3475 11.622C61.6941 11.286 61.1901 10.824 60.8355 10.236C60.4808 9.648 60.3035 8.98067 60.3035 8.234C60.3035 7.49667 60.4761 6.834 60.8215 6.246C61.1761 5.64867 61.6568 5.18667 62.2635 4.86C62.8795 4.524 63.5655 4.356 64.3215 4.356C65.0588 4.356 65.7261 4.51467 66.3235 4.832C66.9208 5.14933 67.3875 5.60667 67.7235 6.204C68.0688 6.792 68.2415 7.478 68.2415 8.262ZM64.3355 6.008C63.8408 6.008 63.4255 6.148 63.0895 6.428C62.7535 6.708 62.5481 7.09067 62.4735 7.576H66.1835C66.1088 7.1 65.9035 6.722 65.5675 6.442C65.2315 6.15267 64.8208 6.008 64.3355 6.008ZM71.7815 5.462C72.0428 5.098 72.3928 4.82267 72.8315 4.636C73.2795 4.44933 73.7928 4.356 74.3715 4.356V6.372C74.1288 6.35333 73.9655 6.344 73.8815 6.344C73.2562 6.344 72.7662 6.52133 72.4115 6.876C72.0568 7.22133 71.8795 7.744 71.8795 8.444V12H69.6955V4.468H71.7815V5.462ZM77.7561 5.462C78.0174 5.098 78.3674 4.82267 78.8061 4.636C79.2541 4.44933 79.7674 4.356 80.3461 4.356V6.372C80.1034 6.35333 79.9401 6.344 79.8561 6.344C79.2308 6.344 78.7408 6.52133 78.3861 6.876C78.0314 7.22133 77.8541 7.744 77.8541 8.444V12H75.6701V4.468H77.7561V5.462ZM84.6417 4.356C85.8084 4.356 86.7044 4.636 87.3297 5.196C87.955 5.74667 88.2677 6.582 88.2677 7.702V12H86.2237V11.062C85.813 11.762 85.0477 12.112 83.9277 12.112C83.349 12.112 82.845 12.014 82.4157 11.818C81.9957 11.622 81.6737 11.3513 81.4497 11.006C81.2257 10.6607 81.1137 10.2687 81.1137 9.83C81.1137 9.13 81.375 8.57933 81.8977 8.178C82.4297 7.77667 83.2464 7.576 84.3477 7.576H86.0837C86.0837 7.1 85.939 6.736 85.6497 6.484C85.3604 6.22267 84.9264 6.092 84.3477 6.092C83.9464 6.092 83.5497 6.15733 83.1577 6.288C82.775 6.40933 82.4484 6.57733 82.1777 6.792L81.3937 5.266C81.8044 4.97667 82.2944 4.75267 82.8637 4.594C83.4424 4.43533 84.035 4.356 84.6417 4.356ZM84.4737 10.642C84.847 10.642 85.1784 10.558 85.4677 10.39C85.757 10.2127 85.9624 9.956 86.0837 9.62V8.85H84.5857C83.6897 8.85 83.2417 9.144 83.2417 9.732C83.2417 10.012 83.349 10.236 83.5637 10.404C83.7877 10.5627 84.091 10.642 84.4737 10.642ZM93.6183 12.168C92.8437 12.168 92.0923 12.0653 91.3643 11.86C90.6457 11.6453 90.067 11.37 89.6283 11.034L90.3983 9.326C90.8183 9.634 91.3177 9.88133 91.8963 10.068C92.475 10.2547 93.0537 10.348 93.6323 10.348C94.2763 10.348 94.7523 10.2547 95.0603 10.068C95.3683 9.872 95.5223 9.61533 95.5223 9.298C95.5223 9.06467 95.429 8.87333 95.2423 8.724C95.065 8.56533 94.8317 8.43933 94.5423 8.346C94.2623 8.25267 93.8797 8.15 93.3943 8.038C92.6477 7.86067 92.0363 7.68333 91.5603 7.506C91.0843 7.32867 90.6737 7.044 90.3283 6.652C89.9923 6.26 89.8243 5.73733 89.8243 5.084C89.8243 4.51467 89.9783 4.00133 90.2863 3.544C90.5943 3.07733 91.0563 2.70867 91.6723 2.438C92.2977 2.16733 93.0583 2.032 93.9543 2.032C94.5797 2.032 95.191 2.10667 95.7883 2.256C96.3857 2.40533 96.9083 2.62 97.3563 2.9L96.6563 4.622C95.751 4.10867 94.8457 3.852 93.9403 3.852C93.3057 3.852 92.8343 3.95467 92.5263 4.16C92.2277 4.36533 92.0783 4.636 92.0783 4.972C92.0783 5.308 92.251 5.56 92.5963 5.728C92.951 5.88667 93.4877 6.04533 94.2063 6.204C94.953 6.38133 95.5643 6.55867 96.0403 6.736C96.5163 6.91333 96.9223 7.19333 97.2583 7.576C97.6037 7.95867 97.7763 8.47667 97.7763 9.13C97.7763 9.69 97.6177 10.2033 97.3003 10.67C96.9923 11.1273 96.5257 11.4913 95.9003 11.762C95.275 12.0327 94.5143 12.168 93.6183 12.168ZM104.03 11.636C103.815 11.7947 103.549 11.916 103.232 12C102.924 12.0747 102.597 12.112 102.252 12.112C101.356 12.112 100.661 11.8833 100.166 11.426C99.6807 10.9687 99.4381 10.2967 99.4381 9.41V6.316H98.2761V4.636H99.4381V2.802H101.622V4.636H103.498V6.316H101.622V9.382C101.622 9.69933 101.701 9.94667 101.86 10.124C102.028 10.292 102.261 10.376 102.56 10.376C102.905 10.376 103.199 10.2827 103.442 10.096L104.03 11.636ZM108.294 4.356C109.461 4.356 110.357 4.636 110.982 5.196C111.607 5.74667 111.92 6.582 111.92 7.702V12H109.876V11.062C109.465 11.762 108.7 12.112 107.58 12.112C107.001 12.112 106.497 12.014 106.068 11.818C105.648 11.622 105.326 11.3513 105.102 11.006C104.878 10.6607 104.766 10.2687 104.766 9.83C104.766 9.13 105.027 8.57933 105.55 8.178C106.082 7.77667 106.899 7.576 108 7.576H109.736C109.736 7.1 109.591 6.736 109.302 6.484C109.013 6.22267 108.579 6.092 108 6.092C107.599 6.092 107.202 6.15733 106.81 6.288C106.427 6.40933 106.101 6.57733 105.83 6.792L105.046 5.266C105.457 4.97667 105.947 4.75267 106.516 4.594C107.095 4.43533 107.687 4.356 108.294 4.356ZM108.126 10.642C108.499 10.642 108.831 10.558 109.12 10.39C109.409 10.2127 109.615 9.956 109.736 9.62V8.85H108.238C107.342 8.85 106.894 9.144 106.894 9.732C106.894 10.012 107.001 10.236 107.216 10.404C107.44 10.5627 107.743 10.642 108.126 10.642ZM117.619 12.112C116.816 12.112 116.093 11.9487 115.449 11.622C114.814 11.286 114.315 10.824 113.951 10.236C113.596 9.648 113.419 8.98067 113.419 8.234C113.419 7.48733 113.596 6.82 113.951 6.232C114.315 5.644 114.814 5.18667 115.449 4.86C116.093 4.524 116.816 4.356 117.619 4.356C118.412 4.356 119.103 4.524 119.691 4.86C120.288 5.18667 120.722 5.658 120.993 6.274L119.299 7.184C118.907 6.49333 118.342 6.148 117.605 6.148C117.035 6.148 116.564 6.33467 116.191 6.708C115.817 7.08133 115.631 7.59 115.631 8.234C115.631 8.878 115.817 9.38667 116.191 9.76C116.564 10.1333 117.035 10.32 117.605 10.32C118.351 10.32 118.916 9.97467 119.299 9.284L120.993 10.208C120.722 10.8053 120.288 11.272 119.691 11.608C119.103 11.944 118.412 12.112 117.619 12.112ZM125.43 9.046L124.38 10.082V12H122.196V1.612H124.38V7.492L127.572 4.468H130.176L127.04 7.66L130.456 12H127.81L125.43 9.046ZM137.587 4.048H134.451V2.2H142.991V4.048H139.855V12H137.587V4.048ZM150.669 8.262C150.669 8.29 150.655 8.486 150.627 8.85H144.929C145.032 9.31667 145.275 9.68533 145.657 9.956C146.04 10.2267 146.516 10.362 147.085 10.362C147.477 10.362 147.823 10.306 148.121 10.194C148.429 10.0727 148.714 9.886 148.975 9.634L150.137 10.894C149.428 11.706 148.392 12.112 147.029 12.112C146.18 12.112 145.429 11.9487 144.775 11.622C144.122 11.286 143.618 10.824 143.263 10.236C142.909 9.648 142.731 8.98067 142.731 8.234C142.731 7.49667 142.904 6.834 143.249 6.246C143.604 5.64867 144.085 5.18667 144.691 4.86C145.307 4.524 145.993 4.356 146.749 4.356C147.487 4.356 148.154 4.51467 148.751 4.832C149.349 5.14933 149.815 5.60667 150.151 6.204C150.497 6.792 150.669 7.478 150.669 8.262ZM146.763 6.008C146.269 6.008 145.853 6.148 145.517 6.428C145.181 6.708 144.976 7.09067 144.901 7.576H148.611C148.537 7.1 148.331 6.722 147.995 6.442C147.659 6.15267 147.249 6.008 146.763 6.008ZM155.763 12.112C154.961 12.112 154.237 11.9487 153.593 11.622C152.959 11.286 152.459 10.824 152.095 10.236C151.741 9.648 151.563 8.98067 151.563 8.234C151.563 7.48733 151.741 6.82 152.095 6.232C152.459 5.644 152.959 5.18667 153.593 4.86C154.237 4.524 154.961 4.356 155.763 4.356C156.557 4.356 157.247 4.524 157.835 4.86C158.433 5.18667 158.867 5.658 159.137 6.274L157.443 7.184C157.051 6.49333 156.487 6.148 155.749 6.148C155.18 6.148 154.709 6.33467 154.335 6.708C153.962 7.08133 153.775 7.59 153.775 8.234C153.775 8.878 153.962 9.38667 154.335 9.76C154.709 10.1333 155.18 10.32 155.749 10.32C156.496 10.32 157.061 9.97467 157.443 9.284L159.137 10.208C158.867 10.8053 158.433 11.272 157.835 11.608C157.247 11.944 156.557 12.112 155.763 12.112ZM164.918 4.356C165.851 4.356 166.603 4.636 167.172 5.196C167.751 5.756 168.04 6.58667 168.04 7.688V12H165.856V8.024C165.856 7.42667 165.725 6.98333 165.464 6.694C165.203 6.39533 164.825 6.246 164.33 6.246C163.779 6.246 163.341 6.41867 163.014 6.764C162.687 7.1 162.524 7.604 162.524 8.276V12H160.34V1.612H162.524V5.252C162.813 4.96267 163.163 4.74333 163.574 4.594C163.985 4.43533 164.433 4.356 164.918 4.356ZM174.598 4.356C175.531 4.356 176.282 4.636 176.852 5.196C177.43 5.756 177.72 6.58667 177.72 7.688V12H175.536V8.024C175.536 7.42667 175.405 6.98333 175.144 6.694C174.882 6.39533 174.504 6.246 174.01 6.246C173.459 6.246 173.02 6.41867 172.694 6.764C172.367 7.1 172.204 7.604 172.204 8.276V12H170.02V4.468H172.106V5.35C172.395 5.03267 172.754 4.79 173.184 4.622C173.613 4.44467 174.084 4.356 174.598 4.356ZM183.365 12.112C182.572 12.112 181.858 11.9487 181.223 11.622C180.598 11.286 180.108 10.824 179.753 10.236C179.399 9.648 179.221 8.98067 179.221 8.234C179.221 7.48733 179.399 6.82 179.753 6.232C180.108 5.644 180.598 5.18667 181.223 4.86C181.858 4.524 182.572 4.356 183.365 4.356C184.159 4.356 184.868 4.524 185.493 4.86C186.119 5.18667 186.609 5.644 186.963 6.232C187.318 6.82 187.495 7.48733 187.495 8.234C187.495 8.98067 187.318 9.648 186.963 10.236C186.609 10.824 186.119 11.286 185.493 11.622C184.868 11.9487 184.159 12.112 183.365 12.112ZM183.365 10.32C183.925 10.32 184.383 10.1333 184.737 9.76C185.101 9.37733 185.283 8.86867 185.283 8.234C185.283 7.59933 185.101 7.09533 184.737 6.722C184.383 6.33933 183.925 6.148 183.365 6.148C182.805 6.148 182.343 6.33933 181.979 6.722C181.615 7.09533 181.433 7.59933 181.433 8.234C181.433 8.86867 181.615 9.37733 181.979 9.76C182.343 10.1333 182.805 10.32 183.365 10.32ZM188.955 1.612H191.139V12H188.955V1.612ZM196.75 12.112C195.957 12.112 195.243 11.9487 194.608 11.622C193.983 11.286 193.493 10.824 193.138 10.236C192.784 9.648 192.606 8.98067 192.606 8.234C192.606 7.48733 192.784 6.82 193.138 6.232C193.493 5.644 193.983 5.18667 194.608 4.86C195.243 4.524 195.957 4.356 196.75 4.356C197.544 4.356 198.253 4.524 198.878 4.86C199.504 5.18667 199.994 5.644 200.348 6.232C200.703 6.82 200.88 7.48733 200.88 8.234C200.88 8.98067 200.703 9.648 200.348 10.236C199.994 10.824 199.504 11.286 198.878 11.622C198.253 11.9487 197.544 12.112 196.75 12.112ZM196.75 10.32C197.31 10.32 197.768 10.1333 198.122 9.76C198.486 9.37733 198.668 8.86867 198.668 8.234C198.668 7.59933 198.486 7.09533 198.122 6.722C197.768 6.33933 197.31 6.148 196.75 6.148C196.19 6.148 195.728 6.33933 195.364 6.722C195 7.09533 194.818 7.59933 194.818 8.234C194.818 8.86867 195 9.37733 195.364 9.76C195.728 10.1333 196.19 10.32 196.75 10.32ZM210.11 4.468V10.74C210.11 12.1213 209.751 13.148 209.032 13.82C208.313 14.492 207.263 14.828 205.882 14.828C205.154 14.828 204.463 14.7393 203.81 14.562C203.157 14.3847 202.615 14.128 202.186 13.792L203.054 12.224C203.371 12.4853 203.773 12.6907 204.258 12.84C204.743 12.9987 205.229 13.078 205.714 13.078C206.47 13.078 207.025 12.9053 207.38 12.56C207.744 12.224 207.926 11.7107 207.926 11.02V10.698C207.357 11.3233 206.563 11.636 205.546 11.636C204.855 11.636 204.221 11.4867 203.642 11.188C203.073 10.88 202.62 10.4507 202.284 9.9C201.948 9.34933 201.78 8.71467 201.78 7.996C201.78 7.27733 201.948 6.64267 202.284 6.092C202.62 5.54133 203.073 5.11667 203.642 4.818C204.221 4.51 204.855 4.356 205.546 4.356C206.638 4.356 207.469 4.71533 208.038 5.434V4.468H210.11ZM205.98 9.844C206.559 9.844 207.03 9.676 207.394 9.34C207.767 8.99467 207.954 8.54667 207.954 7.996C207.954 7.44533 207.767 7.002 207.394 6.666C207.03 6.32067 206.559 6.148 205.98 6.148C205.401 6.148 204.925 6.32067 204.552 6.666C204.179 7.002 203.992 7.44533 203.992 7.996C203.992 8.54667 204.179 8.99467 204.552 9.34C204.925 9.676 205.401 9.844 205.98 9.844ZM212.143 4.468H214.327V12H212.143V4.468ZM213.235 3.418C212.833 3.418 212.507 3.30133 212.255 3.068C212.003 2.83467 211.877 2.54533 211.877 2.2C211.877 1.85467 212.003 1.56533 212.255 1.332C212.507 1.09867 212.833 0.981999 213.235 0.981999C213.636 0.981999 213.963 1.094 214.215 1.318C214.467 1.542 214.593 1.822 214.593 2.158C214.593 2.522 214.467 2.82533 214.215 3.068C213.963 3.30133 213.636 3.418 213.235 3.418ZM223.732 8.262C223.732 8.29 223.718 8.486 223.69 8.85H217.992C218.094 9.31667 218.337 9.68533 218.72 9.956C219.102 10.2267 219.578 10.362 220.148 10.362C220.54 10.362 220.885 10.306 221.184 10.194C221.492 10.0727 221.776 9.886 222.038 9.634L223.2 10.894C222.49 11.706 221.454 12.112 220.092 12.112C219.242 12.112 218.491 11.9487 217.838 11.622C217.184 11.286 216.68 10.824 216.326 10.236C215.971 9.648 215.794 8.98067 215.794 8.234C215.794 7.49667 215.966 6.834 216.312 6.246C216.666 5.64867 217.147 5.18667 217.754 4.86C218.37 4.524 219.056 4.356 219.812 4.356C220.549 4.356 221.216 4.51467 221.814 4.832C222.411 5.14933 222.878 5.60667 223.214 6.204C223.559 6.792 223.732 7.478 223.732 8.262ZM219.826 6.008C219.331 6.008 218.916 6.148 218.58 6.428C218.244 6.708 218.038 7.09067 217.964 7.576H221.674C221.599 7.1 221.394 6.722 221.058 6.442C220.722 6.15267 220.311 6.008 219.826 6.008ZM227.72 12.112C227.094 12.112 226.483 12.0373 225.886 11.888C225.288 11.7293 224.812 11.5333 224.458 11.3L225.186 9.732C225.522 9.94667 225.928 10.124 226.404 10.264C226.88 10.3947 227.346 10.46 227.804 10.46C228.728 10.46 229.19 10.2313 229.19 9.774C229.19 9.55933 229.064 9.40533 228.812 9.312C228.56 9.21867 228.172 9.13933 227.65 9.074C227.034 8.98067 226.525 8.87333 226.124 8.752C225.722 8.63067 225.372 8.416 225.074 8.108C224.784 7.8 224.64 7.36133 224.64 6.792C224.64 6.316 224.775 5.896 225.046 5.532C225.326 5.15867 225.727 4.86933 226.25 4.664C226.782 4.45867 227.407 4.356 228.126 4.356C228.658 4.356 229.185 4.41667 229.708 4.538C230.24 4.65 230.678 4.80867 231.024 5.014L230.296 6.568C229.633 6.19467 228.91 6.008 228.126 6.008C227.659 6.008 227.309 6.07333 227.076 6.204C226.842 6.33467 226.726 6.50267 226.726 6.708C226.726 6.94133 226.852 7.10467 227.104 7.198C227.356 7.29133 227.757 7.38 228.308 7.464C228.924 7.56667 229.428 7.67867 229.82 7.8C230.212 7.912 230.552 8.122 230.842 8.43C231.131 8.738 231.276 9.16733 231.276 9.718C231.276 10.1847 231.136 10.6 230.856 10.964C230.576 11.328 230.165 11.6127 229.624 11.818C229.092 12.014 228.457 12.112 227.72 12.112ZM245.73 2.2V12H243.868L238.982 6.05V12H236.742V2.2H238.618L243.49 8.15V2.2H245.73ZM247.895 4.468H250.079V12H247.895V4.468ZM248.987 3.418C248.585 3.418 248.259 3.30133 248.007 3.068C247.755 2.83467 247.629 2.54533 247.629 2.2C247.629 1.85467 247.755 1.56533 248.007 1.332C248.259 1.09867 248.585 0.981999 248.987 0.981999C249.388 0.981999 249.715 1.094 249.967 1.318C250.219 1.542 250.345 1.822 250.345 2.158C250.345 2.522 250.219 2.82533 249.967 3.068C249.715 3.30133 249.388 3.418 248.987 3.418ZM259.876 4.468V10.74C259.876 12.1213 259.516 13.148 258.798 13.82C258.079 14.492 257.029 14.828 255.648 14.828C254.92 14.828 254.229 14.7393 253.576 14.562C252.922 14.3847 252.381 14.128 251.952 13.792L252.82 12.224C253.137 12.4853 253.538 12.6907 254.024 12.84C254.509 12.9987 254.994 13.078 255.48 13.078C256.236 13.078 256.791 12.9053 257.146 12.56C257.51 12.224 257.692 11.7107 257.692 11.02V10.698C257.122 11.3233 256.329 11.636 255.312 11.636C254.621 11.636 253.986 11.4867 253.408 11.188C252.838 10.88 252.386 10.4507 252.05 9.9C251.714 9.34933 251.546 8.71467 251.546 7.996C251.546 7.27733 251.714 6.64267 252.05 6.092C252.386 5.54133 252.838 5.11667 253.408 4.818C253.986 4.51 254.621 4.356 255.312 4.356C256.404 4.356 257.234 4.71533 257.804 5.434V4.468H259.876ZM255.746 9.844C256.324 9.844 256.796 9.676 257.16 9.34C257.533 8.99467 257.72 8.54667 257.72 7.996C257.72 7.44533 257.533 7.002 257.16 6.666C256.796 6.32067 256.324 6.148 255.746 6.148C255.167 6.148 254.691 6.32067 254.318 6.666C253.944 7.002 253.758 7.44533 253.758 7.996C253.758 8.54667 253.944 8.99467 254.318 9.34C254.691 9.676 255.167 9.844 255.746 9.844ZM269.286 8.262C269.286 8.29 269.272 8.486 269.244 8.85H263.546C263.649 9.31667 263.892 9.68533 264.274 9.956C264.657 10.2267 265.133 10.362 265.702 10.362C266.094 10.362 266.44 10.306 266.738 10.194C267.046 10.0727 267.331 9.886 267.592 9.634L268.754 10.894C268.045 11.706 267.009 12.112 265.646 12.112C264.797 12.112 264.046 11.9487 263.392 11.622C262.739 11.286 262.235 10.824 261.88 10.236C261.526 9.648 261.348 8.98067 261.348 8.234C261.348 7.49667 261.521 6.834 261.866 6.246C262.221 5.64867 262.702 5.18667 263.308 4.86C263.924 4.524 264.61 4.356 265.366 4.356C266.104 4.356 266.771 4.51467 267.368 4.832C267.966 5.14933 268.432 5.60667 268.768 6.204C269.114 6.792 269.286 7.478 269.286 8.262ZM265.38 6.008C264.886 6.008 264.47 6.148 264.134 6.428C263.798 6.708 263.593 7.09067 263.518 7.576H267.228C267.154 7.1 266.948 6.722 266.612 6.442C266.276 6.15267 265.866 6.008 265.38 6.008ZM272.826 5.462C273.088 5.098 273.438 4.82267 273.876 4.636C274.324 4.44933 274.838 4.356 275.416 4.356V6.372C275.174 6.35333 275.01 6.344 274.926 6.344C274.301 6.344 273.811 6.52133 273.456 6.876C273.102 7.22133 272.924 7.744 272.924 8.444V12H270.74V4.468H272.826V5.462ZM276.715 4.468H278.899V12H276.715V4.468ZM277.807 3.418C277.406 3.418 277.079 3.30133 276.827 3.068C276.575 2.83467 276.449 2.54533 276.449 2.2C276.449 1.85467 276.575 1.56533 276.827 1.332C277.079 1.09867 277.406 0.981999 277.807 0.981999C278.208 0.981999 278.535 1.094 278.787 1.318C279.039 1.542 279.165 1.822 279.165 2.158C279.165 2.522 279.039 2.82533 278.787 3.068C278.535 3.30133 278.208 3.418 277.807 3.418ZM283.964 4.356C285.131 4.356 286.027 4.636 286.652 5.196C287.277 5.74667 287.59 6.582 287.59 7.702V12H285.546V11.062C285.135 11.762 284.37 12.112 283.25 12.112C282.671 12.112 282.167 12.014 281.738 11.818C281.318 11.622 280.996 11.3513 280.772 11.006C280.548 10.6607 280.436 10.2687 280.436 9.83C280.436 9.13 280.697 8.57933 281.22 8.178C281.752 7.77667 282.569 7.576 283.67 7.576H285.406C285.406 7.1 285.261 6.736 284.972 6.484C284.683 6.22267 284.249 6.092 283.67 6.092C283.269 6.092 282.872 6.15733 282.48 6.288C282.097 6.40933 281.771 6.57733 281.5 6.792L280.716 5.266C281.127 4.97667 281.617 4.75267 282.186 4.594C282.765 4.43533 283.357 4.356 283.964 4.356ZM283.796 10.642C284.169 10.642 284.501 10.558 284.79 10.39C285.079 10.2127 285.285 9.956 285.406 9.62V8.85H283.908C283.012 8.85 282.564 9.144 282.564 9.732C282.564 10.012 282.671 10.236 282.886 10.404C283.11 10.5627 283.413 10.642 283.796 10.642ZM293.685 2.2H295.953V10.152H300.867V12H293.685V2.2ZM301.981 4.468H304.165V12H301.981V4.468ZM303.073 3.418C302.671 3.418 302.345 3.30133 302.093 3.068C301.841 2.83467 301.715 2.54533 301.715 2.2C301.715 1.85467 301.841 1.56533 302.093 1.332C302.345 1.09867 302.671 0.981999 303.073 0.981999C303.474 0.981999 303.801 1.094 304.053 1.318C304.305 1.542 304.431 1.822 304.431 2.158C304.431 2.522 304.305 2.82533 304.053 3.068C303.801 3.30133 303.474 3.418 303.073 3.418ZM315.838 4.356C316.78 4.356 317.527 4.636 318.078 5.196C318.638 5.74667 318.918 6.57733 318.918 7.688V12H316.734V8.024C316.734 7.42667 316.608 6.98333 316.356 6.694C316.113 6.39533 315.763 6.246 315.306 6.246C314.792 6.246 314.386 6.414 314.088 6.75C313.789 7.07667 313.64 7.56667 313.64 8.22V12H311.456V8.024C311.456 6.83867 310.98 6.246 310.028 6.246C309.524 6.246 309.122 6.414 308.824 6.75C308.525 7.07667 308.376 7.56667 308.376 8.22V12H306.192V4.468H308.278V5.336C308.558 5.01867 308.898 4.776 309.3 4.608C309.71 4.44 310.158 4.356 310.644 4.356C311.176 4.356 311.656 4.46333 312.086 4.678C312.515 4.88333 312.86 5.18667 313.122 5.588C313.43 5.196 313.817 4.89267 314.284 4.678C314.76 4.46333 315.278 4.356 315.838 4.356ZM320.875 4.468H323.059V12H320.875V4.468ZM321.967 3.418C321.566 3.418 321.239 3.30133 320.987 3.068C320.735 2.83467 320.609 2.54533 320.609 2.2C320.609 1.85467 320.735 1.56533 320.987 1.332C321.239 1.09867 321.566 0.981999 321.967 0.981999C322.369 0.981999 322.695 1.094 322.947 1.318C323.199 1.542 323.325 1.822 323.325 2.158C323.325 2.522 323.199 2.82533 322.947 3.068C322.695 3.30133 322.369 3.418 321.967 3.418ZM329.944 11.636C329.729 11.7947 329.463 11.916 329.146 12C328.838 12.0747 328.511 12.112 328.166 12.112C327.27 12.112 326.575 11.8833 326.08 11.426C325.595 10.9687 325.352 10.2967 325.352 9.41V6.316H324.19V4.636H325.352V2.802H327.536V4.636H329.412V6.316H327.536V9.382C327.536 9.69933 327.615 9.94667 327.774 10.124C327.942 10.292 328.175 10.376 328.474 10.376C328.819 10.376 329.113 10.2827 329.356 10.096L329.944 11.636ZM338.316 8.262C338.316 8.29 338.302 8.486 338.274 8.85H332.576C332.678 9.31667 332.921 9.68533 333.304 9.956C333.686 10.2267 334.162 10.362 334.732 10.362C335.124 10.362 335.469 10.306 335.768 10.194C336.076 10.0727 336.36 9.886 336.622 9.634L337.784 10.894C337.074 11.706 336.038 12.112 334.676 12.112C333.826 12.112 333.075 11.9487 332.422 11.622C331.768 11.286 331.264 10.824 330.91 10.236C330.555 9.648 330.378 8.98067 330.378 8.234C330.378 7.49667 330.55 6.834 330.896 6.246C331.25 5.64867 331.731 5.18667 332.338 4.86C332.954 4.524 333.64 4.356 334.396 4.356C335.133 4.356 335.8 4.51467 336.398 4.832C336.995 5.14933 337.462 5.60667 337.798 6.204C338.143 6.792 338.316 7.478 338.316 8.262ZM334.41 6.008C333.915 6.008 333.5 6.148 333.164 6.428C332.828 6.708 332.622 7.09067 332.548 7.576H336.258C336.183 7.1 335.978 6.722 335.642 6.442C335.306 6.15267 334.895 6.008 334.41 6.008ZM347.442 1.612V12H345.356V11.132C344.814 11.7853 344.03 12.112 343.004 12.112C342.294 12.112 341.65 11.9533 341.072 11.636C340.502 11.3187 340.054 10.866 339.728 10.278C339.401 9.69 339.238 9.00867 339.238 8.234C339.238 7.45933 339.401 6.778 339.728 6.19C340.054 5.602 340.502 5.14933 341.072 4.832C341.65 4.51467 342.294 4.356 343.004 4.356C343.965 4.356 344.716 4.65933 345.258 5.266V1.612H347.442ZM343.382 10.32C343.932 10.32 344.39 10.1333 344.754 9.76C345.118 9.37733 345.3 8.86867 345.3 8.234C345.3 7.59933 345.118 7.09533 344.754 6.722C344.39 6.33933 343.932 6.148 343.382 6.148C342.822 6.148 342.36 6.33933 341.996 6.722C341.632 7.09533 341.45 7.59933 341.45 8.234C341.45 8.86867 341.632 9.37733 341.996 9.76C342.36 10.1333 342.822 10.32 343.382 10.32ZM360.288 10.152V12H352.882V10.53L356.662 6.96C357.063 6.57733 357.334 6.25067 357.474 5.98C357.614 5.7 357.684 5.42467 357.684 5.154C357.684 4.762 357.549 4.46333 357.278 4.258C357.017 4.04333 356.629 3.936 356.116 3.936C355.687 3.936 355.299 4.02 354.954 4.188C354.609 4.34667 354.319 4.58933 354.086 4.916L352.434 3.852C352.817 3.28267 353.344 2.83933 354.016 2.522C354.688 2.19533 355.458 2.032 356.326 2.032C357.054 2.032 357.689 2.15333 358.23 2.396C358.781 2.62933 359.205 2.96533 359.504 3.404C359.812 3.83333 359.966 4.342 359.966 4.93C359.966 5.462 359.854 5.96133 359.63 6.428C359.406 6.89467 358.972 7.42667 358.328 8.024L356.074 10.152H360.288ZM365.396 12.168C364.584 12.168 363.861 11.9673 363.226 11.566C362.592 11.1647 362.092 10.586 361.728 9.83C361.374 9.06467 361.196 8.15467 361.196 7.1C361.196 6.04533 361.374 5.14 361.728 4.384C362.092 3.61867 362.592 3.03533 363.226 2.634C363.861 2.23267 364.584 2.032 365.396 2.032C366.208 2.032 366.932 2.23267 367.566 2.634C368.201 3.03533 368.696 3.61867 369.05 4.384C369.414 5.14 369.596 6.04533 369.596 7.1C369.596 8.15467 369.414 9.06467 369.05 9.83C368.696 10.586 368.201 11.1647 367.566 11.566C366.932 11.9673 366.208 12.168 365.396 12.168ZM365.396 10.25C365.994 10.25 366.46 9.99333 366.796 9.48C367.142 8.96667 367.314 8.17333 367.314 7.1C367.314 6.02667 367.142 5.23333 366.796 4.72C366.46 4.20667 365.994 3.95 365.396 3.95C364.808 3.95 364.342 4.20667 363.996 4.72C363.66 5.23333 363.492 6.02667 363.492 7.1C363.492 8.17333 363.66 8.96667 363.996 9.48C364.342 9.99333 364.808 10.25 365.396 10.25ZM377.938 10.152V12H370.532V10.53L374.312 6.96C374.714 6.57733 374.984 6.25067 375.124 5.98C375.264 5.7 375.334 5.42467 375.334 5.154C375.334 4.762 375.199 4.46333 374.928 4.258C374.667 4.04333 374.28 3.936 373.766 3.936C373.337 3.936 372.95 4.02 372.604 4.188C372.259 4.34667 371.97 4.58933 371.736 4.916L370.084 3.852C370.467 3.28267 370.994 2.83933 371.666 2.522C372.338 2.19533 373.108 2.032 373.976 2.032C374.704 2.032 375.339 2.15333 375.88 2.396C376.431 2.62933 376.856 2.96533 377.154 3.404C377.462 3.83333 377.616 4.342 377.616 4.93C377.616 5.462 377.504 5.96133 377.28 6.428C377.056 6.89467 376.622 7.42667 375.978 8.024L373.724 10.152H377.938ZM383.047 12.168C382.235 12.168 381.511 11.9673 380.877 11.566C380.242 11.1647 379.743 10.586 379.379 9.83C379.024 9.06467 378.847 8.15467 378.847 7.1C378.847 6.04533 379.024 5.14 379.379 4.384C379.743 3.61867 380.242 3.03533 380.877 2.634C381.511 2.23267 382.235 2.032 383.047 2.032C383.859 2.032 384.582 2.23267 385.217 2.634C385.851 3.03533 386.346 3.61867 386.701 4.384C387.065 5.14 387.247 6.04533 387.247 7.1C387.247 8.15467 387.065 9.06467 386.701 9.83C386.346 10.586 385.851 11.1647 385.217 11.566C384.582 11.9673 383.859 12.168 383.047 12.168ZM383.047 10.25C383.644 10.25 384.111 9.99333 384.447 9.48C384.792 8.96667 384.965 8.17333 384.965 7.1C384.965 6.02667 384.792 5.23333 384.447 4.72C384.111 4.20667 383.644 3.95 383.047 3.95C382.459 3.95 381.992 4.20667 381.647 4.72C381.311 5.23333 381.143 6.02667 381.143 7.1C381.143 8.17333 381.311 8.96667 381.647 9.48C381.992 9.99333 382.459 10.25 383.047 10.25ZM389.459 12.112C389.076 12.112 388.754 11.9813 388.493 11.72C388.232 11.4587 388.101 11.132 388.101 10.74C388.101 10.3387 388.232 10.0167 388.493 9.774C388.754 9.522 389.076 9.396 389.459 9.396C389.842 9.396 390.164 9.522 390.425 9.774C390.686 10.0167 390.817 10.3387 390.817 10.74C390.817 11.132 390.686 11.4587 390.425 11.72C390.164 11.9813 389.842 12.112 389.459 12.112Z" fill="white"/>
</svg>
