<svg width="496" height="479" viewBox="0 0 496 479" fill="none" xmlns="http://www.w3.org/2000/svg">
<g clip-path="url(#clip0)" filter="url(#filter0_d)">
<path d="M22.7627 278.069C22.7627 278.069 32.3459 274.92 36.9392 297.03C41.5326 319.138 42.2231 331.353 42.2231 331.353C42.2231 331.353 43.7282 336.135 47.2484 334.239C50.7695 332.345 56.657 325.85 61.0362 328.503C65.5775 331.256 65.6985 337.195 62.5533 345.013C59.4072 352.832 53.1438 370.214 52.5838 371.787C52.0334 373.333 52.3019 375.903 54.9079 374.998C57.513 374.091 73.9734 363.487 78.54 371.595C83.1067 379.703 70.7625 400.045 69.4552 402.294C68.1485 404.544 68.3406 405.71 69.3289 406.625C70.318 407.539 75.5141 403.454 80.3195 400.63C85.1243 397.805 91.1915 395.373 93.4341 400.271C95.6763 405.169 92.2188 422.017 69.1064 444.607L57.7114 454.374L43.4089 449.604C13.424 437.532 3.79919 423.276 4.00291 417.892C4.20705 412.51 10.744 412.446 16.2636 413.224C21.7832 414.004 28.1459 415.799 28.711 414.577C29.2756 413.354 29.0078 412.204 26.942 410.622C24.8748 409.04 5.70253 394.942 6.82965 385.705C7.70482 378.538 19.5019 379.057 26.0294 379.578C27.9127 379.728 29.3571 379.878 29.9741 379.844C32.7289 379.688 31.9959 377.208 30.8979 375.99C29.7795 374.748 17.3566 361.067 11.4658 355.039C5.57448 349.011 3.42043 343.476 6.56814 339.2C9.60317 335.077 17.5246 338.837 21.5021 339.246C25.4801 339.655 25.0469 334.663 25.0469 334.663C25.0469 334.663 21.024 323.107 16.8345 300.918C12.644 278.73 22.9614 278.019 22.9614 278.019L22.7627 278.069Z" fill="#F8F8F9"/>
<path d="M57.7912 451.219C54.6543 434.935 50.1276 412.474 45.0445 387.681C39.9639 362.895 35.3819 340.45 32.1535 324.185C30.5499 316.068 29.2515 309.491 28.3481 304.919C27.8999 302.664 27.5498 300.902 27.3069 299.682C27.186 299.101 27.092 298.65 27.0238 298.322C26.9569 298.017 26.9104 297.862 26.9104 297.862C26.9104 297.862 26.9224 298.022 26.9719 298.331C27.028 298.662 27.1062 299.117 27.2051 299.701C27.4263 300.927 27.7439 302.692 28.1518 304.956C28.9791 309.52 30.2251 316.114 31.7967 324.255C34.9337 340.539 39.4604 362.998 44.5409 387.783C49.6236 412.577 54.2061 435.024 57.434 451.289" fill="#E3E3E2"/>
<path d="M53.1659 337.921C53.1355 337.903 52.9086 338.216 52.5243 338.799C52.1372 339.379 51.6043 340.236 50.9561 341.301C49.6639 343.434 47.9581 346.427 46.1367 349.765C44.3618 353.054 42.7561 356.029 41.5143 358.33C40.9609 359.345 40.4898 360.208 40.1027 360.918C39.7677 361.528 39.5959 361.874 39.6263 361.894C39.6562 361.912 39.8853 361.6 40.2741 361.02C40.6595 360.438 41.1933 359.582 41.8307 358.508C43.102 356.362 44.7684 353.348 46.5886 350.012C48.3867 346.736 50.0128 343.774 51.2704 341.483C51.8296 340.47 52.3053 339.608 52.6964 338.901C53.0274 338.287 53.1967 337.939 53.1659 337.921Z" fill="#E3E3E2"/>
<path d="M38.226 361.787C38.3001 361.667 32.2844 357.873 24.7921 353.318C17.2972 348.762 11.1631 345.166 11.0895 345.287C11.0155 345.408 17.0299 349.2 24.5247 353.757C32.0171 358.313 38.1524 361.908 38.226 361.787Z" fill="#E3E3E2"/>
<path d="M47.7473 399.504C47.7552 399.47 47.3797 399.348 46.6946 399.154C45.9009 398.939 44.9306 398.675 43.7876 398.365C41.3346 397.696 37.9503 396.76 34.2534 395.596C30.5524 394.438 27.238 393.278 24.8449 392.42C23.7294 392.022 22.7823 391.684 22.0077 391.408C21.3359 391.175 20.9575 391.061 20.9446 391.093C20.9309 391.125 21.2839 391.302 21.9341 391.593C22.5839 391.885 23.5328 392.289 24.7164 392.759C27.0812 393.706 30.3865 394.924 34.0992 396.086C37.8082 397.255 41.219 398.137 43.699 398.717C44.9405 399.001 45.9475 399.219 46.6489 399.35C47.3486 399.483 47.7394 399.539 47.7473 399.504Z" fill="#E3E3E2"/>
<path d="M66.014 380.89C65.9895 380.866 65.7076 381.097 65.2196 381.538C64.7315 381.98 64.0371 382.631 63.1873 383.443C61.4864 385.066 59.1623 387.334 56.6179 389.862C54.0726 392.39 51.7893 394.698 50.1542 396.387C49.3368 397.232 48.6815 397.922 48.2362 398.407C47.7922 398.893 47.5581 399.173 47.583 399.198C47.6081 399.222 47.8899 398.992 48.3776 398.55C48.8657 398.108 49.5601 397.457 50.4102 396.646C52.1106 395.022 54.4347 392.753 56.9804 390.225C59.5249 387.698 61.8083 385.389 63.4434 383.701C64.2608 382.856 64.916 382.166 65.3609 381.681C65.8053 381.196 66.0399 380.915 66.014 380.89Z" fill="#E3E3E2"/>
<path d="M78.6523 413.12C78.6277 413.095 78.2702 413.396 77.6457 413.962C76.9539 414.605 76.0783 415.42 75.0331 416.393C72.8429 418.462 69.8423 421.346 66.55 424.554C63.2571 427.764 60.2962 430.689 58.1712 432.824C57.1717 433.844 56.3344 434.699 55.6729 435.373C55.0912 435.983 54.7811 436.333 54.8061 436.359C54.831 436.383 55.1882 436.083 55.8126 435.517C56.5044 434.873 57.38 434.058 58.4253 433.085C60.615 431.016 63.6164 428.132 66.9092 424.923C70.2015 421.715 73.1618 418.789 75.2871 416.653C76.2866 415.634 77.1243 414.779 77.7854 414.105C78.3675 413.494 78.6772 413.145 78.6523 413.12Z" fill="#E3E3E2"/>
<path d="M55.2197 435.643C55.2288 435.608 54.7579 435.44 53.8964 435.167C52.9413 434.871 51.7158 434.49 50.2469 434.034C47.1657 433.076 42.9154 431.74 38.2639 430.135C33.6087 428.537 29.4327 426.982 26.416 425.838C24.9775 425.293 23.7768 424.84 22.8413 424.487C21.9952 424.173 21.5209 424.013 21.5067 424.047C21.4934 424.08 21.9416 424.301 22.7657 424.672C23.5889 425.045 24.7887 425.561 26.2822 426.175C29.2681 427.408 33.4323 429.02 38.0967 430.621C42.757 432.23 47.0334 433.514 50.1442 434.383C51.7008 434.814 52.9642 435.149 53.8423 435.36C54.7208 435.573 55.2102 435.677 55.2197 435.643Z" fill="#E3E3E2"/>
<path d="M458.772 167.438H359.121V23.068H458.772V167.438Z" fill="#E3E3E2"/>
<path d="M453.78 167.438H354.129V23.068H453.78V167.438Z" fill="#F8F8F9"/>
<path d="M441.399 151.802H366.51V38.7041H441.399V151.802Z" fill="white"/>
<path d="M441.399 151.802C441.399 151.802 441.39 151.611 441.384 151.249C441.381 150.876 441.376 150.343 441.369 149.645C441.363 148.223 441.352 146.143 441.34 143.441C441.324 138.021 441.301 130.122 441.273 120.144C441.243 100.201 441.2 71.9606 441.15 38.7042L441.398 38.9521C418.519 38.9596 393.166 38.967 366.519 38.9744H366.51L366.781 38.7042C366.759 81.3691 366.741 120.707 366.726 151.802L366.51 151.586C389.317 151.634 408.011 151.672 421.019 151.7C427.527 151.723 432.609 151.741 436.079 151.754C437.804 151.765 439.127 151.773 440.031 151.779C440.928 151.786 441.399 151.802 441.399 151.802C441.399 151.802 440.957 151.817 440.077 151.826C439.18 151.831 437.873 151.838 436.165 151.85C432.705 151.862 427.64 151.881 421.154 151.904C408.113 151.932 389.372 151.97 366.51 152.018H366.294V151.802C366.279 120.707 366.26 81.3691 366.239 38.7042V38.433H366.51H366.519C393.166 38.4415 418.519 38.4489 441.398 38.4553H441.648V38.7042C441.598 72.0276 441.556 100.324 441.525 120.307C441.497 130.262 441.475 138.14 441.459 143.548C441.445 146.228 441.434 148.293 441.429 149.702C441.423 150.387 441.417 150.911 441.414 151.278C441.409 151.63 441.399 151.802 441.399 151.802Z" fill="#E3E3E2"/>
<path d="M454.059 23.0681C454.118 23.1127 453.441 24.1 452.283 25.6478C451.126 27.1946 449.483 29.2989 447.607 31.5755C445.732 33.8511 443.979 35.8659 442.682 37.2978C441.385 38.7298 440.546 39.5829 440.49 39.5351C440.433 39.484 441.169 38.5436 442.392 37.0489C443.728 35.4276 445.371 33.4351 447.189 31.2308C449.006 29.0255 450.648 27.0308 451.983 25.4106C453.217 23.9255 453.999 23.0212 454.059 23.0681Z" fill="#E3E3E2"/>
<path d="M441.781 151.437C445.5 157.35 449.892 162.838 454.842 167.766L441.781 151.437Z" fill="white"/>
<path d="M454.842 167.766C454.793 167.815 453.904 167.044 452.565 165.695C451.226 164.347 449.452 162.405 447.638 160.14C445.826 157.872 444.321 155.715 443.3 154.113C442.277 152.511 441.722 151.474 441.781 151.437C441.848 151.395 442.519 152.358 443.617 153.899C444.716 155.44 446.26 157.548 448.061 159.802C449.864 162.053 451.583 164.022 452.844 165.432C454.106 166.842 454.898 167.708 454.842 167.766Z" fill="#E3E3E2"/>
<path d="M354.115 167.324C358.466 161.959 362.816 156.593 367.167 151.228L354.115 167.324Z" fill="white"/>
<path d="M367.167 151.228C367.284 151.321 364.456 155.002 360.852 159.446C357.247 163.891 354.231 167.418 354.115 167.324C353.999 167.23 356.826 163.551 360.43 159.104C364.034 154.661 367.052 151.133 367.167 151.228Z" fill="#E3E3E2"/>
<path d="M354.129 23.068C354.247 22.9755 357.084 26.3648 360.463 30.6371C363.847 34.9127 366.492 38.451 366.375 38.5446C366.258 38.6371 363.422 35.2489 360.04 30.9733C356.657 26.701 354.011 23.1606 354.129 23.068Z" fill="#E3E3E2"/>
<path d="M418.067 132.831H392.991V61.6681H418.067V132.831Z" fill="#E3E3E2"/>
<path d="M145.952 0.00315857V79.55H31.6454L27.5269 0.55954L145.952 0.00315857Z" fill="#E3E3E2"/>
<path d="M141.834 0.559517V79.3829H27.5269V0.559517H141.834Z" fill="white"/>
<path d="M28.0695 78.8414H141.291V1.10099H28.0695V78.8414ZM142.377 79.9254H26.9847V0.0179901H142.377V79.9254Z" fill="#E3E3E2"/>
<path d="M129.454 10.3531V69.5903H39.9073V10.3531H129.454Z" fill="white"/>
<path d="M129.454 10.3532C129.454 10.3532 129.299 10.3628 129.012 10.3681C128.709 10.3713 128.287 10.3766 127.739 10.383C126.605 10.3904 124.957 10.4011 122.821 10.4149C118.52 10.4308 112.266 10.4542 104.368 10.484C88.5764 10.5159 66.2248 10.5596 39.9073 10.6117L40.1668 10.3532C40.1734 28.451 40.1817 48.5053 40.19 69.583V69.5904L39.9073 69.3074C73.6864 69.3298 104.83 69.3489 129.454 69.3649L129.228 69.5904C129.278 51.5628 129.319 36.783 129.346 26.4904C129.372 21.3457 129.391 17.3266 129.405 14.5712C129.415 13.2095 129.424 12.1649 129.429 11.4393C129.438 10.7298 129.454 10.3532 129.454 10.3532C129.454 10.3532 129.47 10.6979 129.478 11.3925C129.484 12.1085 129.492 13.1394 129.503 14.4819C129.517 17.2255 129.536 21.2277 129.56 26.35C129.589 36.6766 129.629 51.5042 129.678 69.5904L129.679 69.8149H129.454C104.83 69.8308 73.6864 69.851 39.9073 69.8723H39.6251V69.5904V69.583C39.6334 48.5053 39.6412 28.451 39.6484 10.3532V10.0936H39.9073C66.2938 10.1457 88.7049 10.1894 104.538 10.2213C112.41 10.2511 118.644 10.2744 122.933 10.2915C125.046 10.3042 126.676 10.3149 127.799 10.3223C128.334 10.3287 128.746 10.334 129.043 10.3372C129.32 10.3425 129.454 10.3532 129.454 10.3532Z" fill="#E3E3E2"/>
<path d="M27.5269 0.338262C27.5747 0.27656 28.3226 0.767033 29.4927 1.61065C30.6613 2.45533 32.2541 3.65212 33.9732 5.02659C35.6929 6.40319 37.2053 7.70426 38.2701 8.67873C39.3348 9.6532 39.9577 10.2947 39.9073 10.3532C39.8013 10.4723 37.0532 8.20743 33.6207 5.46807C30.1856 2.73084 27.4267 0.466986 27.5269 0.338262Z" fill="#E3E3E2"/>
<path d="M141.834 0.559492C141.931 0.681832 139.237 2.97336 135.82 5.67761C132.4 8.38187 129.551 10.4755 129.454 10.3531C129.357 10.2308 132.05 7.9393 135.468 5.23504C138.887 2.53079 141.737 0.437152 141.834 0.559492Z" fill="#E3E3E2"/>
<path d="M141.744 79.3947C137.495 75.9532 133.247 72.5117 128.998 69.0702L141.744 79.3947Z" fill="white"/>
<path d="M128.998 69.0702C129.096 68.9489 132.029 71.1616 135.548 74.0127C139.069 76.8648 141.842 79.2733 141.744 79.3946C141.646 79.5159 138.714 77.3031 135.193 74.451C131.674 71.5999 128.9 69.1914 128.998 69.0702Z" fill="#E3E3E2"/>
<path d="M27.5269 79.3829C27.4305 79.2606 30.0955 76.9935 33.4785 74.3191C36.8628 71.6435 39.6841 69.5744 39.781 69.6967C39.8778 69.8191 37.2133 72.0861 33.829 74.7616C30.4456 77.4361 27.6238 79.5052 27.5269 79.3829Z" fill="#E3E3E2"/>
<path d="M114.433 28.8084V48.6436H58.0888V28.8084H114.433Z" fill="#E3E3E2"/>
<path d="M413.413 264.127C397.351 279.344 371.959 278.634 356.7 262.544C341.441 246.452 342.092 221.071 358.154 205.854C374.216 190.637 399.608 191.347 414.867 207.438C430.126 223.53 429.475 248.91 413.413 264.127Z" fill="#EEEEEE"/>
<path d="M406.839 257.195C394.6 268.79 375.249 268.25 363.62 255.987C351.991 243.724 352.487 224.383 364.727 212.787C376.968 201.191 396.319 201.731 407.947 213.994C419.574 226.257 419.08 245.598 406.839 257.195Z" fill="#F8F8F9"/>
<path d="M407.531 256.53C407.398 256.399 408.283 255.381 409.645 253.412C410.99 251.444 412.798 248.455 414.025 244.4C414.634 242.38 415.095 240.104 415.274 237.636C415.43 235.169 415.332 232.513 414.797 229.793C414.536 228.431 414.186 227.052 413.704 225.685C413.229 224.317 412.666 222.945 411.958 221.616C411.257 220.287 410.468 218.969 409.539 217.722C408.613 216.474 407.584 215.277 406.457 214.145C405.314 213.028 404.105 212.01 402.85 211.096C401.592 210.179 400.268 209.402 398.931 208.712C397.594 208.017 396.216 207.466 394.843 207.004C393.472 206.535 392.087 206.199 390.724 205.95C387.997 205.442 385.336 205.367 382.872 205.548C380.406 205.749 378.134 206.232 376.117 206.859C372.074 208.123 369.102 209.959 367.145 211.32C365.189 212.701 364.178 213.596 364.048 213.464C363.948 213.369 364.74 212.251 366.579 210.604C368.417 208.98 371.379 206.834 375.579 205.29C377.673 204.526 380.061 203.914 382.682 203.614C385.299 203.335 388.146 203.338 391.085 203.822C392.552 204.06 394.046 204.395 395.53 204.877C397.014 205.352 398.506 205.928 399.957 206.661C401.407 207.39 402.842 208.22 404.204 209.202C405.566 210.182 406.873 211.279 408.103 212.483C409.321 213.702 410.428 214.998 411.42 216.35C412.415 217.702 413.258 219.13 414.001 220.571C414.749 222.013 415.338 223.5 415.826 224.979C416.322 226.457 416.671 227.948 416.923 229.413C417.434 232.345 417.465 235.189 417.21 237.81C416.933 240.43 416.344 242.824 415.598 244.923C414.095 249.136 411.975 252.117 410.368 253.97C408.737 255.826 407.627 256.627 407.531 256.53Z" fill="#E3E3E2"/>
<path d="M384.158 245.83C385.351 244.666 385.034 243.049 384.116 241.084L379.414 245.67C381.45 247.007 383.068 246.892 384.158 245.83ZM386.653 231.964L391.489 227.245C389.32 225.839 387.633 226.088 386.508 227.185C385.317 228.347 385.665 230.001 386.653 231.964ZM374.915 250.055L371.099 253.778L367.776 250.371L371.49 246.75C368.404 243.179 366.301 238.914 365.939 235.612L371.923 233.431C372.325 236.364 373.798 239.712 375.953 242.397L381.644 236.848C378.872 232.171 376.011 226.718 380.885 221.967C384.496 218.445 390.156 218.044 396.021 222.827L399.804 219.138L403.128 222.544L399.413 226.167C401.701 228.919 403.448 232.069 404.083 235.105L398.231 237.49C397.523 234.79 396.374 232.454 394.916 230.551L389.124 236.2C391.929 240.842 394.722 246.229 389.919 250.913C386.375 254.368 380.782 254.77 374.915 250.055Z" fill="#E3E3E2"/>
<path d="M256.061 311.725C263.667 333.671 251.993 357.638 229.988 365.259C207.982 372.879 183.977 361.268 176.37 339.322C168.763 317.378 180.437 293.411 202.443 285.789C224.448 278.169 248.454 289.781 256.061 311.725Z" fill="#EEEEEE"/>
<path d="M246.58 315.01C252.377 331.732 243.481 349.997 226.71 355.804C209.941 361.612 191.647 352.763 185.851 336.039C180.055 319.316 188.95 301.051 205.72 295.244C222.49 289.437 240.783 298.287 246.58 315.01Z" fill="#F8F8F9"/>
<path d="M246.244 314.061C246.062 314.131 245.47 312.844 244.176 310.689C242.875 308.551 240.798 305.528 237.449 302.599C235.778 301.143 233.802 299.715 231.517 298.477C229.225 297.26 226.64 296.203 223.804 295.536C222.389 295.196 220.917 294.933 219.401 294.802C217.886 294.664 216.329 294.607 214.751 294.709C213.176 294.804 211.573 294.988 209.978 295.336C208.382 295.681 206.791 296.147 205.219 296.734C203.656 297.344 202.158 298.059 200.739 298.863C199.318 299.667 198 300.597 196.762 301.576C195.517 302.553 194.394 303.633 193.358 304.745C192.314 305.853 191.394 307.031 190.565 308.226C188.897 310.613 187.674 313.124 186.78 315.559C185.904 318.004 185.383 320.385 185.109 322.584C184.569 326.997 185.038 330.633 185.494 333.093C185.968 335.562 186.387 336.915 186.203 336.983C186.069 337.036 185.344 335.796 184.564 333.323C183.805 330.864 183.035 327.101 183.376 322.419C183.551 320.086 183.999 317.537 184.847 314.903C185.714 312.28 186.948 309.56 188.685 306.961C189.547 305.66 190.515 304.377 191.62 303.167C192.716 301.953 193.913 300.774 195.243 299.707C196.569 298.637 197.985 297.623 199.514 296.748C201.041 295.869 202.657 295.096 204.342 294.439C206.036 293.805 207.755 293.307 209.478 292.944C211.204 292.578 212.934 292.391 214.636 292.303C216.339 292.214 218.016 292.295 219.644 292.469C221.273 292.634 222.851 292.946 224.361 293.339C227.389 294.12 230.124 295.322 232.521 296.701C234.909 298.1 236.945 299.7 238.632 301.321C242.011 304.584 243.946 307.901 245.023 310.24C246.092 312.603 246.379 314.011 246.244 314.061Z" fill="#E3E3E2"/>
<path d="M225.884 331.771C225.287 330.127 223.601 329.73 221.324 329.757L223.677 336.237C225.839 334.87 226.429 333.274 225.884 331.771ZM213.695 323.383L211.274 316.716C208.989 318.182 208.497 319.902 209.059 321.452C209.656 323.095 211.389 323.477 213.695 323.383ZM225.926 342.437L227.835 347.698L223.136 349.399L221.279 344.282C216.525 345.685 211.534 345.849 208.217 344.766L208.722 338.099C211.702 338.986 215.543 339.027 219.047 338.13L216.2 330.286C210.525 330.911 204.068 331.284 201.631 324.569C199.826 319.59 201.892 314.006 209.009 310.47L207.117 305.256L211.816 303.553L213.673 308.672C217.299 307.677 221.069 307.372 224.249 308.079L223.997 314.707C221.106 314.215 218.374 314.301 215.922 314.87L218.82 322.854C224.477 322.184 230.841 321.845 233.243 328.466C235.015 333.35 232.978 338.871 225.926 342.437Z" fill="#E3E3E2"/>
<path d="M95.868 207.639C96.1099 227.131 80.4624 243.129 60.9177 243.372C41.3716 243.617 25.3292 228.014 25.0864 208.522C24.8423 189.031 40.4903 173.033 60.0354 172.789C79.5815 172.545 95.6239 188.148 95.868 207.639Z" fill="#EEEEEE"/>
<path d="M87.4464 207.745C87.6322 222.597 75.7075 234.789 60.812 234.976C45.918 235.162 33.6922 223.27 33.5067 208.417C33.3221 193.564 45.2461 181.372 60.1406 181.186C75.0351 181.001 87.2605 192.89 87.4464 207.745Z" fill="#F8F8F9"/>
<path d="M87.4293 206.9C87.2663 206.907 87.1361 205.725 86.6763 203.667C86.2061 201.62 85.3526 198.662 83.4621 195.443C82.518 193.841 81.3214 192.181 79.8305 190.589C78.3271 189.013 76.5485 187.487 74.4663 186.205C73.429 185.56 72.3269 184.962 71.154 184.456C69.9841 183.945 68.7593 183.487 67.475 183.15C66.1949 182.809 64.8698 182.532 63.5075 182.387C62.145 182.239 60.7538 182.188 59.347 182.24C57.9409 182.312 56.5585 182.485 55.2148 182.75C53.8693 183.014 52.5743 183.406 51.3282 183.857C50.0785 184.306 48.8981 184.869 47.7777 185.481C46.653 186.086 45.6078 186.782 44.6308 187.514C42.67 188.973 41.0307 190.649 39.6733 192.351C38.3283 194.067 37.2822 195.825 36.4815 197.505C34.8816 200.876 34.2917 203.897 34.0035 205.978C33.7271 208.068 33.7014 209.257 33.5379 209.262C33.417 209.27 33.1675 208.089 33.2016 205.914C33.249 203.753 33.6319 200.554 35.1448 196.915C35.9023 195.102 36.9347 193.192 38.3075 191.318C39.6932 189.457 41.397 187.619 43.4691 186.008C44.5006 185.2 45.6107 184.435 46.811 183.764C48.0067 183.087 49.2719 182.466 50.614 181.968C51.9535 181.466 53.3496 181.034 54.7998 180.741C56.2487 180.446 57.7409 180.256 59.2567 180.181C60.7738 180.123 62.2751 180.182 63.7435 180.349C65.2146 180.514 66.6427 180.823 68.0209 181.204C69.4013 181.583 70.7167 182.091 71.9656 182.662C73.2199 183.224 74.3941 183.89 75.4921 184.604C77.696 186.026 79.5566 187.708 81.1006 189.441C82.6306 191.187 83.8288 193.001 84.7427 194.739C86.5699 198.232 87.2318 201.385 87.4705 203.534C87.6953 205.698 87.5507 206.896 87.4293 206.9Z" fill="#E3E3E2"/>
<path d="M66.5217 215.616C66.4813 214.148 65.2445 213.385 63.4238 212.804L63.5797 218.588C65.6644 218.071 66.5574 216.957 66.5217 215.616ZM59.0368 205.708L58.875 199.757C56.667 200.32 55.8192 201.56 55.8562 202.943C55.8962 204.408 57.175 205.172 59.0368 205.708ZM63.7282 224.121L63.8554 228.816L59.6621 228.928L59.5394 224.36C55.3814 224.219 51.3623 223.029 49.0083 221.288L51.1752 216.113C53.3143 217.607 56.3634 218.657 59.3915 218.869L59.2018 211.869C54.5171 210.864 49.2761 209.453 49.1147 203.458C48.9954 199.016 52.1206 195.116 58.7254 194.184L58.6002 189.531L62.7936 189.417L62.9171 193.987C66.0681 194.153 69.1518 194.908 71.4975 196.314L69.5405 201.525C67.3686 200.368 65.1692 199.714 63.0654 199.518L63.258 206.644C67.9415 207.607 73.0994 209.022 73.2582 214.931C73.3758 219.29 70.2901 223.148 63.7282 224.121Z" fill="#E3E3E2"/>
<path d="M263.483 55.2244C265.991 50.7276 267.426 45.5393 267.426 40.0084C267.426 22.8659 253.683 8.96909 236.729 8.96909C233.9 8.96909 231.164 9.36375 228.564 10.0872C241.553 13.7042 251.096 25.7254 251.096 40.0084C251.096 54.2925 241.553 66.3137 228.564 69.9297C231.164 70.6542 233.9 71.0489 236.729 71.0489C242.702 71.0489 248.273 69.318 252.989 66.334L267.426 71.9138L263.483 55.2244Z" fill="#EEEEEE"/>
<path d="M463.076 454.374C463.076 454.526 361.867 454.65 237.048 454.65C112.186 454.65 10.9985 454.526 10.9985 454.374C10.9985 454.221 112.186 454.096 237.048 454.096C361.867 454.096 463.076 454.221 463.076 454.374Z" fill="#1D2A30"/>
<path d="M132.822 420.215L133.692 446.689L140.421 467.432C140.905 468.926 140.023 470.519 138.497 470.9C137.643 471.115 136.746 470.907 136.077 470.334C131.823 466.688 116.241 453.199 116.286 451.257C116.338 449.009 113.514 423.391 113.514 423.391L132.822 420.215Z" fill="#334BA7"/>
<path d="M138.497 470.9L116.187 449.473L116.249 450.592C116.303 451.563 116.694 452.482 117.364 453.184C119.154 455.065 124.211 460.147 135.996 470.339C136.682 470.933 137.624 471.145 138.497 470.9Z" fill="#E3E3E2"/>
<path d="M121.141 440.638C121.83 441.061 122.102 442.05 121.71 442.754C121.316 443.46 120.311 443.746 119.616 443.336C118.92 442.926 118.556 441.749 119.025 441.093C119.495 440.436 120.693 440.165 121.27 440.729" fill="white"/>
<path d="M131.805 459.682C131.958 459.747 132.478 458.329 134.01 457.496C135.517 456.618 137 456.908 137.024 456.743C137.044 456.676 136.698 456.489 136.073 456.438C135.455 456.381 134.564 456.518 133.725 456.988C132.887 457.463 132.308 458.152 132.036 458.709C131.757 459.271 131.738 459.664 131.805 459.682Z" fill="#1D2A30"/>
<path d="M133.887 463.118C134.019 463.225 134.82 462.319 136.168 461.851C137.503 461.353 138.699 461.54 138.733 461.373C138.802 461.234 137.497 460.744 135.97 461.303C134.438 461.846 133.745 463.054 133.887 463.118Z" fill="#1D2A30"/>
<path d="M128.044 455.337C128.174 455.456 129.401 454.054 131.43 453.143C133.447 452.2 135.309 452.187 135.304 452.011C135.34 451.867 133.352 451.61 131.188 452.615C129.013 453.598 127.912 455.271 128.044 455.337Z" fill="#1D2A30"/>
<path d="M127.106 447.311C127.186 447.466 128.613 446.774 130.512 446.6C132.408 446.399 133.943 446.798 133.991 446.631C134.057 446.498 132.492 445.81 130.454 446.021C128.415 446.213 127.015 447.193 127.106 447.311Z" fill="#1D2A30"/>
<path d="M126.655 439.547C126.745 439.695 128.165 438.732 130.18 438.712C132.193 438.647 133.654 439.549 133.738 439.397C133.777 439.338 133.471 439.022 132.841 438.705C132.216 438.386 131.251 438.109 130.167 438.13C129.083 438.155 128.132 438.472 127.521 438.817C126.906 439.162 126.612 439.49 126.655 439.547Z" fill="#1D2A30"/>
<path d="M130.05 437.236C130.084 437.235 130.124 436.876 130.031 436.234C129.937 435.597 129.698 434.665 129.09 433.658C128.776 433.183 128.443 432.567 127.685 432.261C127.308 432.105 126.764 432.203 126.47 432.571C126.178 432.929 126.103 433.369 126.118 433.789C126.239 435.466 127.772 437.009 129.674 437.146C131.582 437.249 133.241 436.069 133.911 434.579C134.055 434.194 134.143 433.728 133.912 433.293C133.686 432.852 133.137 432.703 132.763 432.788C131.983 432.95 131.512 433.43 131.069 433.793C130.199 434.575 129.677 435.377 129.378 435.947C129.078 436.521 128.992 436.87 129.023 436.884C129.12 436.947 129.619 435.547 131.338 434.103C131.772 433.77 132.271 433.349 132.834 433.266C133.109 433.223 133.352 433.319 133.463 433.536C133.576 433.745 133.539 434.079 133.412 434.382C132.844 435.604 131.326 436.677 129.713 436.565C128.11 436.467 126.764 435.107 126.655 433.759C126.632 433.434 126.7 433.101 126.863 432.899C127.024 432.699 127.281 432.633 127.532 432.718C128.057 432.897 128.434 433.433 128.742 433.88C129.965 435.759 129.935 437.269 130.05 437.236Z" fill="#1D2A30"/>
<path d="M184.389 424.147L183.017 443.942C183.017 443.942 202.688 451.986 202.79 455.669L164.292 454.388L165.163 423.455L184.389 424.147Z" fill="#334BA7"/>
<path d="M171.167 441.88C170.415 442.058 169.873 442.879 170.021 443.637C170.168 444.395 170.998 444.954 171.753 444.788C172.508 444.623 173.19 443.658 172.958 442.922C172.727 442.185 171.716 441.582 171.023 441.923" fill="#E3E3E2"/>
<path d="M164.292 454.389L164.501 451.274L201.335 453.667C201.335 453.667 203.024 454.469 202.79 455.669L164.292 454.389Z" fill="#E3E3E2"/>
<path d="M183.647 443.768C183.634 443.956 182.691 444.009 181.746 444.583C180.786 445.133 180.282 445.931 180.112 445.85C179.94 445.807 180.257 444.695 181.414 444.02C182.564 443.335 183.693 443.597 183.647 443.768Z" fill="#1D2A30"/>
<path d="M187.63 445.572C187.666 445.756 186.841 446.048 186.176 446.822C185.488 447.575 185.299 448.428 185.111 448.416C184.935 448.438 184.841 447.334 185.686 446.387C186.523 445.435 187.631 445.392 187.63 445.572Z" fill="#1D2A30"/>
<path d="M189.761 450.478C189.589 450.513 189.359 449.566 189.876 448.553C190.386 447.535 191.286 447.159 191.36 447.318C191.461 447.476 190.872 448.01 190.461 448.848C190.029 449.676 189.949 450.466 189.761 450.478Z" fill="#1D2A30"/>
<path d="M183.458 439.222C183.374 439.391 182.521 439.103 181.455 439.139C180.39 439.155 179.551 439.484 179.459 439.319C179.354 439.18 180.185 438.512 181.439 438.486C182.693 438.45 183.555 439.078 183.458 439.222Z" fill="#1D2A30"/>
<path d="M183.662 435.223C183.662 435.3 182.915 435.392 181.734 435.149C181.147 435.028 180.457 434.811 179.737 434.463C179.378 434.288 179.012 434.081 178.65 433.838C178.476 433.718 178.27 433.597 178.082 433.366C177.88 433.164 177.779 432.661 178.03 432.364C178.237 432.075 178.589 431.958 178.868 431.962C179.152 431.962 179.38 432.026 179.587 432.085C180.013 432.203 180.41 432.36 180.772 432.536C181.497 432.896 182.08 433.338 182.512 433.762C183.376 434.618 183.658 435.331 183.594 435.365C183.506 435.423 183.091 434.82 182.205 434.108C181.763 433.753 181.196 433.384 180.518 433.083C180.178 432.934 179.811 432.804 179.421 432.704C179.018 432.584 178.671 432.569 178.56 432.747C178.52 432.816 178.513 432.843 178.595 432.965C178.68 433.078 178.841 433.19 179.012 433.31C179.346 433.542 179.681 433.748 180.011 433.926C180.672 434.281 181.306 434.53 181.851 434.702C182.944 435.046 183.668 435.122 183.662 435.223Z" fill="#1D2A30"/>
<path d="M183.408 435.484C183.34 435.512 182.99 434.826 182.961 433.606C182.95 433.001 183.037 432.272 183.294 431.505C183.425 431.123 183.6 430.733 183.825 430.351C184.063 429.978 184.355 429.479 185.087 429.419C185.468 429.417 185.774 429.726 185.874 429.983C185.994 430.247 186.011 430.471 186.049 430.696C186.104 431.148 186.082 431.588 186.006 431.995C185.858 432.81 185.501 433.48 185.117 433.958C184.331 434.93 183.539 435.128 183.525 435.065C183.466 434.968 184.133 434.628 184.741 433.688C185.04 433.224 185.314 432.611 185.411 431.897C185.461 431.541 185.468 431.164 185.414 430.782C185.367 430.373 185.224 430.036 185.07 430.073C184.878 430.064 184.543 430.36 184.374 430.682C184.165 431.02 183.996 431.368 183.862 431.711C183.598 432.398 183.47 433.061 183.424 433.621C183.334 434.749 183.511 435.459 183.408 435.484Z" fill="#1D2A30"/>
<path d="M105.238 228.782L110.928 441.595L141.298 440.684L148.541 221.528L105.238 228.782Z" fill="#1D2A30"/>
<path d="M168.364 221.166C168.364 221.166 190.911 311.383 191.603 326.766C192.295 342.149 186.777 438.295 186.777 438.295H157.045L159.527 328.805L136.944 236.147L142.41 221.639L168.364 221.166Z" fill="#1D2A30"/>
<path d="M150.013 232.245C150.022 232.245 150.026 232.342 150.026 232.533C150.021 232.755 150.016 233.033 150.008 233.378C149.98 234.161 149.939 235.245 149.888 236.62C149.757 239.478 149.57 243.538 149.341 248.537C148.824 258.634 148.113 272.513 147.328 287.842C146.48 303.175 145.712 317.053 145.153 327.149C144.849 332.146 144.604 336.202 144.43 339.058C144.334 340.432 144.26 341.513 144.206 342.296C144.176 342.639 144.151 342.916 144.133 343.137C144.113 343.327 144.099 343.423 144.09 343.423C144.08 343.422 144.076 343.325 144.077 343.136C144.081 342.914 144.086 342.636 144.094 342.292C144.123 341.51 144.163 340.427 144.214 339.052C144.345 336.195 144.531 332.135 144.761 327.136C145.278 317.037 145.989 303.157 146.774 287.82C147.623 272.49 148.391 258.614 148.949 248.516C149.253 243.521 149.499 239.464 149.673 236.607C149.768 235.235 149.842 234.152 149.897 233.371C149.926 233.029 149.95 232.751 149.969 232.53C149.988 232.34 150.003 232.244 150.013 232.245Z" fill="#365462"/>
<path d="M146.679 105.483C146.679 105.483 157.711 160.204 157.871 175.624C158.03 191.044 163.448 221.166 163.448 221.166H115.657L114.625 137.796L111.223 112.928L118.398 102.7L146.679 105.483Z" fill="#F8F8F9"/>
<path d="M147.256 107.095C147.256 107.095 158.657 110.44 161.671 114.656C164.049 117.982 167.256 180.926 167.256 180.926L172.149 236.366L167.365 235.919L160.613 215.167L147.256 107.095Z" fill="#334BA7"/>
<path d="M161.671 114.656L193.86 144.177L233.466 131.352L241.354 147.971L199.096 167.144C193.056 169.719 189.27 168.301 185.078 164.946L162.908 147.198L161.671 114.656Z" fill="#334BA7"/>
<path d="M226.091 136.648C226.317 137.07 226.158 137.596 225.734 137.822C225.31 138.048 224.785 137.888 224.559 137.466C224.332 137.043 224.493 136.517 224.916 136.29C225.339 136.065 225.865 136.224 226.091 136.648Z" fill="#1D2A30"/>
<path d="M225.323 136.215C225.19 136.215 225.054 136.247 224.928 136.314C224.73 136.42 224.584 136.597 224.52 136.812C224.454 137.028 224.476 137.254 224.582 137.453C224.688 137.651 224.864 137.797 225.08 137.862C225.295 137.928 225.523 137.903 225.721 137.799C225.92 137.693 226.065 137.516 226.13 137.301C226.196 137.086 226.174 136.858 226.067 136.66C225.916 136.377 225.624 136.215 225.323 136.215ZM225.325 137.951L225.065 137.913C224.836 137.844 224.648 137.689 224.536 137.478C224.423 137.267 224.398 137.026 224.468 136.797C224.538 136.568 224.692 136.38 224.904 136.267C225.115 136.155 225.356 136.132 225.585 136.2C225.814 136.27 226.001 136.424 226.114 136.635C226.227 136.846 226.251 137.087 226.181 137.317C226.112 137.545 225.958 137.733 225.747 137.846C225.615 137.916 225.471 137.951 225.325 137.951Z" fill="#1D2A30"/>
<path d="M229.411 135.858C229.637 136.282 229.477 136.807 229.054 137.033C228.631 137.26 228.105 137.1 227.879 136.677C227.653 136.253 227.813 135.728 228.235 135.502C228.659 135.277 229.186 135.436 229.411 135.858Z" fill="#1D2A30"/>
<path d="M228.644 135.425C228.507 135.425 228.371 135.46 228.248 135.525C227.839 135.744 227.684 136.255 227.902 136.665C228.009 136.863 228.185 137.007 228.4 137.073C228.616 137.138 228.844 137.115 229.042 137.01C229.452 136.791 229.607 136.281 229.388 135.871C229.281 135.673 229.105 135.528 228.89 135.463L228.644 135.425ZM228.646 137.163L228.385 137.123C228.156 137.054 227.968 136.9 227.856 136.689C227.623 136.254 227.788 135.711 228.224 135.479C228.433 135.367 228.676 135.344 228.905 135.412C229.134 135.481 229.322 135.635 229.435 135.847C229.548 136.057 229.571 136.299 229.502 136.528C229.432 136.756 229.277 136.944 229.066 137.056C228.936 137.128 228.791 137.163 228.646 137.163Z" fill="#1D2A30"/>
<path d="M232.571 135.221C232.797 135.644 232.637 136.17 232.215 136.396C231.791 136.622 231.265 136.462 231.04 136.039C230.813 135.616 230.973 135.09 231.396 134.865C231.819 134.638 232.346 134.798 232.571 135.221Z" fill="#1D2A30"/>
<path d="M231.804 134.789C231.671 134.789 231.535 134.821 231.408 134.888C231.21 134.993 231.065 135.17 231 135.386C230.934 135.601 230.957 135.829 231.063 136.026C231.169 136.225 231.345 136.37 231.56 136.435C231.776 136.5 232.003 136.478 232.202 136.372C232.611 136.154 232.766 135.642 232.548 135.234C232.397 134.95 232.105 134.789 231.804 134.789ZM231.806 136.525L231.545 136.486C231.316 136.417 231.128 136.263 231.016 136.052C230.904 135.84 230.879 135.599 230.949 135.37C231.018 135.141 231.173 134.954 231.384 134.841C231.818 134.607 232.362 134.773 232.595 135.208C232.827 135.643 232.662 136.187 232.227 136.419C232.096 136.489 231.952 136.525 231.806 136.525Z" fill="#1D2A30"/>
<path d="M233.858 132.179L236.922 131.058L243.954 145.869L240.962 147.144L233.858 132.179Z" fill="#E3E3E2"/>
<path d="M162.703 126.321C162.741 126.32 162.802 126.911 162.888 127.977C163.006 129.139 163.161 130.656 163.349 132.485C163.79 136.386 164.38 141.595 165.033 147.353C165.676 153.165 166.189 158.436 166.43 162.264C166.557 164.177 166.612 165.729 166.625 166.801C166.626 167.875 166.609 168.468 166.569 168.468C166.532 168.469 166.477 167.878 166.41 166.811C166.33 165.744 166.216 164.2 166.039 162.295C165.7 158.483 165.125 153.224 164.482 147.414C163.839 141.606 163.273 136.343 162.958 132.522C162.798 130.612 162.71 129.062 162.672 127.989C162.653 126.915 162.665 126.322 162.703 126.321Z" fill="#1D2A30"/>
<path d="M169.734 133.706C169.881 133.749 168.978 137.301 167.718 141.639C166.457 145.979 165.316 149.461 165.169 149.418C165.022 149.376 165.924 145.824 167.186 141.484C168.446 137.147 169.587 133.664 169.734 133.706Z" fill="#1D2A30"/>
<path d="M193.519 154.148C193.46 154.176 193.124 153.668 192.805 152.74C192.487 151.817 192.235 150.459 192.326 148.957C192.423 147.456 192.843 146.14 193.275 145.265C193.706 144.384 194.104 143.921 194.158 143.957C194.315 144.034 193.037 146.103 192.88 148.992C192.675 151.878 193.684 154.091 193.519 154.148Z" fill="#1D2A30"/>
<path d="M189.836 188.343L193.957 188.663L192.32 205.84L188.344 205.387L189.836 188.343Z" fill="#E3E3E2"/>
<path d="M118.406 103.891L96.1976 118.044C90.9874 121.708 88.7989 128.355 90.8136 134.397L107.851 187.902L101.708 236.519L150.384 234.454L149.202 213.142L145.067 175.018C144.299 167.947 142.54 161.019 139.841 154.439L118.406 103.891Z" fill="#334BA7"/>
<path d="M95.1998 137.33L117.417 183.792C119.212 187.546 122.609 190.286 126.659 191.245L188.304 205.84L189.874 187.902L142.819 170.212L119.147 124.802C115.546 117.892 106.859 115.453 100.184 119.476C94.0548 123.169 91.8696 130.998 95.1998 137.33Z" fill="#334BA7"/>
<path d="M189.874 187.902C189.872 187.911 189.786 187.887 189.622 187.834C189.43 187.769 189.191 187.688 188.894 187.587C188.222 187.346 187.29 187.013 186.104 186.587C183.645 185.683 180.138 184.394 175.782 182.791C166.999 179.511 154.804 174.955 140.991 169.795L140.892 169.757L140.842 169.66C139.529 167.057 138.151 164.327 136.749 161.549C132.887 154.034 129.045 146.962 125.45 140.585C123.652 137.396 121.918 134.381 120.28 131.568C119.455 130.166 118.659 128.811 117.894 127.507C117.516 126.85 117.131 126.221 116.725 125.633C116.354 125.016 115.899 124.483 115.466 123.952C113.714 121.837 111.563 120.461 109.549 119.661C107.524 118.858 105.617 118.623 104.086 118.687C100.968 118.798 99.5374 120.007 99.5162 119.909C99.5104 119.9 99.5978 119.838 99.774 119.724C99.9507 119.611 100.209 119.429 100.591 119.277C101.333 118.932 102.512 118.556 104.076 118.472C105.632 118.373 107.579 118.581 109.661 119.371C111.73 120.161 113.951 121.55 115.763 123.697C116.211 124.235 116.681 124.778 117.066 125.403C117.487 126.006 117.88 126.636 118.261 127.288C119.036 128.587 119.842 129.937 120.676 131.335C122.333 134.14 124.083 137.149 125.895 140.333C129.516 146.701 133.377 153.773 137.242 161.296C138.666 164.067 140.039 166.802 141.334 169.417L141.185 169.282C154.972 174.511 167.144 179.127 175.91 182.452C180.241 184.119 183.729 185.462 186.174 186.403C187.345 186.866 188.266 187.23 188.93 187.493C189.22 187.612 189.453 187.709 189.64 187.786C189.799 187.854 189.877 187.894 189.874 187.902Z" fill="#1D2A30"/>
<path d="M179.399 199.084C179.399 199.564 179.009 199.952 178.531 199.952C178.051 199.952 177.662 199.564 177.662 199.084C177.662 198.604 178.051 198.216 178.531 198.216C179.009 198.216 179.399 198.604 179.399 199.084Z" fill="#1D2A30"/>
<path d="M178.531 198.243C178.066 198.243 177.689 198.62 177.689 199.084C177.689 199.548 178.066 199.925 178.531 199.925C178.995 199.925 179.372 199.548 179.372 199.084C179.372 198.62 178.995 198.243 178.531 198.243ZM178.531 199.979C178.037 199.979 177.635 199.578 177.635 199.084C177.635 198.59 178.037 198.189 178.531 198.189C179.024 198.189 179.426 198.59 179.426 199.084C179.426 199.578 179.024 199.979 178.531 199.979Z" fill="#1D2A30"/>
<path d="M182.7 199.952C182.7 200.432 182.31 200.82 181.83 200.82C181.351 200.82 180.961 200.432 180.961 199.952C180.961 199.472 181.351 199.084 181.83 199.084C182.31 199.084 182.7 199.472 182.7 199.952Z" fill="#1D2A30"/>
<path d="M181.83 199.111C181.366 199.111 180.988 199.488 180.988 199.952C180.988 200.416 181.366 200.793 181.83 200.793C182.295 200.793 182.673 200.416 182.673 199.952C182.673 199.488 182.295 199.111 181.83 199.111ZM181.83 200.847C181.337 200.847 180.936 200.446 180.936 199.952C180.936 199.458 181.337 199.057 181.83 199.057C182.324 199.057 182.726 199.458 182.726 199.952C182.726 200.446 182.324 200.847 181.83 200.847Z" fill="#1D2A30"/>
<path d="M185.787 200.878C185.787 201.357 185.398 201.746 184.919 201.746C184.439 201.746 184.05 201.357 184.05 200.878C184.05 200.398 184.439 200.01 184.919 200.01C185.398 200.01 185.787 200.398 185.787 200.878Z" fill="#1D2A30"/>
<path d="M184.919 200.036C184.455 200.036 184.077 200.414 184.077 200.878C184.077 201.341 184.455 201.719 184.919 201.719C185.383 201.719 185.761 201.341 185.761 200.878C185.761 200.414 185.383 200.036 184.919 200.036ZM184.919 201.772C184.425 201.772 184.024 201.371 184.024 200.878C184.024 200.384 184.425 199.983 184.919 199.983C185.413 199.983 185.814 200.384 185.814 200.878C185.814 201.371 185.413 201.772 184.919 201.772Z" fill="#1D2A30"/>
<path d="M188.304 205.84C188.301 205.85 188.2 205.833 188.004 205.793C187.779 205.743 187.493 205.679 187.138 205.599C186.339 205.407 185.227 205.143 183.817 204.804C180.898 204.086 176.742 203.064 171.625 201.805C161.331 199.28 147.125 195.71 131.373 192.062C129.405 191.59 127.45 191.216 125.526 190.696C123.618 190.17 121.729 189.394 120.257 188.065C118.793 186.733 117.851 185.03 117.033 183.39C116.24 181.735 115.465 180.114 114.708 178.533C111.711 172.209 109.01 166.51 106.735 161.71C104.497 156.94 102.679 153.069 101.403 150.349C100.798 149.031 100.321 147.994 99.9786 147.248C99.8314 146.914 99.7141 146.648 99.6205 146.435C99.5433 146.251 99.5071 146.154 99.5162 146.151C99.525 146.147 99.5773 146.235 99.6722 146.411C99.7786 146.617 99.9125 146.877 100.08 147.2C100.445 147.935 100.953 148.957 101.598 150.256C102.913 152.959 104.783 156.804 107.088 161.542C109.394 166.327 112.131 172.006 115.168 178.311C115.929 179.887 116.709 181.503 117.505 183.153C118.32 184.777 119.244 186.415 120.621 187.662C122.001 188.904 123.801 189.651 125.674 190.165C127.555 190.672 129.529 191.051 131.496 191.521C147.26 195.171 161.449 198.802 171.721 201.426C176.82 202.756 180.96 203.836 183.87 204.596C185.27 204.977 186.373 205.276 187.165 205.49C187.515 205.593 187.796 205.673 188.018 205.737C188.21 205.797 188.306 205.831 188.304 205.84Z" fill="#1D2A30"/>
<path d="M138.516 202.929C138.537 202.961 138.275 203.181 137.781 203.549C137.286 203.917 136.561 204.434 135.645 205.047C133.812 206.259 131.2 207.903 127.987 209.027C124.77 210.149 121.597 210.298 119.405 209.885C118.307 209.69 117.445 209.409 116.876 209.159C116.306 208.911 116.013 208.73 116.028 208.7C116.067 208.6 117.304 209.218 119.464 209.498C121.609 209.8 124.67 209.596 127.806 208.503C130.944 207.407 133.556 205.839 135.434 204.716C137.31 203.577 138.471 202.861 138.516 202.929Z" fill="#1D2A30"/>
<path d="M141.21 209.098C141.229 209.092 141.281 209.231 141.364 209.499C141.455 209.765 141.549 210.167 141.647 210.692C141.834 211.74 141.934 213.309 141.604 215.204C141.256 217.082 140.442 219.298 138.837 221.296C137.256 223.304 134.82 224.949 131.984 225.75C129.141 226.535 126.204 226.39 123.811 225.492C121.402 224.615 119.556 223.141 118.285 221.715C117.02 220.266 116.293 218.872 115.909 217.88C115.721 217.379 115.592 216.987 115.532 216.712C115.464 216.439 115.436 216.296 115.456 216.29C115.586 216.216 116.023 218.668 118.575 221.452C119.848 222.805 121.66 224.195 123.982 225.012C126.287 225.848 129.1 225.97 131.835 225.216C134.562 224.445 136.903 222.883 138.441 220.973C140.005 219.072 140.833 216.946 141.22 215.129C141.959 211.425 141.06 209.102 141.21 209.098Z" fill="#1D2A30"/>
<path d="M120.798 61.5361L120.938 101.177C120.961 107.918 126.625 113.268 133.36 112.911C139.645 112.579 144.562 107.366 144.533 101.075C144.52 98.0914 144.514 95.6031 144.533 95.2957C144.533 95.2957 154.625 94.3106 155.319 84.3201C155.655 79.4925 155.535 69.4914 155.323 60.4468C155.094 50.7319 147.427 42.8255 137.721 42.2723L136.755 42.218C126.315 42.2329 120.494 51.1042 120.798 61.5361Z" fill="#C67C6C"/>
<path d="M144.558 95.1531C144.558 95.1531 138.207 95.3063 131.729 90.7053C131.729 90.7053 134.401 98.0765 144.433 97.7446L144.558 95.1531Z" fill="#BE5444"/>
<path d="M152.844 66.3245C152.827 67.0809 152.174 67.6894 151.383 67.6873C150.596 67.6841 149.969 67.0713 149.985 66.316C150.002 65.5606 150.654 64.9511 151.443 64.9532C152.233 64.9553 152.86 65.5702 152.844 66.3245Z" fill="#1D2A30"/>
<path d="M153.128 64.6371C152.941 64.8137 151.904 63.9509 150.366 63.8669C148.831 63.7616 147.658 64.4882 147.503 64.2903C147.425 64.2031 147.625 63.8765 148.137 63.5478C148.641 63.219 149.485 62.9201 150.443 62.9786C151.399 63.0382 152.185 63.4361 152.627 63.8233C153.079 64.2127 153.22 64.5584 153.128 64.6371Z" fill="#1D2A30"/>
<path d="M137.909 66.2042C137.893 66.9606 137.239 67.5691 136.45 67.567C135.661 67.5638 135.035 66.951 135.051 66.1957C135.067 65.4393 135.721 64.8297 136.509 64.8329C137.299 64.835 137.926 65.4489 137.909 66.2042Z" fill="#1D2A30"/>
<path d="M137.828 64.2903C137.64 64.4669 136.602 63.6042 135.065 63.5212C133.531 63.4159 132.358 64.1414 132.202 63.9435C132.125 63.8552 132.323 63.5297 132.836 63.201C133.34 62.8722 134.185 62.5733 135.142 62.6308C136.098 62.6914 136.884 63.0893 137.327 63.4765C137.777 63.8659 137.92 64.2116 137.828 64.2903Z" fill="#1D2A30"/>
<path d="M142.696 76.368C142.694 76.2797 143.66 76.1691 145.219 76.0606C145.614 76.0414 145.989 75.985 146.071 75.7212C146.18 75.4436 146.039 75.0106 145.875 74.5436C145.56 73.5734 145.232 72.5553 144.885 71.4904C143.516 67.1446 142.548 63.5819 142.724 63.5276C142.9 63.4733 144.151 66.9521 145.521 71.2978C145.849 72.368 146.164 73.3893 146.462 74.3659C146.584 74.8201 146.812 75.3404 146.577 75.917C146.456 76.2042 146.154 76.401 145.9 76.4542C145.643 76.517 145.422 76.5085 145.227 76.5085C143.664 76.5031 142.697 76.4563 142.696 76.368Z" fill="#1D2A30"/>
<path d="M138.446 61.1031C138.271 61.5127 136.747 61.2276 134.932 61.3414C133.113 61.4191 131.629 61.8638 131.411 61.4765C131.314 61.2904 131.591 60.9127 132.202 60.5414C132.808 60.1701 133.759 59.8404 134.849 59.7808C135.939 59.7255 136.92 59.9531 137.562 60.2574C138.208 60.5616 138.523 60.9084 138.446 61.1031Z" fill="#1D2A30"/>
<path d="M152.998 60.9712C152.707 61.3053 151.669 60.8819 150.397 60.7925C149.128 60.6585 148.032 60.8936 147.805 60.5138C147.706 60.3308 147.896 59.9914 148.386 59.6872C148.868 59.385 149.66 59.1606 150.534 59.2361C151.407 59.3138 152.148 59.6734 152.57 60.0553C152.999 60.4404 153.127 60.8085 152.998 60.9712Z" fill="#1D2A30"/>
<path d="M121.192 68.9851C121.025 68.9021 114.436 66.5617 114.264 73.4095C114.093 80.2563 121.006 79.0159 121.023 78.8202C121.04 78.6234 121.192 68.9851 121.192 68.9851Z" fill="#C67C6C"/>
<path d="M118.996 76.1733C118.966 76.151 118.873 76.2542 118.67 76.3414C118.471 76.4265 118.131 76.4808 117.777 76.3382C117.06 76.0542 116.479 74.8903 116.477 73.6552C116.475 73.0318 116.621 72.4414 116.854 71.9552C117.076 71.4606 117.409 71.118 117.775 71.0627C118.139 70.9882 118.391 71.2127 118.471 71.4074C118.558 71.601 118.51 71.7372 118.546 71.7489C118.566 71.767 118.697 71.6382 118.649 71.3542C118.624 71.218 118.548 71.0542 118.39 70.918C118.229 70.7808 117.989 70.7063 117.734 70.7276C117.205 70.751 116.717 71.2244 116.46 71.7574C116.175 72.2925 115.997 72.9552 115.999 73.6552C116.009 75.0372 116.683 76.3457 117.666 76.6574C118.145 76.7946 118.551 76.6595 118.763 76.5031C118.979 76.3393 119.019 76.1861 118.996 76.1733Z" fill="#BE5444"/>
<path d="M117.401 68.5372C118.458 68.3446 120.208 69.4084 120.596 70.4106C120.986 71.4116 121.021 72.5233 121.408 73.5244C121.796 74.5276 122.747 75.467 123.806 75.2797C124.535 75.151 125.089 74.5053 125.32 73.801C125.551 73.0978 125.517 72.3372 125.466 71.5978C125.245 68.3829 124.754 65.1797 124.809 61.9574C124.864 58.735 125.513 55.4223 127.358 52.7787C129.203 50.1361 132.42 48.2989 135.613 48.7404C137.729 49.0329 139.615 50.251 141.71 50.667C144.193 51.1606 146.89 50.4276 148.782 48.7467C148.846 48.6904 148.971 48.6031 149.12 48.5063C149.81 48.0563 150.157 47.1946 149.9 46.4116C149.813 46.1457 149.693 45.8999 149.534 45.734C145.566 41.6244 138.079 40.1127 132.467 41.1893C126.855 42.2659 121.446 45.8755 118.769 50.9223C116.093 55.9691 116.389 63.218 117.401 68.5372Z" fill="#1D2A30"/>
<path d="M139.068 77.5733C139.318 77.5584 139.321 79.2233 140.746 80.4042C142.169 81.5903 143.945 81.4031 143.958 81.635C143.981 81.7403 143.562 81.9595 142.813 81.9786C142.078 82.0042 141.004 81.768 140.132 81.0456C139.263 80.3212 138.889 79.3542 138.832 78.6712C138.768 77.9754 138.954 77.5637 139.068 77.5733Z" fill="#1D2A30"/>
<path d="M234.705 133.867C234.705 133.867 242.206 127.279 243.628 126.796C245.049 126.313 256.34 126.104 257.103 126.669C257.865 127.234 269.296 133.501 267.404 134.461C265.51 135.42 257.58 130.933 257.58 130.933L256.248 131.108C256.248 131.108 263.161 134.799 264.396 136.221C265.531 137.53 264.445 139.097 263.153 138.496C261.861 137.895 255.927 134.47 255.459 134.601C254.992 134.731 261.783 138.702 262.408 139.437C263.249 140.426 262.707 142.34 261.405 141.788C260.637 141.462 254.371 137.313 254.371 137.313C254.371 137.313 259.101 141.297 259.438 141.947C259.992 143.012 258.93 143.973 257.838 143.305C257.088 142.847 253.869 139.681 252.864 139.068C252.864 139.068 251.755 138.989 250.123 140.724C248.493 142.46 242.064 144.846 242.064 144.846L234.705 133.867Z" fill="#C67C6C"/>
<path d="M267.37 134.483C267.368 134.555 266.429 134.615 264.944 134.331C264.206 134.186 263.334 133.948 262.405 133.571C261.513 133.147 260.548 132.654 259.531 132.138C258.784 131.751 258.062 131.378 257.381 131.024L257.522 131.06C254.157 131.093 251.72 131.03 251.716 130.895C251.711 130.758 254.143 130.592 257.514 130.483L257.581 130.481L257.656 130.517C258.335 130.86 259.053 131.221 259.797 131.597C260.786 132.107 261.727 132.596 262.623 133.058C263.505 133.45 264.334 133.722 265.042 133.915C266.459 134.297 267.376 134.39 267.37 134.483Z" fill="#BE5444"/>
<path d="M237.497 135.772C237.999 136.715 239.275 136.965 240.32 136.744C241.366 136.521 242.306 135.952 243.333 135.655C246.403 134.768 249.819 136.41 252.845 135.377C253.266 135.233 253.741 134.923 253.69 134.48C253.642 134.07 253.18 133.866 252.786 133.74C249.424 132.67 246.061 131.599 242.699 130.528" fill="#C67C6C"/>
<path d="M242.699 130.528C242.711 130.488 243.111 130.574 243.825 130.764C244.538 130.953 245.564 131.245 246.829 131.619C248.142 132.017 249.633 132.469 251.261 132.963C251.678 133.092 252.105 133.224 252.539 133.36C252.935 133.516 253.522 133.545 253.903 134.171C254.078 134.493 253.969 134.934 253.744 135.16C253.53 135.398 253.277 135.531 253.018 135.633C252.518 135.799 252.018 135.921 251.494 135.973C249.404 136.185 247.505 135.7 245.8 135.666C244.947 135.634 244.142 135.695 243.423 135.89C242.706 136.085 242.052 136.399 241.421 136.624C240.17 137.141 238.93 137.052 238.266 136.649C237.575 136.25 237.472 135.766 237.497 135.772C237.545 135.735 237.722 136.148 238.37 136.437C239.015 136.735 240.086 136.765 241.267 136.227C241.868 135.985 242.512 135.645 243.287 135.41C244.061 135.174 244.925 135.092 245.814 135.11C247.59 135.122 249.493 135.577 251.427 135.373C251.907 135.328 252.377 135.211 252.805 135.071C253.219 134.923 253.5 134.625 253.37 134.428C253.261 134.19 252.797 134.043 252.364 133.908C251.933 133.768 251.507 133.629 251.092 133.492C249.478 132.954 248 132.461 246.699 132.025C245.452 131.6 244.444 131.245 243.753 130.987C243.063 130.73 242.685 130.568 242.699 130.528Z" fill="#BE5444"/>
<path d="M192.102 188.763L204.545 187.531C204.545 187.531 220.999 198.795 219.42 201.273C217.843 203.751 215.139 201.273 215.139 201.273C215.139 201.273 218.069 204.878 213.336 206.003C213.336 206.003 212.208 208.482 210.405 208.256L209.278 208.271C209.278 208.271 208.258 211.411 206.74 210.735C205.221 210.058 200.628 206.003 200.628 206.003L187.866 204.878L192.102 188.763Z" fill="#C67C6C"/>
<path d="M199.842 201.584C199.842 201.584 196.655 202.807 195.993 204.086C195.33 205.365 194.947 208.381 197.002 208.929C197.788 209.138 200.622 208.815 200.622 208.815L199.835 205.467C199.835 205.467 201.027 204.092 201.736 203.503C202.414 202.939 201.671 200.736 199.842 201.584Z" fill="#F9AD95"/>
<path d="M203.429 203.285C203.429 203.285 200.242 204.508 199.58 205.787C198.918 207.066 199.355 209.214 201.411 209.763C202.196 209.972 204.698 209.65 204.698 209.65L204.364 209.001C203.718 207.746 203.442 206.73 204.578 205.89L205.323 205.205C205.948 204.616 205.259 202.437 203.429 203.285Z" fill="#F9AD95"/>
<path d="M204.196 209.534C203.615 208.997 203.558 208.039 203.937 207.346C204.315 206.65 205.043 206.2 205.805 205.983C206.307 205.841 206.927 205.822 207.262 206.221C207.478 206.479 207.511 206.845 207.467 207.178C207.348 208.062 206.772 208.806 206.216 209.504C205.92 209.877 205.554 210.283 205.079 210.271C204.593 210.258 204.244 209.815 203.97 209.414" fill="#F9AD95"/>
<path d="M136.944 109.265L139.74 108.206L142.166 112.538L140.816 117.162L137.962 117.867L135.117 114.285L136.944 109.265Z" fill="#334BA7"/>
<path d="M137.962 117.867C137.962 117.867 141.583 137.772 144.601 151.773C144.601 151.773 147.077 163.429 148.08 166.117C149.198 169.118 152.641 173.605 152.641 173.605L156.147 174.962L154.006 155.288L140.816 117.162L137.962 117.867Z" fill="#334BA7"/>
<path d="M137.962 117.867L135.117 114.285L136.944 109.265L139.74 108.206L142.166 112.538L140.816 117.162L137.962 117.867Z" fill="#A02232"/>
<path d="M148.879 167.853C148.47 167.129 148.169 166.505 148.08 166.117C148.282 166.66 148.56 167.25 148.879 167.853Z" fill="#909191"/>
<path d="M156.147 174.962L152.641 173.605C152.641 173.605 150.201 170.197 148.879 167.853C148.56 167.25 148.282 166.66 148.08 166.117C147.437 163.32 144.601 151.773 144.601 151.773C141.583 137.772 137.962 117.867 137.962 117.867L140.816 117.162L154.006 155.288L156.147 174.962Z" fill="#A02232"/>
<path d="M120.153 97.1691L136.944 109.265L133.313 119.244L118.034 103.519L120.153 97.1691Z" fill="#F8F8F9"/>
<path d="M139.74 108.206L144.433 97.7446L147.088 106.374L143.401 115.445L139.74 108.206Z" fill="#F8F8F9"/>
<path d="M136.944 109.265C136.971 109.276 136.903 109.544 136.754 110.032C136.566 110.611 136.34 111.302 136.075 112.118C135.475 113.898 134.6 116.405 133.556 119.333L133.412 119.738L133.12 119.417C131.906 118.08 130.585 116.623 129.206 115.102C126.164 111.728 123.434 108.653 121.479 106.409C120.568 105.347 119.8 104.451 119.184 103.732C118.652 103.091 118.37 102.724 118.398 102.7C118.427 102.673 118.762 102.99 119.344 103.587C119.996 104.276 120.807 105.131 121.769 106.146C123.799 108.323 126.576 111.357 129.618 114.731C130.988 116.261 132.3 117.724 133.506 119.07L133.069 119.155C134.151 116.241 135.092 113.759 135.775 112.01C136.096 111.213 136.368 110.539 136.594 109.973C136.795 109.503 136.916 109.255 136.944 109.265Z" fill="#1D2A30"/>
<path d="M147.088 106.374C147.158 106.403 146.854 107.336 146.303 108.822C145.754 110.308 144.959 112.346 144.049 114.584C143.915 114.914 143.782 115.239 143.655 115.549L143.38 116.222L143.141 115.536C141.719 111.455 139.651 108.753 139.793 108.663C139.844 108.624 140.42 109.249 141.195 110.41C141.969 111.566 142.917 113.282 143.661 115.353L143.145 115.341C143.271 115.032 143.402 114.706 143.536 114.377C144.446 112.138 145.299 110.122 145.94 108.674C146.583 107.227 147.016 106.346 147.088 106.374Z" fill="#1D2A30"/>
<path d="M360.543 421.386L367.019 447.072L378.003 465.913C378.794 467.27 378.27 469.014 376.861 469.71C376.071 470.101 375.149 470.089 374.376 469.671C369.443 467.011 351.351 457.138 350.981 455.232C350.555 453.024 342.352 428.591 342.352 428.591L360.543 421.386Z" fill="#334BA7"/>
<path d="M375.595 470.024C375.148 470.024 374.701 469.914 374.298 469.695C360.616 462.236 354.594 458.344 352.445 456.886C352.015 456.593 351.649 456.224 351.361 455.8C354.033 458.602 369.819 467.215 374.376 469.671C374.775 469.887 375.213 469.995 375.654 469.995C376.066 469.995 376.479 469.9 376.861 469.71C376.465 469.92 376.031 470.024 375.595 470.024ZM350.906 454.909C350.871 454.811 350.838 454.712 350.81 454.613C350.816 454.613 350.821 454.613 350.826 454.613C350.857 454.722 350.883 454.821 350.906 454.909ZM350.69 454.134C350.684 454.134 350.683 454.134 350.678 454.134L350.511 453.53C350.577 453.748 350.637 453.95 350.69 454.134Z" fill="white"/>
<path d="M350.81 454.613C350.808 454.605 350.806 454.598 350.804 454.59L350.678 454.134C350.683 454.134 350.684 454.134 350.69 454.134C350.742 454.311 350.787 454.47 350.826 454.613C350.821 454.613 350.816 454.613 350.81 454.613Z" fill="#A5ADAD"/>
<path d="M375.654 469.995C375.213 469.995 374.775 469.887 374.376 469.671C369.819 467.215 354.033 458.602 351.361 455.8C351.175 455.525 351.022 455.225 350.906 454.91C350.883 454.821 350.857 454.722 350.826 454.613C350.787 454.47 350.742 454.311 350.69 454.134C350.636 453.95 350.577 453.748 350.511 453.53L350.506 453.51L376.861 469.711C376.479 469.9 376.066 469.995 375.654 469.995Z" fill="#F9A8BF"/>
<path d="M352.975 446.851C352.832 446.851 352.69 446.83 352.552 446.784C351.785 446.533 351.179 445.457 351.497 444.717C351.737 444.161 352.423 443.73 353.041 443.73C353.245 443.73 353.442 443.777 353.612 443.884C354.29 444.207 354.693 445.05 354.473 445.771C354.282 446.405 353.627 446.851 352.975 446.851Z" fill="#F9A8BF"/>
<path d="M367.936 460.169C368.1 460.2 368.307 458.704 369.628 457.564C370.913 456.386 372.425 456.355 372.413 456.189C372.417 456.121 372.038 456.012 371.418 456.093C370.801 456.169 369.961 456.492 369.24 457.13C368.523 457.771 368.103 458.568 367.955 459.17C367.803 459.777 367.867 460.166 367.936 460.169Z" fill="#1D2A30"/>
<path d="M370.701 463.085C370.854 463.162 371.444 462.105 372.66 461.363C373.86 460.591 375.068 460.522 375.066 460.351C375.104 460.201 373.724 459.999 372.351 460.87C370.969 461.724 370.549 463.053 370.701 463.085Z" fill="#1D2A30"/>
<path d="M363.338 456.722C363.49 456.811 364.391 455.182 366.181 453.859C367.952 452.51 369.768 452.101 369.725 451.929C369.73 451.783 367.733 451.952 365.831 453.394C363.916 454.817 363.195 456.685 363.338 456.722Z" fill="#1D2A30"/>
<path d="M360.717 449.08C360.826 449.214 362.075 448.234 363.893 447.66C365.703 447.062 367.288 447.125 367.299 446.952C367.335 446.807 365.661 446.468 363.714 447.106C361.762 447.727 360.602 448.983 360.717 449.08Z" fill="#1D2A30"/>
<path d="M358.624 441.587C358.745 441.713 359.927 440.47 361.892 440.022C363.846 439.531 365.465 440.103 365.514 439.937C365.541 439.871 365.173 439.629 364.491 439.451C363.813 439.272 362.81 439.205 361.756 439.457C360.702 439.712 359.839 440.223 359.316 440.69C358.788 441.157 358.571 441.541 358.624 441.587Z" fill="#1D2A30"/>
<path d="M361.452 438.609C361.484 438.6 361.447 438.24 361.219 437.633C360.991 437.03 360.56 436.17 359.751 435.316C359.346 434.918 358.889 434.387 358.083 434.248C357.681 434.176 357.171 434.388 356.962 434.811C356.752 435.221 356.773 435.667 356.877 436.074C357.352 437.688 359.177 438.87 361.066 438.6C362.952 438.295 364.321 436.792 364.66 435.191C364.718 434.785 364.705 434.311 364.388 433.934C364.073 433.553 363.505 433.523 363.157 433.687C362.429 434.009 362.072 434.579 361.715 435.027C361.032 435.977 360.692 436.87 360.521 437.491C360.351 438.116 360.339 438.476 360.372 438.482C360.481 438.524 360.672 437.049 362.044 435.274C362.397 434.856 362.797 434.338 363.329 434.138C363.587 434.037 363.846 434.08 364 434.268C364.155 434.448 364.19 434.782 364.131 435.105C363.833 436.419 362.579 437.79 360.981 438.025C359.392 438.269 357.789 437.227 357.394 435.931C357.303 435.618 357.3 435.28 357.415 435.046C357.53 434.817 357.768 434.698 358.029 434.728C358.583 434.79 359.064 435.235 359.46 435.606C361.054 437.183 361.345 438.666 361.452 438.609Z" fill="#1D2A30"/>
<path d="M280.284 426.181L281.655 445.977C281.655 445.977 261.985 454.02 261.882 457.703L300.38 456.422L299.509 425.489L280.284 426.181Z" fill="#334BA7"/>
<path d="M293.505 443.914C294.257 444.093 294.8 444.914 294.651 445.671C294.504 446.429 293.674 446.988 292.919 446.823C292.164 446.656 291.483 445.692 291.716 444.955C291.947 444.218 292.958 443.616 293.65 443.958" fill="#E3E3E2"/>
<path d="M300.38 456.422L300.171 453.307L263.337 455.7C263.337 455.7 261.649 456.503 261.882 457.703L300.38 456.422Z" fill="#E3E3E2"/>
<path d="M281.026 445.803C281.038 445.989 281.981 446.044 282.926 446.617C283.886 447.166 284.391 447.964 284.561 447.884C284.733 447.843 284.415 446.728 283.258 446.053C282.108 445.369 280.98 445.631 281.026 445.803Z" fill="#1D2A30"/>
<path d="M277.043 447.607C277.006 447.789 277.831 448.082 278.497 448.855C279.184 449.61 279.374 450.463 279.561 450.449C279.739 450.472 279.832 449.367 278.987 448.421C278.15 447.468 277.042 447.427 277.043 447.607Z" fill="#1D2A30"/>
<path d="M274.911 452.513C275.083 452.547 275.313 451.6 274.796 450.587C274.287 449.57 273.387 449.193 273.313 449.352C273.211 449.511 273.801 450.043 274.212 450.882C274.644 451.709 274.723 452.5 274.911 452.513Z" fill="#1D2A30"/>
<path d="M281.214 441.256C281.298 441.424 282.151 441.137 283.217 441.173C284.282 441.189 285.121 441.517 285.214 441.353C285.319 441.214 284.489 440.544 283.233 440.519C281.979 440.484 281.117 441.11 281.214 441.256Z" fill="#1D2A30"/>
<path d="M281.011 437.256C281.012 437.335 281.758 437.427 282.938 437.183C283.526 437.062 284.216 436.845 284.935 436.497C285.294 436.321 285.661 436.115 286.023 435.873C286.196 435.752 286.402 435.631 286.59 435.4C286.792 435.197 286.893 434.695 286.643 434.398C286.437 434.108 286.083 433.992 285.805 433.996C285.52 433.996 285.292 434.059 285.085 434.119C284.66 434.237 284.263 434.393 283.9 434.57C283.175 434.929 282.592 435.373 282.161 435.795C281.296 436.652 281.014 437.364 281.079 437.398C281.166 437.457 281.581 436.854 282.468 436.143C282.909 435.788 283.477 435.417 284.155 435.117C284.494 434.968 284.861 434.838 285.251 434.738C285.654 434.618 286.001 434.603 286.113 434.781C286.152 434.85 286.159 434.877 286.078 434.998C285.993 435.111 285.831 435.225 285.661 435.343C285.327 435.577 284.991 435.782 284.661 435.96C284.001 436.315 283.366 436.564 282.821 436.735C281.729 437.08 281.004 437.155 281.011 437.256Z" fill="#1D2A30"/>
<path d="M281.264 437.518C281.332 437.545 281.683 436.858 281.711 435.641C281.724 435.035 281.636 434.306 281.378 433.538C281.247 433.156 281.073 432.767 280.848 432.385C280.609 432.013 280.318 431.513 279.585 431.453C279.204 431.451 278.898 431.758 278.799 432.018C278.68 432.282 278.662 432.506 278.624 432.73C278.568 433.182 278.591 433.622 278.666 434.028C278.814 434.843 279.171 435.514 279.556 435.991C280.341 436.964 281.133 437.163 281.147 437.098C281.206 437.001 280.539 436.661 279.931 435.721C279.632 435.259 279.359 434.644 279.261 433.931C279.212 433.576 279.204 433.198 279.259 432.817C279.305 432.405 279.448 432.07 279.603 432.107C279.794 432.098 280.13 432.395 280.298 432.716C280.507 433.054 280.676 433.402 280.81 433.745C281.075 434.432 281.203 435.094 281.249 435.655C281.339 436.783 281.162 437.493 281.264 437.518Z" fill="#1D2A30"/>
<path d="M269.78 210.83L275.973 441.208L306.342 440.297L304.009 242.569L342.708 445.795L370.137 438.638L334.726 211.269L269.78 210.83Z" fill="#1D2A30"/>
<path d="M286.421 441.513C286.267 441.513 286.143 393.758 286.143 334.862C286.143 275.947 286.267 228.201 286.421 228.201C286.574 228.201 286.698 275.947 286.698 334.862C286.698 393.758 286.574 441.513 286.421 441.513Z" fill="#365462"/>
<path d="M351.373 445.723C351.223 445.747 344.128 399.961 335.529 343.47C326.928 286.96 320.08 241.146 320.231 241.122C320.383 241.1 327.475 286.877 336.077 343.386C344.675 399.877 351.525 445.701 351.373 445.723Z" fill="#365462"/>
<path d="M313.297 66.7659C314.199 64.3095 315.375 62.0042 315.864 59.434C316.228 57.5212 316.802 54.651 316.033 52.8627C315.264 51.0744 313.406 49.3616 311.058 49.8467C310.471 46.0637 308.458 42.9925 304.626 41.1361C301.181 39.4669 297.794 38.6489 293.975 38.3691C292.821 38.285 291.021 38.3595 289.983 38.8701C288.944 39.3797 287.98 40.4074 287.583 41.4574C285.575 39.8669 282.685 39.4063 279.756 40.2031C276.828 40.9989 273.482 42.5797 272.198 45.3286C271.403 47.0297 271.108 49.134 271.966 51.8212C272.536 53.6106 274.429 56.418 276.19 55.7637" fill="#1D2A30"/>
<path d="M298.491 116.454C291.082 116.3 285.261 110.057 285.632 102.661C285.816 98.9829 285.986 96.018 285.986 96.018C285.986 96.018 275.966 94.7169 275.591 84.7446C275.218 74.7711 276.373 51.8212 276.373 51.8212C287.802 46.569 301.179 47.9094 311.337 55.3265L312.844 56.4275L311.91 103.574C311.766 110.836 305.756 116.605 298.491 116.454Z" fill="#F9AD95"/>
<path d="M285.966 95.8744C285.966 95.8744 292.286 96.2287 298.885 91.8521C298.885 91.8521 295.806 99.5914 285.825 98.9425L285.966 95.8744Z" fill="#F6865E"/>
<path d="M311.873 66.7914C312.041 66.7137 318.681 64.5925 318.634 71.418C318.587 78.2435 311.74 76.7882 311.73 76.5925C311.719 76.3967 311.873 66.7914 311.873 66.7914Z" fill="#F9AD95"/>
<path d="M313.834 74.0212C313.864 73.9999 313.952 74.1053 314.153 74.1989C314.348 74.2893 314.685 74.3531 315.042 74.2223C315.764 73.9627 316.38 72.8223 316.421 71.5925C316.443 70.9712 316.318 70.3787 316.101 69.8882C315.895 69.3872 315.575 69.0361 315.212 68.9691C314.851 68.8829 314.593 69.0978 314.508 69.2903C314.415 69.4797 314.457 69.617 314.421 69.6287C314.402 69.6457 314.275 69.5127 314.333 69.2308C314.362 69.0967 314.442 68.9361 314.603 68.8053C314.769 68.6733 315.01 68.6074 315.263 68.6361C315.79 68.6765 316.259 69.1638 316.499 69.7031C316.766 70.2446 316.921 70.9106 316.898 71.6084C316.845 72.9829 316.131 74.2659 315.142 74.5446C314.661 74.6659 314.261 74.518 314.055 74.3553C313.845 74.1861 313.809 74.0329 313.834 74.0212Z" fill="#F6865E"/>
<path d="M278.965 67.401C278.957 68.1542 279.589 68.7819 280.375 68.8042C281.161 68.8265 281.804 68.2361 281.813 67.4829C281.82 66.7297 281.189 66.1021 280.404 66.0787C279.616 66.0563 278.972 66.6489 278.965 67.401Z" fill="#1D2A30"/>
<path d="M278.614 65.8074C278.796 65.9893 279.855 65.1627 281.388 65.1287C282.921 65.0723 284.066 65.8329 284.227 65.6404C284.308 65.5553 284.119 65.2244 283.619 64.8808C283.129 64.5372 282.297 64.2127 281.342 64.2404C280.387 64.2701 279.592 64.6414 279.138 65.0127C278.676 65.3861 278.524 65.7265 278.614 65.8074Z" fill="#1D2A30"/>
<path d="M293.994 67.385C293.987 68.1382 294.618 68.7648 295.405 68.7872C296.19 68.8095 296.834 68.2191 296.841 67.4659C296.85 66.7138 296.218 66.085 295.433 66.0627C294.646 66.0393 294.002 66.6318 293.994 67.385Z" fill="#1D2A30"/>
<path d="M293.697 65.7148C293.878 65.8967 294.94 65.0712 296.472 65.0371C298.004 64.9808 299.149 65.7414 299.311 65.5489C299.391 65.4637 299.204 65.1329 298.703 64.7893C298.211 64.4446 297.38 64.1201 296.424 64.1489C295.47 64.1776 294.676 64.5499 294.222 64.9212C293.76 65.2946 293.608 65.635 293.697 65.7148Z" fill="#1D2A30"/>
<path d="M288.416 77.2233C288.422 77.1361 287.464 76.9957 285.913 76.8372C285.521 76.8063 285.149 76.7382 285.075 76.4723C284.977 76.1914 285.129 75.7659 285.308 75.3063C285.652 74.3489 286.013 73.3467 286.392 72.2957C287.894 68.0116 288.97 64.4925 288.797 64.434C288.624 64.3755 287.266 67.7999 285.765 72.084C285.403 73.1404 285.058 74.1467 284.73 75.1106C284.593 75.5584 284.351 76.0702 284.565 76.651C284.678 76.9414 284.971 77.1468 285.223 77.2085C285.476 77.2787 285.697 77.2765 285.892 77.284C287.448 77.3287 288.413 77.3106 288.416 77.2233Z" fill="#1D2A30"/>
<path d="M292.957 78.1712C292.707 78.1627 292.745 79.8276 291.351 81.0436C289.957 82.2638 288.178 82.1223 288.17 82.3542C288.15 82.4606 288.574 82.668 289.324 82.6691C290.06 82.6765 291.126 82.4138 291.981 81.6691C292.83 80.9234 293.181 79.9478 293.221 79.2638C293.266 78.5659 293.071 78.1584 292.957 78.1712Z" fill="#1D2A30"/>
<path d="M293.15 59.718C293.312 60.1308 294.838 59.8946 296.643 60.067C298.452 60.2021 299.916 60.6925 300.144 60.3127C300.247 60.1308 299.985 59.7446 299.389 59.3563C298.796 58.967 297.858 58.6085 296.774 58.5148C295.692 58.4244 294.708 58.6202 294.059 58.9032C293.404 59.1861 293.08 59.5212 293.15 59.718Z" fill="#1D2A30"/>
<path d="M279.067 61.3563C279.346 61.6978 280.392 61.3106 281.663 61.2616C282.932 61.168 284.014 61.4372 284.254 61.0659C284.357 60.8861 284.179 60.5425 283.7 60.2244C283.23 59.9074 282.448 59.6585 281.576 59.7063C280.703 59.7563 279.955 60.0904 279.523 60.4584C279.081 60.8265 278.944 61.1904 279.067 61.3563Z" fill="#1D2A30"/>
<path d="M313.37 57.2127C313.308 60.1222 314.037 63.3425 313.6 66.2116C313.534 66.6446 312.443 67.8244 312.354 68.2542C311.831 70.7956 310.809 71.9052 309.241 69.3361C308.638 68.3467 308.194 65.568 307.944 64.4446C307.26 61.3893 306.578 58.3339 305.896 55.2786C303.543 56.4478 300.98 57.3616 298.354 57.268C295.728 57.1744 293.029 55.9127 291.772 53.6063C290.581 55.702 288.401 57.2074 286.019 57.5808C283.637 57.9542 281.102 57.1882 279.326 55.5574C278.469 57.002 276.361 57.452 274.904 56.6159C273.446 55.7797 272.757 53.8829 273.173 52.2552C273.799 49.8042 276.373 48.418 278.783 47.6435C288.204 44.6137 298.756 46.5382 307.415 51.3297C308.678 52.0276 309.923 52.7978 310.924 53.8371C311.925 54.8776 313.308 56.0946 313.386 57.5361" fill="#1D2A30"/>
<path d="M306.196 56.4158C306.218 56.5126 306.846 56.2882 307.745 56.6637C308.188 56.8456 308.682 57.1552 309.169 57.5807C309.654 58.0031 310.139 58.5616 310.72 59.102C311.295 59.6456 311.956 60.1148 312.66 60.3201C313.362 60.5329 314.034 60.4871 314.552 60.3467C315.608 60.051 316.026 59.4701 315.976 59.435C315.919 59.3552 315.422 59.7839 314.465 59.9414C313.993 60.018 313.409 60.0137 312.827 59.8084C312.24 59.6073 311.67 59.1935 311.119 58.6743C310.564 58.1584 310.065 57.6063 309.515 57.1658C308.97 56.7297 308.398 56.4243 307.88 56.2722C306.807 55.9573 306.147 56.3679 306.196 56.4158Z" fill="#365462"/>
<path d="M307.363 59.3978C307.373 59.4797 307.873 59.4095 308.443 59.8776C308.725 60.0978 308.994 60.4489 309.312 60.8649C309.625 61.2819 310.065 61.7468 310.611 62.0712C311.704 62.7553 312.916 62.8563 313.719 62.7298C314.539 62.6053 314.967 62.3031 314.938 62.2425C314.905 62.1553 314.439 62.3074 313.684 62.317C312.94 62.3319 311.88 62.1755 310.92 61.5744C309.946 61.0223 309.458 59.9893 308.678 59.5372C307.915 59.0712 307.31 59.3276 307.363 59.3978Z" fill="#365462"/>
<path d="M281.034 39.9967C281.035 39.9659 280.712 39.9137 280.158 40.0797C279.614 40.2435 278.846 40.6744 278.235 41.5233C277.011 43.235 276.731 46.2754 277.677 49.2159C278.636 52.2052 280.82 54.2637 282.566 55.2244C283.44 55.7286 284.213 56.0052 284.752 56.1563C285.29 56.3084 285.602 56.3329 285.61 56.301C285.644 56.1978 284.424 55.9254 282.782 54.8712C281.149 53.8499 279.143 51.8637 278.234 49.0318C277.332 46.2446 277.548 43.3478 278.577 41.7563C279.088 40.9574 279.756 40.5084 280.238 40.2925C280.728 40.0744 281.039 40.0457 281.034 39.9967Z" fill="#365462"/>
<path d="M272.771 44.1382C272.704 44.1404 272.644 44.8829 272.857 46.0617C273.064 47.2361 273.611 48.8329 274.626 50.3648C275.647 51.8925 276.909 53.0138 277.912 53.6595C278.917 54.3106 279.626 54.5425 279.653 54.4819C279.76 54.3265 277.058 53.018 275.113 50.0404C273.118 47.0978 272.956 44.1 272.771 44.1382Z" fill="#365462"/>
<path d="M217.726 183.164L203.122 183.903C201.261 183.998 199.805 185.548 199.843 187.412C199.912 190.746 200.475 195.313 203.075 194.879L204.74 187.611L216.86 198.299C218.085 199.408 219.598 200.149 221.227 200.437L224.074 200.144L217.726 183.164Z" fill="#F9AD95"/>
<path d="M287.564 104.984L279.929 107.504L276.143 170.861V227.055L323.006 232.245L323.55 151.201L320.523 110.866L313.365 102.316L287.564 104.984Z" fill="#E3E3E2"/>
<path d="M285.215 108.017V101.877L313.063 98.0021L311.945 112.146L305.545 123.234L295.087 123.817L287.529 119.151L285.215 108.017Z" fill="#E3E3E2"/>
<path d="M287.709 107.299C287.556 107.293 287.486 106.036 287.552 104.494C287.618 102.949 287.796 101.703 287.949 101.711C288.101 101.717 288.171 102.973 288.105 104.516C288.039 106.06 287.862 107.305 287.709 107.299Z" fill="#1D2A30"/>
<path d="M294.675 106.794C294.521 106.784 294.48 105.38 294.581 103.656C294.682 101.933 294.887 100.544 295.041 100.553C295.193 100.562 295.234 101.966 295.133 103.689C295.033 105.412 294.827 106.802 294.675 106.794Z" fill="#1D2A30"/>
<path d="M301.41 106.087C301.257 106.077 301.243 104.591 301.377 102.771C301.51 100.951 301.742 99.484 301.895 99.4947C302.047 99.5064 302.062 100.99 301.928 102.813C301.795 104.632 301.563 106.099 301.41 106.087Z" fill="#1D2A30"/>
<path d="M307.877 105.027C307.727 105.033 307.551 103.626 307.633 101.885C307.711 100.145 308.013 98.7596 308.162 98.7787C308.316 98.7979 308.262 100.196 308.185 101.911C308.105 103.624 308.032 105.021 307.877 105.027Z" fill="#1D2A30"/>
<path d="M304.785 131.807C304.82 131.823 304.686 132.194 304.415 132.849C304.146 133.505 303.728 134.44 303.185 135.586C302.1 137.878 300.489 140.991 298.511 144.318C296.532 147.645 294.565 150.548 293.068 152.592C292.321 153.617 291.699 154.432 291.251 154.981C290.804 155.532 290.543 155.825 290.512 155.802C290.446 155.753 291.338 154.467 292.747 152.368C294.157 150.271 296.065 147.347 298.036 144.034C300.005 140.722 301.664 137.651 302.834 135.411C304.005 133.172 304.71 131.773 304.785 131.807Z" fill="#1D2A30"/>
<path d="M313.222 101.329L320.782 104.968L335.379 108.537C341.79 109.65 346.189 115.608 345.362 122.058L337.718 181.641L346.841 239.406L310.655 238.329L308.532 216.84V157.269L313.222 101.329Z" fill="#365462"/>
<path d="M308.532 171.002C308.514 170.998 308.55 170.744 308.639 170.264C308.744 169.73 308.88 169.034 309.049 168.169C309.443 166.292 309.99 163.685 310.661 160.489C312.087 153.962 314.034 145.047 316.185 135.199C316.788 132.485 317.376 129.844 317.94 127.308L318.009 127.554C317.153 126.661 316.318 125.786 315.5 124.932L315.362 124.787L315.465 124.616C316.965 122.122 318.375 119.778 319.675 117.617L319.661 117.827C317.754 113.206 316.165 109.355 315.026 106.594C314.5 105.28 314.078 104.228 313.766 103.446C313.484 102.717 313.343 102.325 313.365 102.316C313.388 102.306 313.572 102.68 313.895 103.39C314.238 104.16 314.698 105.196 315.273 106.488C316.457 109.232 318.108 113.057 320.09 117.646L320.136 117.753L320.075 117.856C318.791 120.025 317.398 122.38 315.917 124.884L315.88 124.569C316.7 125.419 317.54 126.289 318.399 127.18L318.5 127.284L318.468 127.425C317.908 129.961 317.325 132.604 316.726 135.318C314.513 145.153 312.511 154.055 311.044 160.574C310.301 163.754 309.696 166.349 309.26 168.216C309.048 169.072 308.879 169.759 308.748 170.287C308.624 170.761 308.551 171.005 308.532 171.002Z" fill="#1D2A30"/>
<path d="M218.344 180.764L250.361 162.923L265.873 121.106C268.04 115.265 272.538 110.585 278.291 108.187L282.409 106.47L282.429 216.574L283.254 242.657L265.908 237.464L274.753 185.039L271.695 159.236L268.657 171.719C267.569 176.182 264.718 180.014 260.754 182.336L227.425 199.638L218.344 180.764Z" fill="#365462"/>
<path d="M218.734 181.573L216.039 182.376L223.619 200.437L227.151 199.069L218.734 181.573Z" fill="#E3E3E2"/>
<path d="M256.152 170.346C255.989 170.399 255.439 168.289 253.757 166.297C252.106 164.278 250.133 163.349 250.215 163.198C250.239 163.062 252.43 163.808 254.184 165.943C255.959 168.057 256.29 170.348 256.152 170.346Z" fill="#1D2A30"/>
<path d="M222.184 180.996C222.218 181.068 222.027 181.212 222.008 181.521C221.975 181.841 222.195 182.188 222.614 182.06C223.037 181.94 223.035 181.53 222.834 181.279C222.65 181.029 222.411 181.012 222.4 180.932C222.363 180.87 222.697 180.694 223.104 180.996C223.287 181.139 223.483 181.399 223.469 181.768C223.461 182.146 223.141 182.49 222.771 182.591C222.405 182.707 221.95 182.589 221.738 182.277C221.528 181.974 221.551 181.649 221.627 181.43C221.806 180.956 222.181 180.924 222.184 180.996Z" fill="#1D2A30"/>
<path d="M224.768 179.906C224.802 179.98 224.61 180.123 224.591 180.432C224.558 180.753 224.778 181.099 225.198 180.971C225.62 180.852 225.618 180.441 225.417 180.189C225.233 179.939 224.994 179.923 224.984 179.844C224.947 179.782 225.281 179.604 225.687 179.906C225.87 180.05 226.066 180.311 226.052 180.68C226.044 181.056 225.725 181.402 225.354 181.503C224.988 181.619 224.533 181.501 224.322 181.188C224.111 180.885 224.134 180.561 224.21 180.34C224.389 179.867 224.765 179.835 224.768 179.906Z" fill="#1D2A30"/>
<path d="M282.409 172.702C282.391 172.704 282.343 172.47 282.27 172.022C282.193 171.517 282.095 170.866 281.975 170.061C281.734 168.286 281.4 165.834 280.992 162.833C280.209 156.664 279.14 148.254 277.961 138.963C277.797 137.644 277.638 136.341 277.48 135.062L277.472 134.993L277.497 134.928C278.304 132.877 279.086 130.889 279.836 128.985L279.84 129.188C279.032 127.341 278.258 125.578 277.53 123.915L277.495 123.835L277.518 123.753C278.936 118.629 280.128 114.321 280.986 111.22C281.409 109.755 281.747 108.579 282 107.704C282.243 106.894 282.385 106.464 282.409 106.47C282.436 106.477 282.343 106.92 282.146 107.743C281.927 108.627 281.632 109.815 281.264 111.295C280.454 114.409 279.328 118.734 277.989 123.88L277.976 123.718C278.717 125.374 279.501 127.134 280.323 128.976L280.368 129.074L280.327 129.179C279.585 131.084 278.811 133.074 278.01 135.129L278.026 134.995C278.186 136.273 278.346 137.576 278.51 138.895C279.628 148.195 280.639 156.611 281.382 162.785C281.717 165.795 281.991 168.254 282.189 170.034C282.268 170.846 282.331 171.5 282.38 172.009C282.418 172.461 282.429 172.7 282.409 172.702Z" fill="#1D2A30"/>
<path d="M274.707 185.346C274.688 185.348 274.651 185.168 274.598 184.825C274.541 184.418 274.472 183.921 274.389 183.321C274.218 181.928 273.987 180.055 273.707 177.781C273.14 173.102 272.344 166.64 271.388 159.515C270.43 152.387 269.491 145.944 268.803 141.282C268.474 139.013 268.201 137.147 267.999 135.757C267.92 135.156 267.856 134.66 267.802 134.252C267.764 133.906 267.752 133.724 267.77 133.72C267.789 133.717 267.838 133.894 267.912 134.234C267.993 134.636 268.093 135.128 268.213 135.722C268.462 137.017 268.796 138.896 269.19 141.22C269.978 145.869 270.978 152.307 271.938 159.44C272.895 166.572 273.629 173.045 274.097 177.737C274.332 180.083 274.504 181.983 274.604 183.299C274.646 183.903 274.681 184.403 274.709 184.814C274.727 185.161 274.727 185.345 274.707 185.346Z" fill="#1D2A30"/>
<path d="M270.283 224.484C270.332 224.458 270.46 224.891 271.025 225.379C271.57 225.846 272.664 226.34 273.946 226.034C275.22 225.735 276.472 224.546 277.115 222.919C277.78 221.284 277.859 219.274 278.009 217.195C278.139 215.129 278.09 213.121 277.415 211.488C276.765 209.848 275.503 208.758 274.514 207.824C273.498 206.901 272.718 206.072 272.298 205.413C271.87 204.758 271.75 204.337 271.774 204.328C271.819 204.306 272.005 204.69 272.472 205.286C272.934 205.889 273.727 206.646 274.777 207.533C275.789 208.425 277.149 209.525 277.887 211.294C278.637 213.038 278.692 215.137 278.561 217.229C278.409 219.307 278.325 221.364 277.587 223.113C276.872 224.849 275.477 226.13 274.033 226.416C272.579 226.703 271.424 226.09 270.878 225.538C270.595 225.255 270.447 224.978 270.361 224.791C270.288 224.597 270.265 224.49 270.283 224.484Z" fill="#1D2A30"/>
<path d="M258.388 183.164C258.388 183.164 259.421 170.964 269.114 169.834C269.114 169.834 269.293 179.778 258.388 183.164Z" fill="#1D2A30"/>
<path d="M310.202 228.855C310.836 229.279 338.35 247.26 338.35 247.26L341.524 244.72L343.025 203.471L316.218 183.164L312.53 184.434L310.202 228.855Z" fill="#334BA7"/>
<path d="M315.921 183.749L317.019 228.394H311.105L313.087 184.633L315.921 183.749Z" fill="#E3E3E2"/>
<path d="M324.778 238.639C324.778 238.639 325.404 240.614 327.953 240.798C328.033 240.804 328.111 240.863 328.185 240.991C328.758 241.966 329.731 242.661 330.862 242.656C331.737 242.653 332.79 242.449 333.879 241.785C335.35 240.889 337.972 235.017 337.972 235.017L344.179 221.197L333.739 218.377L320.476 222.507C320.476 222.748 317.373 235.299 317.373 235.299C317.373 235.299 319.887 236.004 321.099 233.324C322.311 230.646 323.439 228.946 323.439 228.946L324.427 234.594L320.656 235.883C320.656 235.883 320.198 237.972 322.271 238.749L324.778 238.639Z" fill="#F9AD95"/>
<path d="M329.459 141.595L346.841 173.571L332.696 215.542L348.426 224.395L368.414 177.708C369.897 174.247 369.835 170.318 368.245 166.904L343.719 114.251L329.459 141.595Z" fill="#365462"/>
<path d="M332.696 215.543L331.228 218.795L346.068 226.789L347.623 223.944L332.696 215.543Z" fill="#E3E3E2"/>
<path d="M332.696 215.542C332.687 215.539 332.703 215.467 332.742 215.327C332.791 215.16 332.851 214.958 332.925 214.709C333.108 214.131 333.359 213.339 333.676 212.335C334.366 210.231 335.346 207.239 336.565 203.515C339.079 195.982 342.578 185.492 346.583 173.485L346.608 173.708C344.584 170.273 342.507 166.643 340.408 162.897C336.578 156.055 333.057 149.464 330.047 143.37C328.561 140.314 327.174 137.396 326.002 134.605C324.726 131.818 324.41 128.892 324.553 126.319C324.719 123.737 325.234 121.415 326.106 119.539C326.964 117.659 328.11 116.257 329.174 115.28C330.253 114.308 331.249 113.755 331.942 113.45C332.637 113.139 333.033 113.063 333.033 113.063C333.088 113.148 331.425 113.483 329.321 115.437C328.299 116.42 327.202 117.815 326.389 119.667C325.563 121.506 325.083 123.802 324.944 126.339C324.832 128.872 325.158 131.706 326.426 134.425C327.611 137.197 329.01 140.101 330.504 143.145C333.536 149.215 337.065 155.79 340.891 162.627C342.988 166.369 345.061 170.001 347.073 173.433L347.136 173.54L347.096 173.657C343.018 185.64 339.454 196.108 336.895 203.626C335.612 207.329 334.581 210.302 333.855 212.395C333.501 213.386 333.222 214.168 333.016 214.74C332.925 214.983 332.849 215.181 332.787 215.343C332.734 215.477 332.702 215.546 332.696 215.542Z" fill="#1D2A30"/>
<path d="M358.593 173.272C358.547 173.351 357.929 173.019 356.879 172.668C355.831 172.314 354.321 171.998 352.638 172.046C350.954 172.102 349.466 172.512 348.442 172.931C347.416 173.347 346.822 173.716 346.77 173.64C346.733 173.592 347.255 173.1 348.281 172.574C349.3 172.047 350.852 171.55 352.62 171.492C354.388 171.44 355.969 171.838 357.018 172.302C358.074 172.763 358.628 173.221 358.593 173.272Z" fill="#1D2A30"/>
<path d="M325.983 133.986L338.472 175.755L340.235 162.022L325.983 133.986Z" fill="#1D2A30"/>
<path d="M346.614 216.047C346.648 216.12 346.457 216.263 346.438 216.572C346.404 216.892 346.624 217.239 347.044 217.112C347.466 216.992 347.464 216.582 347.263 216.33C347.078 216.081 346.841 216.064 346.829 215.984C346.793 215.922 347.126 215.746 347.534 216.047C347.717 216.191 347.912 216.451 347.899 216.82C347.889 217.197 347.571 217.542 347.2 217.644C346.835 217.76 346.38 217.641 346.168 217.329C345.957 217.025 345.98 216.701 346.056 216.482C346.234 216.007 346.612 215.975 346.614 216.047Z" fill="#1D2A30"/>
<path d="M347.869 213.039C347.903 213.113 347.712 213.255 347.691 213.565C347.659 213.885 347.88 214.232 348.299 214.104C348.722 213.985 348.719 213.574 348.518 213.322C348.334 213.072 348.095 213.055 348.084 212.977C348.048 212.915 348.382 212.738 348.789 213.039C348.971 213.183 349.167 213.444 349.153 213.812C349.145 214.189 348.827 214.535 348.456 214.636C348.09 214.752 347.635 214.633 347.422 214.321C347.212 214.018 347.236 213.694 347.311 213.473C347.49 213 347.866 212.968 347.869 213.039Z" fill="#1D2A30"/>
<path d="M364.951 159.835C363.089 160.817 362.439 163.556 362.654 165.65C362.869 167.744 363.638 169.78 363.584 171.884C363.546 173.386 363.088 174.84 362.786 176.313C362.485 177.785 362.346 179.362 362.92 180.751C363.494 182.139 364.965 183.251 366.443 182.975L367.917 179.995C370.258 175.266 370.18 169.701 367.71 165.039L364.951 159.835Z" fill="#1D2A30"/>
<path d="M456.078 384.403C457.036 381.088 459.085 377.883 462.256 376.517C465.554 375.097 469.373 375.905 472.748 377.131C476.124 378.355 479.44 379.996 483.023 380.217C486.607 380.438 490.654 378.739 491.725 375.314C492.735 372.094 490.793 368.66 488.36 366.32C483.25 361.403 475.571 359.318 468.673 360.972C461.776 362.628 455.882 367.97 453.56 374.669L456.078 384.403Z" fill="#334BA7"/>
<path d="M456.078 384.403L453.56 374.669C455.882 367.97 461.776 362.628 468.673 360.972C470.243 360.596 471.852 360.413 473.463 360.413C478.932 360.413 484.412 362.521 488.36 366.32C490.342 368.225 491.998 370.857 491.999 373.507C491.999 374.112 491.913 374.716 491.725 375.314C490.715 378.542 487.065 380.236 483.648 380.236C483.438 380.236 483.23 380.23 483.023 380.217C479.44 379.996 476.124 378.355 472.748 377.131C470.643 376.366 468.364 375.764 466.147 375.764C464.81 375.764 463.496 375.983 462.256 376.517C459.085 377.883 457.036 381.088 456.078 384.403Z" fill="#841D29"/>
<path d="M427.682 398.794C422.422 393.801 422.685 385.109 425.308 378.349C427.931 371.59 433.657 366.401 440.053 362.98C452.448 356.349 467.945 355.847 480.745 361.662C474.455 361.869 468.375 365.438 465.129 370.827C462.246 375.611 461.607 381.416 459.225 386.468C456.573 392.096 451.705 396.645 445.909 398.908C440.111 401.173 433.45 401.132 427.682 398.794Z" fill="#334BA7"/>
<path d="M425.154 368.795C419.331 361.926 418.555 350.899 419.413 341.937C420.271 332.974 422.35 323.955 420.935 315.064C420.097 309.797 418.053 304.767 417.362 299.479C416.671 294.19 417.651 288.21 421.749 284.796C426.462 280.871 433.883 281.798 438.784 285.481C443.687 289.166 446.527 294.953 448.603 300.722C453.162 313.396 454.836 327.449 451.091 340.386C447.344 353.323 438.554 364.89 425.659 368.795" fill="#334BA7"/>
<path d="M422.359 425.155C422.342 425.155 422.335 424.883 422.337 424.364C422.344 423.846 422.337 423.079 422.38 422.094C422.455 420.124 422.644 417.274 423.086 413.774C423.529 410.276 424.223 406.127 425.323 401.591C426.407 397.047 428.263 392.201 430.885 387.485C433.518 382.769 436.728 378.696 439.974 375.34C443.231 371.982 446.561 369.369 449.504 367.42C450.958 366.415 452.365 365.652 453.576 364.944C454.818 364.292 455.901 363.758 456.79 363.33C457.668 362.961 458.366 362.667 458.884 362.45C459.364 362.253 459.62 362.158 459.626 362.173C459.632 362.188 459.39 362.314 458.922 362.538C458.415 362.777 457.73 363.096 456.869 363.499C455.998 363.952 454.93 364.51 453.707 365.18C452.515 365.906 451.127 366.684 449.694 367.703C446.793 369.676 443.509 372.299 440.294 375.648C437.089 378.997 433.916 383.042 431.306 387.721C425.953 397.081 424.487 406.922 423.423 413.819C422.941 417.303 422.699 420.141 422.568 422.104C422.511 423.053 422.467 423.806 422.434 424.367C422.402 424.884 422.375 425.155 422.359 425.155Z" fill="#1D2A30"/>
<path d="M372.14 341.696C361.368 348.194 361.402 354.105 363.202 359.686C365 365.267 371.611 369.145 377.092 367.055C380.19 365.874 382.436 363.182 384.353 360.478C386.268 357.773 388.07 354.878 390.757 352.935C393.444 350.99 397.339 350.248 400.038 352.174L372.14 341.696Z" fill="#334BA7"/>
<path d="M373.926 367.63C369.3 367.63 364.662 364.22 363.202 359.686C362.676 358.057 362.302 356.399 362.302 354.706C362.304 350.603 364.513 346.296 372.14 341.696L397.175 351.099C396.892 351.066 396.605 351.05 396.318 351.05C394.373 351.05 392.352 351.781 390.757 352.935C388.07 354.878 386.268 357.773 384.353 360.478C382.436 363.182 380.19 365.874 377.092 367.055C376.064 367.448 374.995 367.63 373.926 367.63ZM400.038 352.174L397.175 351.099C398.199 351.218 399.179 351.562 400.038 352.174Z" fill="#841D29"/>
<path d="M364.076 348.819C366.892 344.929 373.851 343.803 378.244 345.744C382.638 347.684 385.858 351.534 388.738 355.377C391.619 359.219 394.423 363.277 398.414 365.95C402.404 368.623 407.978 369.591 411.954 366.899C414.566 365.13 416.081 362.055 416.555 358.936C417.029 355.819 416.571 352.634 415.922 349.549C414.972 345.034 413.42 340.317 409.804 337.448C405.776 334.251 400.185 334.1 395.043 334.268C389.142 334.461 383.154 334.902 377.616 336.947C372.078 338.991 366.427 343.406 364.076 348.819Z" fill="#334BA7"/>
<path d="M413.407 416.533C413.398 416.533 413.388 416.453 413.377 416.297C413.367 416.112 413.356 415.884 413.341 415.602C413.319 414.953 413.287 414.061 413.247 412.93C413.18 410.568 413.083 407.221 412.965 403.102C412.834 398.953 412.665 394.014 412.366 388.536C412.06 383.061 411.653 377.038 410.822 370.77C410.398 367.641 409.904 364.581 409.037 361.748C408.164 358.913 407.001 356.27 405.736 353.853C404.458 351.438 403.057 349.241 401.57 347.318C400.077 345.402 398.536 343.737 397.024 342.329C393.967 339.536 391.043 337.83 388.961 336.835C388.435 336.594 387.977 336.358 387.563 336.189C387.156 336.033 386.807 335.897 386.511 335.782C386.25 335.677 386.039 335.59 385.867 335.522C385.722 335.461 385.649 335.425 385.651 335.417C385.653 335.408 385.732 335.429 385.882 335.475C386.058 335.532 386.275 335.603 386.544 335.69C386.845 335.794 387.202 335.916 387.617 336.056C388.037 336.212 388.505 336.436 389.04 336.665C391.158 337.614 394.137 339.29 397.252 342.078C398.795 343.482 400.366 345.149 401.887 347.074C403.401 349.004 404.828 351.214 406.128 353.646C407.417 356.083 408.596 358.737 409.488 361.607C410.376 364.49 410.874 367.563 411.299 370.706C412.133 376.999 412.526 383.03 412.81 388.513C413.086 393.998 413.22 398.941 413.306 403.092C413.391 407.244 413.423 410.604 413.436 412.926C413.437 414.057 413.437 414.951 413.438 415.6C413.434 415.883 413.429 416.11 413.426 416.296C413.421 416.453 413.413 416.533 413.407 416.533Z" fill="#1D2A30"/>
<path d="M417.282 421.398C417.282 421.398 416.68 419.799 416.103 416.774C415.541 413.754 415.12 409.275 415.609 403.785C416.069 398.293 417.475 391.852 419.713 384.937C421.924 378.01 424.925 370.602 427.489 362.64C428.76 358.655 429.841 354.714 430.582 350.842C431.333 346.974 431.808 343.196 432.111 339.587C432.714 332.363 432.629 325.817 432.453 320.337C432.267 314.854 431.975 310.421 431.793 307.356C431.705 305.848 431.635 304.665 431.586 303.828C431.568 303.444 431.553 303.14 431.543 302.908C431.536 302.701 431.537 302.595 431.545 302.594C431.553 302.594 431.569 302.699 431.591 302.904C431.615 303.136 431.644 303.438 431.682 303.82C431.753 304.656 431.854 305.837 431.981 307.342C432.22 310.404 432.564 314.835 432.793 320.324C433.012 325.812 433.134 332.37 432.553 339.622C432.261 343.247 431.794 347.044 431.046 350.933C430.307 354.825 429.224 358.79 427.948 362.786C425.377 370.774 422.363 378.173 420.136 385.073C417.881 391.959 416.449 398.359 415.948 403.816C415.418 409.272 415.785 413.724 416.287 416.742C416.552 418.25 416.794 419.418 417.006 420.196C417.097 420.568 417.169 420.863 417.224 421.089C417.269 421.291 417.29 421.396 417.282 421.398Z" fill="#1D2A30"/>
<path d="M443.989 426.264H393.408L392.254 416.533H443.989V426.264Z" fill="#365462"/>
<path d="M398.836 425.155L405.159 454.348H432.644L438.561 425.155H398.836Z" fill="#365462"/>
<path d="M443.988 426.264C443.988 426.397 432.867 426.473 419.152 426.435C405.433 426.396 394.316 426.258 394.317 426.125C394.317 425.992 405.435 425.915 419.153 425.953C432.868 425.992 443.988 426.131 443.988 426.264Z" fill="#365462"/>
<path d="M435.307 440.671C435.242 440.77 433.815 439.298 430.853 438.12C429.383 437.536 427.523 437.081 425.435 437.033C423.343 436.966 421.073 437.465 418.776 438.254C416.47 439.034 414.318 439.94 412.221 440.44C410.115 440.894 408.153 440.861 406.556 440.611C404.953 440.36 403.711 439.885 402.915 439.458C402.522 439.233 402.222 439.053 402.037 438.9C401.846 438.758 401.752 438.677 401.762 438.664C401.789 438.625 402.194 438.914 402.998 439.29C403.803 439.656 405.032 440.071 406.604 440.273C408.17 440.475 410.087 440.471 412.122 440.007C414.147 439.502 416.299 438.584 418.622 437.798C420.939 437 423.292 436.494 425.447 436.589C427.598 436.664 429.497 437.167 430.98 437.804C432.479 438.426 433.567 439.179 434.278 439.727C434.634 440.003 434.895 440.235 435.063 440.403C435.233 440.568 435.318 440.66 435.307 440.671Z" fill="#1D2A30"/>
<path d="M434.923 442.621C434.857 442.72 433.483 441.293 430.645 440.103C429.234 439.519 427.44 439.068 425.422 439.028C423.401 438.972 421.202 439.43 418.98 440.186C416.751 440.93 414.661 441.795 412.663 442.332C410.668 442.877 408.786 443.067 407.219 442.942C405.648 442.834 404.424 442.39 403.65 441.988C403.268 441.772 402.979 441.597 402.8 441.45C402.617 441.312 402.525 441.233 402.536 441.219C402.562 441.18 402.953 441.462 403.732 441.819C404.512 442.161 405.712 442.539 407.241 442.603C408.764 442.681 410.596 442.461 412.545 441.904C414.5 441.354 416.574 440.483 418.828 439.73C421.072 438.965 423.349 438.501 425.432 438.584C427.513 438.649 429.351 439.152 430.778 439.789C432.216 440.417 433.255 441.16 433.936 441.699C434.278 441.97 434.527 442.198 434.69 442.36C434.853 442.52 434.934 442.609 434.923 442.621Z" fill="white"/>
<path d="M435.807 438.737C435.746 438.827 434.262 437.339 431.235 436.042C429.73 435.404 427.834 434.837 425.682 434.708C423.527 434.558 421.18 435.107 418.811 435.919C416.427 436.718 414.215 437.687 412.023 438.135C409.831 438.532 407.818 438.409 406.173 438.143C404.526 437.858 403.241 437.388 402.414 436.955C402.007 436.728 401.694 436.545 401.502 436.389C401.304 436.243 401.208 436.16 401.217 436.146C401.245 436.106 401.662 436.406 402.496 436.786C403.332 437.161 404.604 437.57 406.225 437.807C407.843 438.025 409.822 438.107 411.939 437.698C414.037 437.249 416.258 436.269 418.655 435.463C421.044 434.644 423.476 434.084 425.709 434.266C427.928 434.422 429.856 435.04 431.37 435.731C432.897 436.413 434.012 437.193 434.745 437.762C435.111 438.049 435.382 438.287 435.555 438.46C435.732 438.63 435.819 438.724 435.807 438.737Z" fill="white"/>
<path d="M444.435 426.305C444.435 426.438 433.057 426.547 419.026 426.547C404.988 426.547 393.613 426.438 393.613 426.305C393.613 426.172 404.988 426.065 419.026 426.065C433.057 426.065 444.435 426.172 444.435 426.305Z" fill="#1D2A30"/>
<path d="M57.9243 415.2C59.7431 417.796 63.2783 416.937 64.9177 415.352C66.5575 413.766 67.2501 411.469 67.8807 409.279C69.3222 404.273 70.7749 399.021 69.7034 393.924C69.383 392.4 68.8129 390.881 67.7415 389.75C66.6701 388.62 65.0229 387.947 63.5166 388.345C61.7334 388.815 60.6254 390.561 59.8251 392.22C57.4711 397.1 56.2246 402.51 56.2067 407.928C56.1976 410.457 56.4961 413.111 57.9243 415.2Z" fill="#334BA7"/>
<path d="M61.1629 416.855C59.9544 416.855 58.7586 416.391 57.9243 415.2C56.5182 413.143 56.2072 410.54 56.2063 408.047C56.2063 408.006 56.2063 407.967 56.2067 407.928C56.2246 402.51 57.4711 397.1 59.8251 392.22C60.6254 390.561 61.7334 388.815 63.5166 388.345C63.813 388.266 64.1149 388.23 64.4171 388.23C65.649 388.23 66.8813 388.842 67.7415 389.75C68.8129 390.881 69.383 392.4 69.7034 393.924C69.9629 395.159 70.0743 396.402 70.0739 397.649C70.0718 401.551 68.973 405.485 67.8807 409.279C67.2501 411.469 66.5574 413.766 64.9177 415.352C64.0305 416.209 62.5882 416.855 61.1629 416.855Z" fill="#DB3256"/>
<path d="M64.7402 428.35C67.7149 426.817 71.2177 426.617 74.52 427.163C76.2945 427.455 78.1446 427.987 79.352 429.318C80.559 430.65 80.7884 432.995 79.4019 434.14C78.5766 434.821 77.4257 434.924 76.3556 434.912C73.7696 434.882 70.9008 434.427 68.8358 435.982C67.6571 436.869 66.873 438.344 65.4632 438.78C64.0849 439.206 62.5296 438.394 61.7987 437.151C61.0678 435.907 61.0432 434.352 61.3841 432.951C61.3841 432.951 61.7429 429.896 64.7402 428.35Z" fill="#334BA7"/>
<path d="M52.928 418.926C54.9038 416.583 55.2783 413.166 54.3994 410.23C53.5206 407.294 51.5348 404.798 49.2465 402.759C46.564 400.37 43.4101 398.509 40.02 397.317C38.6855 396.849 37.2781 396.479 35.8704 396.612C34.4626 396.747 33.0449 397.467 32.388 398.719C31.4163 400.57 32.3476 402.815 33.355 404.647C35.1287 407.875 37.1571 410.963 39.4151 413.871C41.2316 416.211 43.3124 418.521 46.0805 419.579C48.8491 420.636 51.7245 420.513 53.1925 418.593" fill="#334BA7"/>
<path d="M57.8007 454.374C57.8349 454.376 57.8901 453.955 57.9649 453.194C58.0489 452.334 58.1537 451.256 58.2789 449.972C58.4294 448.618 58.6273 447.004 59.0035 445.249C59.3793 443.498 59.9664 441.599 60.721 439.674C61.5027 437.761 62.456 436.02 63.5698 434.63C64.6753 433.232 65.9616 432.221 67.1707 431.637C68.3751 431.044 69.4557 430.801 70.2032 430.694C70.9566 430.616 71.3782 430.557 71.3786 430.523C71.3786 430.491 70.9562 430.484 70.1821 430.506C69.4157 430.556 68.2899 430.75 67.0201 431.327C65.7463 431.891 64.3817 432.919 63.2218 434.346C62.0527 435.766 61.0644 437.543 60.2695 439.492C59.5016 441.451 58.9224 443.368 58.5636 445.159C58.2065 446.945 58.0427 448.576 57.9354 449.942C57.8332 451.308 57.7949 452.416 57.7762 453.182C57.7588 453.948 57.7679 454.371 57.8007 454.374Z" fill="#1D2A30"/>
<path d="M58.0227 451.896C58.0394 451.895 58.0498 451.705 58.0543 451.347C58.0535 450.936 58.0519 450.418 58.0502 449.782C58.0469 448.422 58.0473 446.458 58.12 444.029C58.2402 439.172 58.6589 432.468 59.4667 425.1C60.2807 417.729 61.3592 411.099 62.3424 406.342C62.5753 405.149 62.8094 404.076 63.0297 403.136C63.2401 402.195 63.4192 401.383 63.5922 400.727C63.7411 400.107 63.8621 399.604 63.9585 399.204C64.0367 398.854 64.0708 398.668 64.0545 398.664C64.0379 398.658 63.9731 398.836 63.8637 399.176C63.744 399.571 63.5939 400.067 63.4089 400.678C63.2072 401.329 63.0006 402.135 62.7645 403.073C62.5188 404.009 62.2606 405.079 62.0057 406.269C60.9339 411.02 59.798 417.658 58.9823 425.046C58.1725 432.43 57.8078 439.154 57.7754 444.022C57.7467 446.456 57.7982 448.426 57.8606 449.787C57.8997 450.422 57.9313 450.941 57.9562 451.351C57.9832 451.708 58.0061 451.896 58.0227 451.896Z" fill="#1D2A30"/>
<path d="M58.0556 438.928C58.0888 438.926 58.0831 438.346 58.0436 437.292C57.9832 436.24 57.839 434.722 57.5426 432.862C57.2286 431.004 56.79 428.8 56.1011 426.404C55.4451 424 54.5446 421.404 53.3995 418.765C51.1594 413.452 48.1152 409.108 45.4669 406.419C44.8462 405.705 44.1544 405.19 43.6013 404.685C43.3149 404.444 43.0617 404.202 42.8039 404.011C42.5445 403.832 42.3038 403.666 42.0796 403.513C41.2087 402.916 40.7206 402.602 40.7023 402.631C40.6242 402.736 42.6543 403.931 45.2183 406.657C47.7714 409.376 50.73 413.69 52.9526 418.958C54.0876 421.575 54.9939 424.147 55.6691 426.528C56.3776 428.9 56.8478 431.082 57.2033 432.92C57.5413 434.763 57.7371 436.266 57.8548 437.307C57.9516 438.351 58.022 438.93 58.0556 438.928Z" fill="#1D2A30"/>
<path d="M214.995 8.98396C214.995 8.97012 215.178 8.96591 215.537 8.97123C215.937 8.9808 216.464 8.99462 217.131 9.01164C217.836 9.00207 218.697 9.10953 219.712 9.26591C220.219 9.3457 220.772 9.39568 221.351 9.51696C221.927 9.65845 222.539 9.81058 223.185 9.96909C225.746 10.6797 228.871 11.8074 232.04 13.9286C235.212 16.0127 238.462 19.0276 241.016 23.0957C243.573 27.1297 245.492 32.2138 245.733 37.8712C246.084 43.4893 244.786 49.6627 241.535 55.1329C238.386 60.6595 233.113 65.2967 226.744 67.9967C223.551 69.3436 220.048 70.0776 216.485 70.2542C212.917 70.5042 209.256 70.0084 205.753 68.9201L205.434 68.8191L205.686 68.817C199.549 70.9414 193.545 73.0212 187.751 75.0265L187.022 75.2797L187.252 74.5436C188.859 69.3851 190.415 64.3935 191.906 59.6106L191.984 59.9702C188.544 56.0989 186.212 51.5287 185.073 46.9031C183.916 42.2723 183.957 37.6212 184.788 33.4233C185.625 29.2137 187.313 25.4627 189.414 22.3744C191.518 19.2755 194.02 16.835 196.517 14.9691C197.738 13.9893 199.045 13.2819 200.237 12.5574C201.498 11.9659 202.648 11.3191 203.811 10.9372C204.96 10.5255 206.017 10.117 207.039 9.91164C208.046 9.66058 208.959 9.41268 209.805 9.33183C210.645 9.22119 211.383 9.0946 212.027 9.03928C212.662 9.01907 213.205 9.00204 213.66 8.98821C214.069 8.97971 214.397 8.97335 214.656 8.9691C214.881 8.96803 214.995 8.97332 214.995 8.98396C214.995 8.99459 214.881 9.01054 214.657 9.03289C214.399 9.05416 214.073 9.08079 213.665 9.11376C213.214 9.14568 212.676 9.18292 212.046 9.22654C211.407 9.30207 210.676 9.44672 209.847 9.57545C209.01 9.67439 208.111 9.93927 207.118 10.2052C206.111 10.4254 205.072 10.8478 203.942 11.2712C202.801 11.6648 201.672 12.3212 200.435 12.918C199.268 13.6478 197.988 14.3584 196.795 15.3382C194.355 17.201 191.917 19.6244 189.875 22.6829C187.834 25.7318 186.205 29.4201 185.408 33.5467C184.619 37.6627 184.6 42.2148 185.75 46.734C186.881 51.2478 189.174 55.7021 192.541 59.4723L192.682 59.6297L192.62 59.8319C191.139 64.618 189.593 69.6127 187.996 74.7744L187.495 74.2904C193.289 72.2808 199.292 70.1967 205.426 68.068L205.551 68.0244L205.681 68.0648L205.992 68.1638C209.403 69.2244 212.968 69.7095 216.447 69.467C219.921 69.2978 223.334 68.5872 226.448 67.2787C232.659 64.6553 237.816 60.1478 240.906 54.7606C244.096 49.4308 245.392 43.4074 245.076 37.9052C244.87 32.3648 243.023 27.3755 240.541 23.3957C238.066 19.3819 234.897 16.3851 231.794 14.2968C228.694 12.1712 225.625 11.0148 223.103 10.2669C222.465 10.0957 221.863 9.93502 221.295 9.78396C220.724 9.65204 220.177 9.59037 219.676 9.49889C218.672 9.3191 217.818 9.18717 217.12 9.17122C216.456 9.12122 215.932 9.08184 215.534 9.05206C215.178 9.02014 214.995 8.99779 214.995 8.98396Z" fill="#334BA7"/>
<path d="M196.962 41.684L201.68 36.967L210.781 45.0521L228.645 27.8712L233.027 32.5872L210.106 54.1489L196.962 41.684Z" fill="#334BA7"/>
</g>
<defs>
<filter id="filter0_d" x="0" y="0" width="496" height="479" filterUnits="userSpaceOnUse" color-interpolation-filters="sRGB">
<feFlood flood-opacity="0" result="BackgroundImageFix"/>
<feColorMatrix in="SourceAlpha" type="matrix" values="0 0 0 0 0 0 0 0 0 0 0 0 0 0 0 0 0 0 127 0"/>
<feOffset dy="4"/>
<feGaussianBlur stdDeviation="2"/>
<feColorMatrix type="matrix" values="0 0 0 0 0 0 0 0 0 0 0 0 0 0 0 0 0 0 0.25 0"/>
<feBlend mode="normal" in2="BackgroundImageFix" result="effect1_dropShadow"/>
<feBlend mode="normal" in="SourceGraphic" in2="effect1_dropShadow" result="shape"/>
</filter>
<clipPath id="clip0">
<rect width="488" height="471" fill="white" transform="translate(4)"/>
</clipPath>
</defs>
</svg>
