<svg width="182" height="37" viewBox="0 0 182 37" fill="none" xmlns="http://www.w3.org/2000/svg">
<path fill-rule="evenodd" clip-rule="evenodd" d="M1 15.2149L1.3612 14.7328L15.1743 1H30.5936L37.2592 9.91428V18.3467L28.0238 6.22003H17.3427L8.34802 15.2146L14.5318 22.0409L17.664 22.1614L23.0447 17.1823L27.1204 21.5794L19.4911 28.486H11.4803L1 15.2149Z" fill="white" stroke="#131337" stroke-width="0.149992"/>
<path fill-rule="evenodd" clip-rule="evenodd" d="M37.5607 21.7294L37.1995 22.2115L23.3864 35.9443H7.96712L1.30151 27.03V18.5976L10.537 30.7243H21.2181L30.2127 21.7297L24.1627 14.593L21.5576 14.5375L16.3995 19.2801L12.3237 15.2042L19.0696 8.45831H27.0804L37.5607 21.7294Z" fill="white" stroke="#131337" stroke-width="0.149992"/>
<path d="M47.8824 16.3417C47.8824 16.0476 47.9975 15.7982 48.2277 15.5936C48.4579 15.389 48.7328 15.2867 49.0525 15.2867C49.3722 15.2867 49.6472 15.389 49.8773 15.5936C50.1075 15.7982 50.2226 16.0476 50.2226 16.3417C50.2226 16.623 50.1075 16.8724 49.8773 17.0898C49.6472 17.2944 49.3722 17.3967 49.0525 17.3967C48.7328 17.3967 48.4579 17.2944 48.2277 17.0898C47.9975 16.8724 47.8824 16.623 47.8824 16.3417ZM48.055 28.1004V20.3316C48.055 20.1398 48.1445 19.9863 48.3236 19.8712C48.5154 19.7434 48.7584 19.6794 49.0525 19.6794C49.3466 19.6794 49.5896 19.7434 49.7814 19.8712C49.9733 19.9863 50.0692 20.1398 50.0692 20.3316V28.1004C50.0692 28.2667 49.9669 28.4201 49.7623 28.5608C49.5704 28.7015 49.3338 28.7718 49.0525 28.7718C48.7712 28.7718 48.5346 28.7015 48.3428 28.5608C48.1509 28.4201 48.055 28.2667 48.055 28.1004ZM52.3872 28.1004V15.4209C52.3872 15.2163 52.4767 15.0565 52.6558 14.9414C52.8348 14.8135 53.0458 14.7496 53.2888 14.7496H60.1177C60.3351 14.7496 60.5013 14.8391 60.6164 15.0181C60.7315 15.1972 60.7891 15.4018 60.7891 15.6319C60.7891 15.8877 60.7251 16.1051 60.5972 16.2841C60.4822 16.4632 60.3223 16.5527 60.1177 16.5527H54.4205V20.9454H57.3746C57.5792 20.9454 57.7391 21.0286 57.8542 21.1948C57.9821 21.3483 58.046 21.5401 58.046 21.7703C58.046 21.9749 57.9885 22.1603 57.8734 22.3266C57.7583 22.48 57.592 22.5568 57.3746 22.5568H54.4205V26.9687H60.1177C60.3223 26.9687 60.4822 27.0582 60.5972 27.2372C60.7251 27.4163 60.7891 27.6337 60.7891 27.8894C60.7891 28.1196 60.7315 28.3242 60.6164 28.5033C60.5013 28.6823 60.3351 28.7718 60.1177 28.7718H53.2888C53.0458 28.7718 52.8348 28.7143 52.6558 28.5992C52.4767 28.4713 52.3872 28.3051 52.3872 28.1004ZM61.5072 27.8319C61.5072 27.7168 61.5456 27.5825 61.6223 27.4291L64.9408 21.7511L61.7182 16.1115C61.6159 15.9325 61.5648 15.7662 61.5648 15.6128C61.5648 15.357 61.699 15.1396 61.9676 14.9606C62.2361 14.7815 62.5303 14.692 62.85 14.692C63.1569 14.692 63.4126 14.8838 63.6173 15.2675L66.2644 20.1782L68.9499 15.2675C69.129 14.8838 69.3847 14.692 69.7172 14.692C70.0241 14.692 70.3119 14.7815 70.5804 14.9606C70.849 15.1396 70.9833 15.357 70.9833 15.6128C70.9833 15.7662 70.9321 15.9325 70.8298 16.1115L67.6072 21.7511L70.9257 27.4291C71.0152 27.6081 71.06 27.7424 71.06 27.8319C71.06 28.1004 70.9129 28.337 70.6188 28.5416C70.3375 28.7335 70.0433 28.8294 69.7364 28.8294C69.4679 28.8294 69.2569 28.6759 69.1034 28.369L66.2644 23.2665L63.4638 28.369C63.2848 28.6759 63.0674 28.8294 62.8116 28.8294C62.5175 28.8294 62.2233 28.7335 61.9292 28.5416C61.6479 28.337 61.5072 28.1004 61.5072 27.8319ZM72.3157 24.6093V19.0272C72.3157 17.5566 72.7057 16.476 73.4858 15.7854C74.2787 15.0948 75.3081 14.7496 76.5741 14.7496C77.8785 14.7496 78.9272 15.0757 79.72 15.7279C80.5257 16.3673 80.9285 17.1985 80.9285 18.2216C80.9285 18.6308 80.8518 18.9121 80.6983 19.0656C80.5449 19.2063 80.2827 19.2766 79.9119 19.2766C79.2469 19.2766 78.908 19.0528 78.8952 18.6052C78.8185 17.2369 78.0704 16.5527 76.6509 16.5527C75.1163 16.5527 74.349 17.3775 74.349 19.0272V24.6093C74.349 26.2589 75.1291 27.0838 76.6892 27.0838C77.1496 27.0838 77.5333 27.0198 77.8402 26.892C78.1471 26.7513 78.3645 26.5531 78.4924 26.2973C78.633 26.0415 78.729 25.8177 78.7801 25.6259C78.8313 25.4341 78.8696 25.1975 78.8952 24.9162C78.9336 24.4686 79.2661 24.2448 79.8927 24.2448C80.2635 24.2448 80.5257 24.3215 80.6792 24.475C80.8454 24.6157 80.9285 24.8906 80.9285 25.2998C80.9285 26.3612 80.5257 27.2244 79.72 27.8894C78.9144 28.5544 77.8594 28.8869 76.555 28.8869C75.2889 28.8869 74.2659 28.5416 73.4858 27.8511C72.7057 27.1605 72.3157 26.0799 72.3157 24.6093ZM82.8279 28.1004V15.4018C82.8279 15.1844 82.9238 15.0245 83.1156 14.9222C83.3202 14.8071 83.5632 14.7496 83.8445 14.7496C84.1259 14.7496 84.3625 14.8071 84.5543 14.9222C84.7589 15.0245 84.8612 15.1844 84.8612 15.4018V20.6961H89.6376V15.4018C89.6376 15.1844 89.7335 15.0245 89.9253 14.9222C90.1299 14.8071 90.3729 14.7496 90.6543 14.7496C90.9356 14.7496 91.1722 14.8071 91.364 14.9222C91.5686 15.0245 91.6709 15.1844 91.6709 15.4018V28.1004C91.6709 28.3051 91.5686 28.4713 91.364 28.5992C91.1722 28.7143 90.9356 28.7718 90.6543 28.7718C90.3857 28.7718 90.1491 28.7143 89.9445 28.5992C89.7399 28.4713 89.6376 28.3051 89.6376 28.1004V22.3074H84.8612V28.1004C84.8612 28.3051 84.7589 28.4713 84.5543 28.5992C84.3625 28.7143 84.1259 28.7718 83.8445 28.7718C83.576 28.7718 83.3394 28.7143 83.1348 28.5992C82.9302 28.4713 82.8279 28.3051 82.8279 28.1004ZM93.2011 27.9278C93.2011 27.8511 93.2075 27.7935 93.2203 27.7552L97.0376 15.325C97.1911 14.8647 97.6195 14.6345 98.3228 14.6345C99.039 14.6345 99.4738 14.8647 99.6272 15.325L103.425 27.7552C103.451 27.8319 103.464 27.8894 103.464 27.9278C103.464 28.158 103.323 28.3562 103.042 28.5225C102.773 28.6887 102.485 28.7718 102.178 28.7718C101.808 28.7718 101.577 28.6311 101.488 28.3498L100.701 25.6259H95.9634L95.1769 28.3498C95.0874 28.6311 94.8508 28.7718 94.4672 28.7718C94.1603 28.7718 93.8725 28.6887 93.604 28.5225C93.3354 28.3562 93.2011 28.158 93.2011 27.9278ZM96.4046 23.9954H100.241L98.3228 17.4159L96.4046 23.9954ZM104.97 28.1004V15.4209C104.97 14.9734 105.309 14.7496 105.987 14.7496C106.345 14.7496 106.632 14.8327 106.85 14.9989C107.067 15.1524 107.291 15.4529 107.521 15.9005L111.78 24.2064V15.4018C111.78 15.1844 111.876 15.0245 112.067 14.9222C112.272 14.8071 112.515 14.7496 112.796 14.7496C113.078 14.7496 113.314 14.8071 113.506 14.9222C113.711 15.0245 113.813 15.1844 113.813 15.4018V28.1004C113.813 28.3051 113.711 28.4713 113.506 28.5992C113.314 28.7143 113.078 28.7718 112.796 28.7718C112.259 28.7718 111.856 28.5225 111.588 28.0237L107.003 19.2958V28.1004C107.003 28.3051 106.901 28.4713 106.696 28.5992C106.505 28.7143 106.268 28.7718 105.987 28.7718C105.718 28.7718 105.481 28.7143 105.277 28.5992C105.072 28.4713 104.97 28.3051 104.97 28.1004ZM116.206 24.6093V19.0272C116.206 17.5566 116.596 16.476 117.377 15.7854C118.157 15.0948 119.18 14.7496 120.446 14.7496C121.737 14.7496 122.786 15.0757 123.592 15.7279C124.41 16.3673 124.819 17.2241 124.819 18.2983C124.819 18.6691 124.736 18.9249 124.57 19.0656C124.416 19.2063 124.161 19.2766 123.803 19.2766C123.138 19.2766 122.799 19.0528 122.786 18.6052C122.645 17.2369 121.884 16.5527 120.503 16.5527C118.994 16.5527 118.24 17.3775 118.24 19.0272V24.6093C118.24 26.2589 118.994 27.0838 120.503 27.0838C121.232 27.0838 121.795 26.8792 122.191 26.4699C122.588 26.0607 122.786 25.4405 122.786 24.6093V23.0363H120.849C120.644 23.0363 120.484 22.9596 120.369 22.8061C120.254 22.6399 120.196 22.4417 120.196 22.2115C120.196 22.0069 120.254 21.8214 120.369 21.6552C120.484 21.4889 120.644 21.4058 120.849 21.4058H124.148C124.352 21.4058 124.512 21.4762 124.627 21.6168C124.755 21.7447 124.819 21.9046 124.819 22.0964V24.6093C124.819 26.0799 124.423 27.1605 123.63 27.8511C122.85 28.5416 121.808 28.8869 120.503 28.8869C119.199 28.8869 118.157 28.5416 117.377 27.8511C116.596 27.1605 116.206 26.0799 116.206 24.6093ZM127 28.1004V15.4209C127 15.2163 127.089 15.0565 127.268 14.9414C127.447 14.8135 127.658 14.7496 127.901 14.7496H134.73C134.947 14.7496 135.114 14.8391 135.229 15.0181C135.344 15.1972 135.401 15.4018 135.401 15.6319C135.401 15.8877 135.338 16.1051 135.21 16.2841C135.095 16.4632 134.935 16.5527 134.73 16.5527H129.033V20.9454H131.987C132.192 20.9454 132.351 21.0286 132.467 21.1948C132.594 21.3483 132.658 21.5401 132.658 21.7703C132.658 21.9749 132.601 22.1603 132.486 22.3266C132.371 22.48 132.204 22.5568 131.987 22.5568H129.033V26.9687H134.73C134.935 26.9687 135.095 27.0582 135.21 27.2372C135.338 27.4163 135.401 27.6337 135.401 27.8894C135.401 28.1196 135.344 28.3242 135.229 28.5033C135.114 28.6823 134.947 28.7718 134.73 28.7718H127.901C127.658 28.7718 127.447 28.7143 127.268 28.5992C127.089 28.4713 127 28.3051 127 28.1004Z" fill="white"/>
</svg>
