<svg width="164" height="164" viewBox="0 0 164 164" fill="none" xmlns="http://www.w3.org/2000/svg">
<g filter="url(#filter0_d)">
<path d="M81.8212 105.827C81.3003 105.827 80.8711 105.413 80.8559 104.889C80.8408 104.355 81.2607 103.911 81.7939 103.896C82.3281 103.872 82.7768 104.285 82.8003 104.818C82.8242 105.351 82.4101 105.802 81.8769 105.826L81.8491 105.827C81.8398 105.827 81.8305 105.827 81.8212 105.827ZM77.9375 105.682C77.8994 105.682 77.8618 105.68 77.8232 105.675L77.8208 105.675C77.29 105.622 76.9057 105.149 76.9589 104.618C77.0122 104.087 77.4887 103.701 78.019 103.753L78.0488 103.756C78.5786 103.819 78.9575 104.299 78.895 104.829C78.8374 105.32 78.4204 105.682 77.9375 105.682ZM85.6962 105.384C85.2441 105.384 84.8403 105.065 84.75 104.605C84.6464 104.081 84.9873 103.573 85.5107 103.47L85.5288 103.467C86.0527 103.367 86.5586 103.71 86.6586 104.234C86.7587 104.758 86.4155 105.264 85.8916 105.364L85.8842 105.366C85.8208 105.378 85.7583 105.384 85.6962 105.384ZM74.1054 104.946C74.0214 104.946 73.936 104.935 73.8505 104.912L73.8452 104.91C73.33 104.773 73.0224 104.244 73.1591 103.729C73.2959 103.213 73.8242 102.906 74.3393 103.042L74.3593 103.048C74.874 103.188 75.1772 103.719 75.0366 104.234C74.9194 104.664 74.5302 104.946 74.1054 104.946ZM89.4599 104.352C89.0649 104.352 88.6948 104.109 88.5517 103.716C88.3696 103.215 88.6284 102.661 89.1294 102.479L89.1455 102.473C89.6469 102.293 90.2002 102.553 90.3808 103.055C90.5615 103.557 90.3003 104.11 89.7983 104.291L89.79 104.294C89.6806 104.334 89.5693 104.352 89.4599 104.352ZM70.4267 103.628C70.2949 103.628 70.1611 103.601 70.0327 103.543L70.0195 103.537C69.5336 103.317 69.3183 102.745 69.5385 102.259C69.7587 101.773 70.3305 101.558 70.8169 101.778C71.3032 101.998 71.5244 102.572 71.3051 103.058C71.1435 103.416 70.7939 103.628 70.4267 103.628ZM93.0175 102.756C92.6718 102.756 92.3383 102.57 92.1645 102.245C91.913 101.774 92.0913 101.188 92.562 100.938C93.0293 100.681 93.6167 100.851 93.874 101.318C94.1308 101.786 93.9609 102.373 93.4931 102.63L93.4711 102.642C93.3261 102.719 93.1709 102.756 93.0175 102.756ZM101.79 94.1221L101.796 94.1265L101.694 94.0537L101.79 94.1221ZM57.2055 89.9121C56.8242 89.9121 56.4628 89.6846 56.31 89.3096L56.3076 89.3027C56.104 88.8096 56.3388 88.2446 56.8315 88.0415C57.3247 87.8379 57.8896 88.0728 58.0927 88.5654L58.0996 88.5825C58.3007 89.0767 58.0625 89.6402 57.5683 89.8408C57.4497 89.8892 57.3261 89.9121 57.2055 89.9121ZM105.147 88.0586C105.046 88.0586 104.943 88.0425 104.841 88.0088C104.339 87.8413 104.065 87.3003 104.227 86.7969C104.385 86.2896 104.923 86.0029 105.431 86.1572C105.941 86.3125 106.229 86.8501 106.075 87.3599L106.063 87.398C105.928 87.8027 105.551 88.0586 105.147 88.0586ZM56.0244 86.1939C55.5874 86.1939 55.1914 85.8955 55.0854 85.4522L55.0825 85.4395C54.9589 84.9204 55.2788 84.3994 55.7978 84.2754C56.3169 84.1514 56.8378 84.4717 56.9614 84.9907L56.9643 85.0034C57.0883 85.522 56.768 86.043 56.2495 86.167C56.1738 86.1851 56.0986 86.1939 56.0244 86.1939ZM106.035 84.2598C105.979 84.2598 105.923 84.2549 105.866 84.2446C105.345 84.1528 104.995 83.6577 105.081 83.1367C105.162 82.6118 105.652 82.2495 106.177 82.3267C106.705 82.4048 107.069 82.8936 106.992 83.4214L106.985 83.4614C106.903 83.9297 106.495 84.2598 106.035 84.2598ZM55.4282 82.3364C54.9326 82.3364 54.5112 81.9585 54.4672 81.4561L54.4643 81.416C54.4331 80.8833 54.8393 80.4268 55.372 80.395C55.8999 80.3628 56.3554 80.7647 56.392 81.292C56.4345 81.8213 56.0419 82.2876 55.5122 82.333C55.4838 82.3355 55.456 82.3364 55.4282 82.3364ZM106.331 80.3696C105.797 80.3696 105.365 79.9375 105.365 79.4038V79.3911C105.365 79.3843 105.365 79.3775 105.365 79.3711C105.365 79.3628 105.365 79.354 105.365 79.3457V79.333C105.365 78.7993 105.797 78.3667 106.331 78.3667C106.864 78.3667 107.297 78.7993 107.297 79.333V79.3457C107.297 79.3526 107.297 79.3594 107.296 79.3657C107.297 79.374 107.297 79.3823 107.297 79.3911V79.4038C107.297 79.9375 106.865 80.3696 106.331 80.3696ZM55.4257 78.437C55.3979 78.437 55.3696 78.4356 55.3413 78.4331C54.8105 78.3872 54.4174 77.9204 54.4624 77.3902C54.4995 76.8628 54.9506 76.461 55.4824 76.4942C56.0151 76.5254 56.4213 76.9824 56.3901 77.5147L56.3867 77.5547C56.3432 78.0576 55.9213 78.437 55.4257 78.437ZM106.028 76.4224C105.568 76.4224 105.161 76.0928 105.078 75.624L105.071 75.584C104.994 75.0562 105.359 74.5654 105.887 74.4878C106.412 74.4102 106.903 74.7739 106.982 75.3003C107.067 75.8208 106.718 76.315 106.197 76.4072C106.14 76.4175 106.083 76.4224 106.028 76.4224ZM106.19 75.4194L106.027 75.4434L106.19 75.4194ZM56.0117 74.5806C55.9375 74.5806 55.8618 74.5718 55.7866 74.5537C55.2685 74.4302 54.9482 73.9102 55.0708 73.3921C55.185 72.877 55.6933 72.5479 56.2114 72.6563C56.7334 72.7656 57.0683 73.2774 56.9589 73.7993L56.9502 73.8389C56.8447 74.2822 56.4487 74.5806 56.0117 74.5806ZM105.142 72.6294C104.735 72.6294 104.356 72.3696 104.221 71.9639L104.21 71.9302C104.053 71.4204 104.339 70.8799 104.849 70.7232C105.359 70.5659 105.899 70.8521 106.056 71.3623L106.057 71.3638C106.225 71.8701 105.95 72.4116 105.444 72.5801C105.344 72.6138 105.242 72.6294 105.142 72.6294ZM57.1826 70.8565C57.0615 70.8565 56.9384 70.8335 56.8193 70.7852C56.3252 70.5845 56.0874 70.021 56.288 69.5269L56.2929 69.5152C56.4936 69.021 57.0566 68.7827 57.5512 68.9834C58.0454 69.1841 58.2832 69.7476 58.0825 70.2417L58.0776 70.2539C57.9253 70.6289 57.5639 70.8565 57.1826 70.8565ZM103.677 69.0117C103.325 69.0117 102.985 68.8189 102.813 68.4859L102.799 68.4575C102.563 67.9785 102.761 67.3999 103.24 67.1646C103.718 66.9292 104.297 67.1265 104.533 67.605L104.533 67.6069C104.778 68.0806 104.59 68.6597 104.116 68.9043C103.976 68.9771 103.825 69.0117 103.677 69.0117ZM58.9121 67.3574C58.7407 67.3574 58.5669 67.312 58.4101 67.2158C57.9555 66.939 57.8115 66.3467 58.0864 65.8921C58.3525 65.4375 58.936 65.2793 59.396 65.5401C59.8598 65.8032 60.0229 66.3926 59.7602 66.8565C59.7529 66.8692 59.7451 66.8819 59.7373 66.8945C59.5556 67.1929 59.2378 67.3574 58.9121 67.3574ZM101.671 65.6611C101.362 65.6611 101.058 65.5127 100.872 65.2378C100.561 64.8037 100.665 64.2046 101.099 63.8945C101.533 63.5845 102.139 63.6895 102.449 64.1236L102.47 64.1528C102.769 64.5943 102.654 65.1948 102.213 65.4946C102.047 65.6074 101.858 65.6611 101.671 65.6611ZM61.1562 64.1646C60.9384 64.1646 60.7202 64.0913 60.5395 63.9419C60.1294 63.6011 60.0727 62.9922 60.4135 62.5816L60.4218 62.5718C60.7627 62.1611 61.3711 62.105 61.7817 62.4453C62.1923 62.7861 62.249 63.395 61.9082 63.8057L61.8999 63.8154C61.7089 64.0459 61.4336 64.1646 61.1562 64.1646ZM99.1831 62.6563C98.9292 62.6563 98.6757 62.5571 98.4863 62.3594C98.1128 61.9785 98.1181 61.3657 98.4995 60.9922C98.8798 60.6192 99.4907 60.6245 99.8637 61.0054L99.8798 61.0215C100.249 61.4063 100.237 62.0181 99.852 62.3872C99.6645 62.5674 99.4238 62.6563 99.1831 62.6563ZM63.8593 61.3501C63.5918 61.3501 63.3261 61.2403 63.1352 61.0244C62.7817 60.625 62.8193 60.0147 63.2187 59.6611L63.2226 59.6577C63.6196 59.3028 64.2304 59.335 64.5864 59.7319C64.9419 60.1284 64.9106 60.7373 64.5146 61.0938L64.499 61.1079C64.3149 61.2705 64.0864 61.3501 63.8593 61.3501ZM96.2666 60.0635C96.0683 60.0635 95.8691 60.0029 95.6967 59.877L95.664 59.8521C95.2431 59.5244 95.167 58.918 95.4946 58.4966C95.8217 58.0762 96.4267 58 96.8476 58.3257C97.2695 58.6426 97.3593 59.2412 97.0468 59.668C96.8574 59.9268 96.5639 60.0635 96.2666 60.0635ZM96.3535 58.9658L96.2568 59.0899L96.3535 58.9658ZM66.957 58.979C66.6381 58.979 66.3261 58.8213 66.142 58.5327C65.8554 58.0835 65.9868 57.4878 66.4345 57.2002C66.875 56.9092 67.4692 57.0259 67.7661 57.4639C68.0659 57.9053 67.9506 58.5059 67.5092 58.8052L67.4755 58.8277C67.3149 58.9302 67.1352 58.979 66.957 58.979ZM92.9878 57.9434C92.8354 57.9434 92.6806 57.9072 92.5366 57.8306L92.5136 57.8179C92.0463 57.5611 91.8759 56.9736 92.1328 56.5064C92.3896 56.0391 92.977 55.8687 93.4443 56.1255L93.4472 56.127C93.9135 56.3814 94.0898 56.9668 93.8378 57.4346C93.663 57.7588 93.331 57.9434 92.9878 57.9434ZM70.3794 57.1079C70.0112 57.1079 69.6591 56.8965 69.498 56.5396C69.2783 56.0537 69.4941 55.4819 69.9799 55.2622L70.0024 55.2525C70.4907 55.0381 71.06 55.2612 71.2744 55.75C71.4878 56.2388 71.2651 56.8081 70.7763 57.022C70.6474 57.0801 70.5122 57.1079 70.3794 57.1079Z" fill="#2D1484"/>
<path d="M88.3149 98.1406L73.7734 83.5991C72.8618 82.688 72.8608 81.2134 73.771 80.3037C74.1304 79.9443 74.5796 79.7266 75.0464 79.6528C75.7588 79.5381 76.5151 79.7554 77.0664 80.3066L73.3218 76.562C72.8667 76.1069 72.6382 75.5103 72.6382 74.915C72.6382 74.791 72.6479 74.6665 72.668 74.5425C72.7427 74.0747 72.9595 73.6265 73.3193 73.2666C73.6753 72.9106 74.1167 72.6948 74.5776 72.6182C75.2051 72.5137 75.8662 72.6665 76.3931 73.0771L74.9683 71.6523C74.5127 71.1968 74.2842 70.5986 74.2842 70.0029C74.2832 69.8765 74.2944 69.749 74.3154 69.6245C74.3901 69.1597 74.6064 68.7139 74.9644 68.356C75.3242 67.9961 75.7729 67.7783 76.2422 67.7046C76.9541 67.5898 77.7109 67.8076 78.2617 68.3584L79.8936 69.9902C79.3438 69.4404 79.125 68.6826 79.2397 67.9707C79.3135 67.5034 79.5303 67.0552 79.8911 66.6948C80.7998 65.7861 82.2759 65.7871 83.1865 66.6978L92.6367 76.148L92.6631 76.1104C93.1421 75.6313 93.7065 75.291 94.3086 75.0879C95.7944 74.5869 97.5049 74.9292 98.6904 76.1152L103.097 80.5215C103.944 81.3682 104.419 82.5156 104.421 83.7119L104.423 86.4688C104.424 87.7568 104.937 88.9927 105.85 89.9053L106.832 90.8877L95.5933 102.126L94.3374 100.871C93.5024 100.036 92.3916 99.5327 91.2144 99.4556C90.1206 99.3838 89.0908 98.9165 88.3149 98.1406Z" fill="#FECBAA"/>
<path d="M94.8628 102.856L107.62 90.0996C108.04 89.6792 108.721 89.6792 109.142 90.0996L113.685 94.6426C114.105 95.063 114.105 95.7446 113.685 96.1646L100.928 108.921C100.508 109.342 99.8262 109.342 99.4062 108.921L94.8628 104.378C94.4429 103.958 94.4429 103.276 94.8628 102.856Z" fill="#FDD559"/>
<path d="M107.959 95.8257C108.336 96.2031 108.947 96.2036 109.324 95.8272C109.7 95.4507 109.7 94.8394 109.323 94.4624C108.945 94.085 108.334 94.0845 107.958 94.4609C107.581 94.8379 107.582 95.4487 107.959 95.8257Z" fill="#FF8812"/>
<path d="M95.8906 79.4014L92.6367 76.1479L92.6631 76.1104C93.1421 75.6313 93.7065 75.291 94.3086 75.0879L97.2563 78.0356C97.6333 78.4126 97.6333 79.0244 97.2563 79.4014C96.8784 79.7793 96.2676 79.7783 95.8906 79.4014Z" fill="#FFAE85"/>
<path d="M75.6851 98.1421L90.2266 83.6006C91.1382 82.689 91.1392 81.2148 90.2295 80.3052C89.8696 79.9453 89.4209 79.7275 88.9536 79.6538C88.2412 79.5391 87.4849 79.7568 86.9336 80.3076L90.6782 76.5635C91.1333 76.1084 91.3618 75.5117 91.3618 74.916C91.3618 74.7925 91.3521 74.6675 91.332 74.5439C91.2573 74.0757 91.0405 73.6279 90.6807 73.2681C90.3247 72.9121 89.8833 72.6963 89.4224 72.6196C88.7949 72.5151 88.1338 72.668 87.6069 73.0786L89.0317 71.6533C89.4873 71.1982 89.7158 70.6001 89.7158 70.0044C89.7168 69.8774 89.7056 69.75 89.6846 69.6255C89.6104 69.1611 89.3936 68.7148 89.0356 68.3569C88.6758 67.9976 88.2271 67.7798 87.7578 67.7061C87.0459 67.5913 86.2891 67.8086 85.7383 68.3599L84.1064 69.9917C84.6562 69.4414 84.875 68.6841 84.7603 67.9717C84.6865 67.5049 84.4697 67.0566 84.1089 66.6958C83.2002 65.7871 81.7241 65.7881 80.8135 66.6987L71.3633 76.1489L71.3369 76.1118C70.8579 75.6328 70.2935 75.2925 69.6914 75.0894C68.2051 74.5884 66.4951 74.9307 65.3096 76.1162L60.9033 80.523C60.0562 81.3696 59.5811 82.5171 59.5791 83.7134L59.5762 86.4697C59.5757 87.7583 59.063 88.9941 58.1504 89.9067L57.168 90.8892L68.4067 102.128L69.6626 100.872C70.4976 100.037 71.6084 99.5342 72.7856 99.457C73.8794 99.3853 74.9092 98.918 75.6851 98.1421Z" fill="#FECBAA"/>
<path d="M69.1372 102.857L56.3804 90.1011C55.96 89.6807 55.2788 89.6807 54.8584 90.1011L50.3154 94.644C49.895 95.0645 49.895 95.7456 50.3154 96.166L63.0718 108.923C63.4922 109.343 64.1738 109.343 64.5942 108.923L69.1372 104.38C69.5576 103.959 69.5576 103.278 69.1372 102.857Z" fill="#B40042"/>
<path d="M64.7832 104.568C65.1606 104.191 65.1611 103.58 64.7847 103.204C64.4082 102.827 63.7969 102.827 63.4199 103.205C63.0425 103.582 63.042 104.193 63.4185 104.569C63.7954 104.946 64.4062 104.945 64.7832 104.568Z" fill="#EF6085"/>
<path d="M68.1099 79.4028L71.3633 76.1489L71.3369 76.1118C70.8579 75.6328 70.2935 75.2925 69.6914 75.0894L66.7437 78.0366C66.3667 78.4136 66.3667 79.0259 66.7437 79.4028C67.1216 79.7808 67.7324 79.7798 68.1099 79.4028Z" fill="#FFAE85"/>
<path d="M91.3003 63.292V83.857C91.3003 85.146 90.2588 86.189 88.9722 86.189C88.4634 86.189 87.9922 86.0254 87.6094 85.7471C87.0249 85.3247 86.6436 84.6358 86.6436 83.857V89.1524C86.6436 89.7959 86.3833 90.3794 85.9624 90.8003C85.875 90.8882 85.7793 90.9693 85.6777 91.0425C85.2939 91.3208 84.8242 91.4844 84.3154 91.4844C83.812 91.4844 83.3467 91.3247 82.9668 91.0533C82.4492 90.6836 82.0898 90.1079 82.0078 89.4444V91.46C82.0078 92.104 81.7461 92.6885 81.3252 93.1094C81.2363 93.1997 81.1382 93.2823 81.0356 93.3555C80.6543 93.6314 80.1855 93.7935 79.6792 93.7935C79.1709 93.7935 78.6992 93.6299 78.3154 93.3506C77.731 92.9283 77.3496 92.2393 77.3496 91.46V89.1524C77.3496 89.9302 76.9688 90.6201 76.3838 91.0425C76.0015 91.3208 75.5312 91.4844 75.0215 91.4844C73.7358 91.4844 72.6929 90.44 72.6929 89.1524V75.7876L72.6479 75.7954C71.9707 75.7954 71.3306 75.6367 70.7612 75.355C69.3564 74.6582 68.3892 73.2071 68.3892 71.5303V65.2984C68.3892 64.1011 68.8643 62.9536 69.709 62.106L71.6562 60.1553C72.5669 59.2432 73.0781 58.0074 73.0781 56.7168V55.3272H88.9717V57.1031C88.9717 58.2837 89.4019 59.4248 90.1797 60.312C90.9023 61.1363 91.3003 62.1949 91.3003 63.292Z" fill="#FEDFC5"/>
<path d="M90.2295 80.3052C89.8696 79.9453 89.4209 79.728 88.9536 79.6538C88.2412 79.5391 87.4849 79.7568 86.9336 80.3081L90.6782 76.5635C91.1333 76.1084 91.3623 75.5117 91.3623 74.9165C91.3623 74.7925 91.352 74.6675 91.332 74.5439C91.2573 74.0757 91.041 73.6279 90.6811 73.2681C90.3252 72.9121 89.8833 72.6963 89.4228 72.6196C88.7954 72.5151 88.1343 72.668 87.6069 73.0786L89.0322 71.6533C89.4873 71.1982 89.7158 70.6001 89.7158 70.0044C89.7168 69.8779 89.706 69.7505 89.6851 69.6255C89.6103 69.1611 89.3935 68.7148 89.0356 68.3569C88.6763 67.9976 88.227 67.7798 87.7583 67.7061C87.0464 67.5913 86.2891 67.8091 85.7383 68.3599L84.1064 69.9917C84.6562 69.4414 84.875 68.6841 84.7602 67.9717C84.6865 67.5049 84.4697 67.0566 84.1094 66.6958C83.2002 65.7871 81.7241 65.7881 80.8135 66.6987L71.3633 76.1489L71.3369 76.1118C70.8579 75.6328 70.2935 75.2925 69.6914 75.0894C68.9785 74.8491 68.2144 74.8047 67.4805 74.9526C68.0713 75.8457 68.8975 76.5864 69.9043 77.0859C70.1836 77.2241 70.4697 77.3403 70.7617 77.4341V89.1523C70.7617 91.5034 72.6729 93.416 75.0215 93.416C75.3042 93.416 75.5825 93.3887 75.8535 93.335C76.1567 93.9546 76.6089 94.5 77.1787 94.9116C77.5322 95.1694 77.918 95.3667 78.3237 95.5034L90.2266 83.6006C91.1382 82.689 91.1392 81.2148 90.2295 80.3052Z" fill="#FFAE85"/>
<path d="M93.231 83.8569V75.6323C93.0313 75.7725 92.8408 75.9321 92.6621 76.1104L92.6358 76.148L83.1856 66.6978C82.2749 65.7871 80.7988 65.7861 79.8902 66.6948C79.5293 67.0552 79.3125 67.5034 79.2388 67.9707C79.124 68.6826 79.3428 69.4404 79.8926 69.9902L78.2608 68.3584C77.71 67.8076 76.9531 67.5898 76.2412 67.7046C75.772 67.7783 75.3233 67.9961 74.9634 68.356C74.6055 68.7139 74.3887 69.1597 74.314 69.6245C74.2935 69.749 74.2822 69.8765 74.2832 70.0029C74.2832 70.5986 74.5117 71.1968 74.9673 71.6523L76.3921 73.0771C75.8648 72.6665 75.2041 72.5137 74.5767 72.6182C74.1157 72.6948 73.6743 72.9106 73.3184 73.2666C72.9585 73.6265 72.7417 74.0747 72.667 74.5425C72.647 74.6665 72.6367 74.791 72.6372 74.915C72.6367 75.5107 72.8657 76.1069 73.3208 76.562L77.0654 80.3066C76.5147 79.7559 75.7578 79.5381 75.0459 79.6528C74.5786 79.7266 74.1294 79.9443 73.77 80.3037C72.8604 81.2139 72.8613 82.688 73.7725 83.5996L83.5142 93.3408C83.7759 93.3906 84.0435 93.416 84.3145 93.416C85.2173 93.416 86.0806 93.1362 86.8071 92.6094C86.9922 92.4756 87.1675 92.3267 87.3277 92.1665C88.1319 91.3623 88.5747 90.292 88.5747 89.1523V88.1025C88.7056 88.1147 88.8384 88.1206 88.9712 88.1206C91.3198 88.1206 93.231 86.208 93.231 83.8569Z" fill="#FFAE85"/>
<path d="M91.3003 63.292V83.857C91.3003 85.146 90.2588 86.189 88.9722 86.189C88.9375 86.189 88.8999 86.189 88.8628 86.1866C88.3975 86.1646 87.9663 86.0064 87.6123 85.7486C87.6108 85.7486 87.6108 85.7471 87.6094 85.7471C87.0249 85.3247 86.6436 84.6358 86.6436 83.857V89.1524C86.6436 89.7959 86.3833 90.3794 85.9624 90.8003C85.875 90.8882 85.7793 90.9693 85.6777 91.0425C85.2939 91.3208 84.8242 91.4844 84.3154 91.4844C83.812 91.4844 83.3467 91.3247 82.9668 91.0533C82.4492 90.6836 82.0898 90.1079 82.0078 89.4444V91.46C82.0078 92.104 81.7461 92.6885 81.3252 93.1094C81.2363 93.1997 81.1382 93.2823 81.0356 93.3555C80.6543 93.6314 80.1855 93.7935 79.6792 93.7935C79.1709 93.7935 78.6992 93.6299 78.3154 93.3506C77.731 92.9283 77.3496 92.2393 77.3496 91.46V89.1524C77.3496 89.9302 76.9688 90.6201 76.3838 91.0425C76.0015 91.3208 75.5312 91.4844 75.0215 91.4844C73.7358 91.4844 72.6929 90.44 72.6929 89.1524V75.7876L72.6479 75.7954C71.9707 75.7954 71.3306 75.6367 70.7612 75.355C69.3564 74.6582 68.3892 73.2071 68.3892 71.5303V65.2984C68.3892 64.1011 68.8643 62.9536 69.709 62.106L71.6562 60.1553C72.2192 59.5913 72.6299 58.9034 72.8604 58.1538C73.0049 57.6905 73.0781 57.2022 73.0781 56.7168V55.3272H88.9717V57.1031C88.9717 57.501 89.0146 57.9209 89.125 58.3042C89.3105 59.0425 89.6714 59.7315 90.1797 60.312C90.896 61.1299 91.3003 62.2027 91.3003 63.292Z" fill="#FEDFC5"/>
<path d="M91.3003 63.292V83.857C91.3003 85.146 90.2588 86.189 88.9722 86.189C88.9375 86.189 88.8999 86.189 88.8628 86.1866C88.3975 86.1646 87.9663 86.0064 87.6123 85.7486L87.6519 65.9322C87.6519 65.8125 87.625 65.6231 87.5747 65.3824C86.686 61.0537 83.0327 58.1538 78.6143 58.1538H72.8604C73.0049 57.69 73.0781 57.2022 73.0781 56.7168V55.3272H88.9717V57.1031C88.9717 57.501 89.0147 57.9209 89.125 58.3042C89.3105 59.0425 89.6714 59.7315 90.1797 60.312C90.896 61.1299 91.3003 62.2027 91.3003 63.292Z" fill="#FECBAA"/>
<path d="M90.0049 55.3277H71.9639C71.3696 55.3277 70.8877 54.8457 70.8877 54.2515V47.8262C70.8877 47.232 71.3696 46.75 71.9639 46.75H90.0049C90.5991 46.75 91.0811 47.232 91.0811 47.8262V54.2515C91.0811 54.8457 90.5991 55.3277 90.0049 55.3277Z" fill="#E32851"/>
<path d="M75.9863 51.0391C75.9863 50.5054 75.5547 50.0733 75.022 50.0733C74.4893 50.0733 74.0576 50.5054 74.0576 51.0391C74.0576 51.5723 74.4893 52.0049 75.022 52.0049C75.5547 52.0049 75.9863 51.5723 75.9863 51.0391Z" fill="#5186FF"/>
<path d="M87.6099 73.0948V85.7471C87.0249 85.3247 86.6436 84.6358 86.6436 83.8565V89.1519C86.6436 89.7959 86.3838 90.3794 85.9624 90.8003C85.875 90.8882 85.7798 90.9693 85.6777 91.0425V73.0948C85.6777 72.5616 86.1108 72.1289 86.6436 72.1289C87.1768 72.1289 87.6099 72.5616 87.6099 73.0948Z" fill="#FECBAA"/>
<path d="M82.9673 73.0948V91.0528C82.4492 90.6831 82.0903 90.1075 82.0078 89.4444V91.46C82.0078 92.1035 81.7466 92.6885 81.3252 93.1094C81.2363 93.1997 81.1387 93.2818 81.0356 93.3555V73.0948C81.0356 72.5616 81.4683 72.1289 82.0015 72.1289C82.5347 72.1289 82.9673 72.5616 82.9673 73.0948Z" fill="#FECBAA"/>
<path d="M78.3154 73.0948V93.3501C77.731 92.9278 77.3496 92.2388 77.3496 91.46V89.1519C77.3496 89.9297 76.9688 90.6201 76.3838 91.0425V73.0948C76.3838 72.5616 76.8169 72.1289 77.3496 72.1289C77.8843 72.1289 78.3154 72.5616 78.3154 73.0948Z" fill="#FECBAA"/>
<path d="M72.6934 71.1861V75.7876L72.6479 75.795C71.9707 75.795 71.3306 75.6367 70.7617 75.355V71.1861C70.7617 70.6529 71.1943 70.2202 71.7275 70.2202C72.2617 70.2202 72.6934 70.6529 72.6934 71.1861Z" fill="#FECBAA"/>
</g>
<defs>
<filter id="filter0_d" x="0" y="0" width="164" height="164" filterUnits="userSpaceOnUse" color-interpolation-filters="sRGB">
<feFlood flood-opacity="0" result="BackgroundImageFix"/>
<feColorMatrix in="SourceAlpha" type="matrix" values="0 0 0 0 0 0 0 0 0 0 0 0 0 0 0 0 0 0 127 0"/>
<feOffset dy="4"/>
<feGaussianBlur stdDeviation="25"/>
<feColorMatrix type="matrix" values="0 0 0 0 0 0 0 0 0 0 0 0 0 0 0 0 0 0 0.15 0"/>
<feBlend mode="normal" in2="BackgroundImageFix" result="effect1_dropShadow"/>
<feBlend mode="normal" in="SourceGraphic" in2="effect1_dropShadow" result="shape"/>
</filter>
</defs>
</svg>
