<svg width="172" height="176" viewBox="0 0 172 176" fill="none" xmlns="http://www.w3.org/2000/svg">
<g clip-path="url(#clip0)" filter="url(#filter0_d)">
<path d="M56.0855 105.084L68.0328 116.958C73.3002 120.149 79.4412 121.982 86 121.982C91.5088 121.982 96.7237 120.69 101.373 118.386L114.831 106.736C118.973 100.784 121.41 93.4962 121.41 85.6233C121.41 65.5428 105.557 49.2644 85.9999 49.2644C66.4432 49.2644 50.5896 65.5427 50.5896 85.6232C50.5896 92.7823 52.606 99.4571 56.0855 105.084V105.084Z" fill="url(#paint0_linear)"/>
<path d="M64.911 100.219V97.3287C64.7784 96.6815 64.8183 98.3014 64.8183 76.2287C64.8183 75.1198 63.9429 74.2199 62.8628 74.2199C61.7829 74.2199 60.9074 75.1188 60.9074 76.2276C60.8261 81.6556 61.4269 82.0526 58.8083 87.5218C57.7947 89.6386 57.4459 91.9936 57.635 94.3445L58.0225 98.0911C58.0872 98.9024 58.0138 99.7192 57.8055 100.505L56.8266 103.141C56.5852 103.791 56.3371 104.439 56.0854 105.084C59.0926 109.947 63.1935 114.026 68.0327 116.958L68.7175 114.743C69.4268 112.586 71.3461 110.832 73.3632 109.957C73.3793 109.95 73.3954 109.943 73.4117 109.936C76.0224 108.823 78.2722 106.984 79.9165 104.636H69.2125C66.8368 104.636 64.911 102.658 64.911 100.219V100.219Z" fill="#F9BA8F"/>
<path d="M101.544 46H68.9127C66.5735 46 64.6772 47.947 64.6772 50.3489V100.337C64.6772 102.739 66.5736 104.687 68.9129 104.687H101.544C103.883 104.687 105.779 102.739 105.779 100.337V50.3491C105.779 47.9472 103.883 46 101.544 46V46Z" fill="#2A428C"/>
<path d="M68.9127 46C66.5735 46 64.6772 47.947 64.6772 50.3489V100.337C64.6772 102.74 66.5736 104.687 68.9129 104.687H79.2363C78.1383 103.218 79.5239 102.183 79.5239 102.183C77.3801 101.67 77.5005 99.6299 77.5005 99.6299C77.5005 99.6299 77.5005 91.1215 77.5005 88.8459C77.5005 86.5704 79.4758 86.0542 79.4758 86.0542V81.6378C77.5005 81.1575 77.3775 79.7809 77.3775 79.7809C77.3775 79.7809 77.3775 75.8853 77.3775 74.2196C77.3775 72.554 79.6367 71.8706 79.6367 71.8706V68.8421C77.8584 68.4772 78.3152 66.7109 78.3152 66.7109L78.4754 56.4894C74.6805 53.5167 77.3776 48.9876 77.3776 48.9876C76.125 47.7014 76.9302 46.4173 77.2575 45.9997H68.9127V46Z" fill="#142766"/>
<path d="M67.4111 100.786C67.4111 101.555 68.0234 102.183 68.7717 102.183H101.672C102.421 102.183 103.033 101.555 103.033 100.786C103.033 99.2354 103.033 75.882 103.033 61.4897H67.4111V100.786Z" fill="#73C3F9"/>
<path d="M78.3968 61.4898H67.4111V100.786C67.4111 101.555 68.0234 102.183 68.7717 102.183H79.5239C77.38 101.67 77.5004 99.6299 77.5004 99.6299C77.5004 99.6299 77.5004 91.1215 77.5004 88.8459C77.5004 86.5704 79.4757 86.0541 79.4757 86.0541V81.6378C77.5004 81.1575 77.3774 79.7809 77.3774 79.7809C77.3774 79.7809 77.3774 75.8853 77.3774 74.2196C77.3774 72.554 79.6366 71.8706 79.6366 71.8706V68.8421C77.8583 68.4772 78.3151 66.7109 78.3151 66.7109L78.3968 61.4898Z" fill="#4FABF7"/>
<path d="M101.672 48.9879H68.7717C68.0234 48.9879 67.4111 49.6165 67.4111 50.385V61.7715H103.033C103.033 55.6117 103.033 51.0308 103.033 50.3848C103.033 49.6165 102.421 48.9879 101.672 48.9879V48.9879Z" fill="#E9EFFF"/>
<path d="M77.3774 48.9879H68.7717C68.0234 48.9879 67.4111 49.6165 67.4111 50.385V61.7715H78.3925L78.4751 56.4895C74.6805 53.517 77.3774 48.9879 77.3774 48.9879V48.9879Z" fill="#BEC8F7"/>
<path d="M94.6661 86.0543H75.7779C74.5902 86.0543 73.6274 85.0658 73.6274 83.8462C73.6274 82.6266 74.5903 81.6381 75.7779 81.6381H94.6661C95.8539 81.6381 96.8166 82.6266 96.8166 83.8462C96.8168 85.0658 95.8539 86.0543 94.6661 86.0543Z" fill="#E9EFFF"/>
<path d="M77.927 83.8462C77.927 82.6267 78.8899 81.638 80.0775 81.638H75.7777C74.5899 81.638 73.6272 82.6265 73.6272 83.8462C73.6272 85.0658 74.5901 86.0543 75.7777 86.0543H80.0775C78.8899 86.0543 77.927 85.0658 77.927 83.8462V83.8462Z" fill="#BEC8F7"/>
<path d="M94.6661 81.6381H90.6936V86.0545H94.6661C95.8537 86.0545 96.8165 85.0659 96.8165 83.8464C96.8165 82.6265 95.8537 81.6381 94.6661 81.6381Z" fill="#9BD8F9"/>
<path d="M108.947 71.8709H101.938C101.126 71.8709 100.463 71.1894 100.463 70.3567C100.463 69.5239 101.127 68.8426 101.938 68.8426H108.947C109.758 68.8426 110.422 69.524 110.422 70.3567C110.422 71.1895 109.758 71.8709 108.947 71.8709Z" fill="#E9EFFF"/>
<path d="M95.1328 71.8709H88.1233C87.3122 71.8709 86.6487 71.1894 86.6487 70.3567C86.6487 69.5239 87.3122 68.8426 88.1233 68.8426H95.1328C95.9439 68.8426 96.6075 69.524 96.6075 70.3567C96.6075 71.1895 95.9439 71.8709 95.1328 71.8709Z" fill="#E9EFFF"/>
<path d="M81.8198 71.8709H74.8103C73.9992 71.8709 73.3357 71.1894 73.3357 70.3567C73.3357 69.5239 73.9994 68.8426 74.8103 68.8426H81.8198C82.6309 68.8426 83.2945 69.524 83.2945 70.3567C83.2946 71.1895 82.6309 71.8709 81.8198 71.8709Z" fill="#E9EFFF"/>
<path d="M68.0059 71.8709H60.9964C60.1853 71.8709 59.5217 71.1894 59.5217 70.3567C59.5217 69.5239 60.1853 68.8426 60.9964 68.8426H68.0059C68.817 68.8426 69.4805 69.524 69.4805 70.3567C69.4805 71.1895 68.817 71.8709 68.0059 71.8709Z" fill="#E9EFFF"/>
<path d="M105.289 70.3567C105.289 69.5239 105.953 68.8426 106.764 68.8426H101.937C101.126 68.8426 100.463 69.524 100.463 70.3567C100.463 71.1894 101.126 71.8709 101.937 71.8709H106.764C105.953 71.8709 105.289 71.1895 105.289 70.3567V70.3567Z" fill="#BEC8F7"/>
<path d="M91.475 70.3567C91.475 69.5239 92.1387 68.8426 92.9497 68.8426H88.1233C87.3122 68.8426 86.6487 69.524 86.6487 70.3567C86.6487 71.1894 87.3124 71.8709 88.1233 71.8709H92.9497C92.1387 71.8709 91.475 71.1895 91.475 70.3567Z" fill="#BEC8F7"/>
<path d="M78.1618 70.3567C78.1618 69.5239 78.8253 68.8426 79.6364 68.8426H74.8101C73.999 68.8426 73.3354 69.524 73.3354 70.3567C73.3354 71.1894 73.9991 71.8709 74.8101 71.8709H79.6364C78.8255 71.8709 78.1618 71.1895 78.1618 70.3567Z" fill="#BEC8F7"/>
<path d="M64.3479 70.3567C64.3479 69.5239 65.0116 68.8426 65.8226 68.8426H60.9964C60.1853 68.8426 59.5217 69.524 59.5217 70.3567C59.5217 71.1894 60.1854 71.8709 60.9964 71.8709H65.8227C65.0115 71.8709 64.3479 71.1895 64.3479 70.3567Z" fill="#BEC8F7"/>
<path d="M114.831 106.736L114.532 106.199C113.596 104.512 114.831 101.61 112.283 97.0201C111.718 96.0032 107.73 88.8199 106.263 86.1776C105.561 84.9125 103.978 84.4676 102.746 85.1888L102.532 85.3135C101.3 86.0347 100.867 87.66 101.569 88.9251L100.71 87.3773C100.027 86.1478 98.5561 85.5785 97.2858 86.1277C95.7717 86.7825 95.1914 88.639 95.981 90.061L95.7112 89.575C95.0285 88.3456 93.5574 87.7762 92.2872 88.3254C90.7731 88.98 90.1927 90.8366 90.9822 92.2587L86.7278 84.5962C86.0452 83.3667 84.5739 82.7974 83.3037 83.3468C81.7896 84.0016 81.2092 85.8581 81.9988 87.2801L89.0996 100.069C89.2395 100.321 89.1486 100.642 88.8984 100.776C88.2523 101.123 87.2653 101.671 86.9864 103.045C86.3756 106.057 87.6077 109.147 90.1003 110.854C92.4105 112.393 89.6041 110.857 98.6082 114.698C99.2091 114.946 99.7108 115.395 100.031 115.973L101.373 118.385C106.758 115.717 111.385 111.689 114.831 106.736V106.736Z" fill="#F9BA8F"/>
<path d="M82.4584 83.8186L83.5523 83.1783C84.1806 82.8105 84.9876 83.0374 85.3458 83.6824L86.5172 85.7921C86.8755 86.4373 86.6544 87.2659 86.0261 87.6337L84.9321 88.2741C84.3039 88.6418 83.4968 88.4149 83.1387 87.7698L81.9672 85.66C81.6091 85.015 81.8301 84.1864 82.4584 83.8186V83.8186Z" fill="#F9DFCD"/>
<path d="M90.7224 105.688C91.3462 105.323 91.5636 104.507 91.208 103.867L89.0998 100.07C89.2397 100.322 89.1488 100.642 88.8986 100.777C88.4054 101.041 87.7144 101.425 87.2905 102.202L88.949 105.189C89.3046 105.83 90.0986 106.053 90.7224 105.688V105.688Z" fill="#FD995B"/>
<path d="M58.0225 98.0909C58.0872 98.9023 58.0138 99.7191 57.8055 100.504L56.8266 103.141C56.5852 103.791 56.3371 104.438 56.0854 105.084C59.0926 109.947 63.1935 114.026 68.0327 116.958L68.7175 114.743C69.4268 112.586 71.3461 110.831 73.3632 109.957C61.4489 109.957 58.0225 98.0909 58.0225 98.0909Z" fill="#FD995B"/>
<path d="M114.831 106.736L114.532 106.199C113.968 105.183 114.191 103.725 113.902 101.724C110.512 114.187 96.6467 113.868 96.6467 113.868C97.2296 114.113 97.8797 114.388 98.6082 114.699C99.2091 114.946 99.7108 115.395 100.032 115.973L101.373 118.386C106.758 115.717 111.385 111.689 114.831 106.736V106.736Z" fill="#FD995B"/>
<path d="M105.944 66.3923C107.923 66.3923 109.655 65.0069 109.655 65.0069C110.443 64.1023 110.923 62.9078 110.923 61.5983C110.923 58.7745 108.694 56.4855 105.944 56.4855C103.194 56.4855 100.964 58.7746 100.964 61.5983C100.964 62.9079 101.444 64.1023 102.233 65.0069C102.233 65.0069 103.965 66.3923 105.944 66.3923V66.3923Z" fill="#FF4155"/>
<path d="M107.494 62.2038C107.494 62.2038 106.765 57.9128 106.196 57.4866C105.65 57.0773 106.069 56.5323 106.103 56.4897C106.05 56.488 105.997 56.4855 105.943 56.4855C103.193 56.4855 100.963 58.7746 100.963 61.5984C100.963 62.9081 101.443 64.1024 102.232 65.0071C102.232 65.0071 103.964 66.3924 105.943 66.3924C107.922 66.3924 109.654 65.0071 109.654 65.0071C110.13 64.4611 110.492 63.809 110.706 63.0903C108.97 63.8764 107.494 62.2038 107.494 62.2038Z" fill="#E80054"/>
<path d="M104.612 64.8115C104.991 65.1144 105.46 65.2788 105.943 65.2788C106.426 65.2788 106.894 65.1142 107.274 64.8115C107.451 64.6709 107.634 64.4977 107.812 64.2941C107.709 64.2603 107.605 64.2291 107.499 64.2017C107.434 64.1851 107.377 64.1451 107.341 64.0922C107.172 63.8476 107.125 63.4693 107.116 63.1951C106.997 63.3368 106.873 63.4552 106.754 63.55C106.278 63.93 105.608 63.9295 105.132 63.55C105.013 63.4554 104.889 63.3368 104.77 63.1951C104.761 63.4754 104.712 63.8644 104.534 64.1083C104.504 64.1499 104.457 64.1839 104.401 64.1983C104.29 64.2265 104.181 64.2587 104.074 64.2941C104.252 64.4976 104.435 64.6708 104.612 64.8115V64.8115Z" fill="#FCAD6D"/>
<path d="M105.936 63.8344C105.652 63.8329 105.368 63.7382 105.132 63.5499C105.013 63.4552 104.889 63.3367 104.77 63.1949C104.761 63.4753 104.712 63.8642 104.534 64.1082C104.503 64.1499 104.456 64.1839 104.4 64.1981C104.289 64.2263 104.181 64.2585 104.074 64.294C104.251 64.4978 104.435 64.671 104.611 64.8115C104.825 64.9822 105.068 65.107 105.325 65.1852C105.734 64.7624 105.883 64.2094 105.936 63.8344V63.8344Z" fill="#FD995B"/>
<path d="M109.217 64.9222C109.066 64.9094 108.986 64.8492 108.807 64.7459C108.466 64.5484 108.114 64.388 107.734 64.2694C107.56 64.4728 107.378 64.6441 107.204 64.7829C106.844 65.0699 106.4 65.2257 105.943 65.2257C105.486 65.2257 105.042 65.0699 104.682 64.7829C104.508 64.6441 104.326 64.4728 104.152 64.2694C103.773 64.3878 103.419 64.549 103.079 64.7459C102.9 64.8492 102.82 64.9094 102.669 64.9222C102.509 64.9356 102.364 64.9646 102.232 65.0069C103.144 66.0529 104.468 66.7112 105.943 66.7112C107.418 66.7112 108.742 66.0529 109.654 65.0069C109.522 64.9648 109.377 64.9356 109.217 64.9222V64.9222Z" fill="#3C58A0"/>
<path d="M105.551 57.4973C104.373 57.662 104.261 58.3478 104.26 58.5993C104.26 58.6522 104.232 58.701 104.185 58.7241C103.573 59.0301 103.903 60.5051 103.903 60.5051C103.964 60.5093 104.057 60.5636 104.105 60.5875C104.116 60.5124 104.136 60.4383 104.163 60.3668C104.184 60.3123 104.209 60.2573 104.242 60.2052C104.298 60.115 104.323 60.0084 104.316 59.902C104.294 59.5942 104.276 59.0166 104.672 58.8338C105.007 58.679 105.418 58.7687 105.68 58.8581C105.851 58.9163 106.035 58.9163 106.205 58.8581C106.467 58.7687 106.878 58.679 107.214 58.8338C107.608 59.016 107.592 59.5908 107.57 59.8993C107.563 60.0066 107.587 60.1142 107.644 60.2052C107.677 60.2589 107.704 60.3158 107.725 60.372C107.751 60.4419 107.769 60.5142 107.781 60.5875C107.841 60.5573 107.956 60.4959 108.03 60.5067C108.039 60.1843 108.068 59.8366 108.068 59.8366C108.417 58.0811 106.819 57.3198 105.551 57.4973V57.4973Z" fill="#2A428C"/>
<path d="M105.551 57.4979C104.373 57.6626 104.261 58.3484 104.26 58.5999C104.26 58.6528 104.232 58.7016 104.185 58.7246C103.573 59.0306 103.903 60.5057 103.903 60.5057C103.964 60.5099 104.057 60.5642 104.105 60.5881C104.116 60.513 104.136 60.4389 104.163 60.3674C104.184 60.3129 104.209 60.2579 104.242 60.2058C104.298 60.1156 104.323 60.009 104.316 59.9026C104.294 59.5948 104.276 59.0172 104.672 58.8344C105.007 58.6796 105.418 58.7693 105.68 58.8587C105.752 58.8832 105.826 58.8967 105.901 58.9006C105.889 58.8804 105.877 58.8605 105.864 58.8408C105.358 58.1115 106.061 57.5801 106.196 57.4872C105.979 57.4651 105.76 57.4685 105.551 57.4979V57.4979Z" fill="#1C2E7A"/>
<path d="M108.134 60.5486C108.042 60.4622 107.86 60.506 107.781 60.5588C107.798 60.6695 107.799 60.7828 107.784 60.8945L107.691 61.5919C107.691 61.6481 107.689 61.7032 107.686 61.7573C107.913 61.8278 108.026 61.6181 108.045 61.4743C108.053 61.4124 108.067 61.3514 108.085 61.2918C108.146 61.098 108.364 60.7648 108.134 60.5486V60.5486Z" fill="#FCAD6D"/>
<path d="M103.751 60.5486C103.843 60.4622 104.026 60.506 104.105 60.5588C104.088 60.6695 104.087 60.7828 104.102 60.8945L104.195 61.5919C104.195 61.6481 104.197 61.7032 104.2 61.7573C103.972 61.8278 103.86 61.6181 103.84 61.4743C103.832 61.4124 103.819 61.3514 103.8 61.2918C103.74 61.098 103.521 60.7648 103.751 60.5486V60.5486Z" fill="#FD995B"/>
<path d="M107.752 60.3434C107.731 60.2871 107.705 60.2301 107.672 60.1766C107.615 60.0856 107.59 59.978 107.598 59.8707C107.62 59.5622 107.608 58.9588 107.214 58.7765C106.878 58.6217 106.467 58.7114 106.205 58.8009C106.035 58.859 105.851 58.859 105.68 58.8009C105.418 58.7114 105.007 58.6217 104.672 58.7765C104.276 58.9592 104.266 59.5656 104.288 59.8734C104.295 59.9798 104.27 60.0863 104.214 60.1766C104.182 60.2286 104.156 60.2837 104.135 60.3382C104.068 60.5149 104.048 60.7067 104.074 60.8944L104.167 61.5919C104.167 62.5946 104.688 63.2761 105.132 63.6296C105.363 63.8141 105.649 63.9144 105.943 63.9144C106.237 63.9144 106.523 63.8142 106.754 63.6296C107.197 63.2761 107.719 62.5945 107.719 61.5919L107.812 60.8945C107.837 60.7087 107.818 60.5188 107.752 60.3434V60.3434Z" fill="#F9BA8F"/>
<path d="M106.427 63.6296C105.983 63.2761 105.462 62.5945 105.462 61.5919L105.369 60.8944C105.343 60.7067 105.363 60.5149 105.43 60.3382C105.451 60.2837 105.477 60.2286 105.509 60.1766C105.565 60.0863 105.59 59.9798 105.583 59.8734C105.563 59.5951 105.57 59.0729 105.864 58.8402C105.802 58.8341 105.74 58.8213 105.68 58.8009C105.418 58.7114 105.007 58.6217 104.672 58.7765C104.276 58.9592 104.266 59.5656 104.288 59.8734C104.295 59.9798 104.27 60.0863 104.214 60.1766C104.182 60.2286 104.156 60.2837 104.135 60.3382C104.068 60.5149 104.048 60.7067 104.074 60.8944L104.167 61.5919C104.167 62.5946 104.688 63.2761 105.131 63.6296C105.363 63.8141 105.649 63.9144 105.943 63.9144C106.171 63.9144 106.394 63.8538 106.59 63.7407C106.533 63.7079 106.479 63.6711 106.427 63.6296Z" fill="#FCAD6D"/>
<path d="M104.682 64.7829C104.508 64.6441 104.326 64.4728 104.152 64.2695C103.773 64.388 103.419 64.5491 103.079 64.7461C102.9 64.8493 102.82 64.9096 102.669 64.9224C102.509 64.9357 102.364 64.9649 102.232 65.0071C102.622 65.455 103.089 65.831 103.61 66.1155C103.805 65.9509 104.077 65.8013 104.459 65.6936C104.859 65.5808 105.152 65.3788 105.369 65.1402C105.121 65.0665 104.887 64.9468 104.682 64.7829Z" fill="#2A428C"/>
<path d="M78.3151 66.3923C80.294 66.3923 82.0261 65.0069 82.0261 65.0069C82.8148 64.1023 83.2946 62.9078 83.2946 61.5983C83.2946 58.7745 81.0652 56.4855 78.3151 56.4855C75.5649 56.4855 73.3357 58.7746 73.3357 61.5983C73.3357 62.9079 73.8155 64.1023 74.6041 65.0069C74.6041 65.0069 76.3362 66.3923 78.3151 66.3923V66.3923Z" fill="#9181F2"/>
<path d="M79.8658 62.2038C79.8658 62.2038 79.1375 57.9128 78.5686 57.4866C78.0223 57.0773 78.4411 56.5323 78.4752 56.4897C78.4219 56.488 78.3688 56.4855 78.3151 56.4855C75.5649 56.4855 73.3357 58.7746 73.3357 61.5984C73.3357 62.9081 73.8154 64.1024 74.6041 65.0071C74.6041 65.0071 76.3362 66.3924 78.3152 66.3924C80.2941 66.3924 82.0262 65.0071 82.0262 65.0071C82.5022 64.4611 82.8646 63.809 83.078 63.0903C81.342 63.8764 79.8658 62.2038 79.8658 62.2038Z" fill="#816AE2"/>
<path d="M76.9838 64.8115C77.3636 65.1144 77.8323 65.2788 78.3152 65.2788C78.798 65.2788 79.2667 65.1142 79.6466 64.8115C79.823 64.6709 80.0067 64.4977 80.184 64.2941C80.0817 64.2603 79.9776 64.2291 79.871 64.2017C79.8064 64.1851 79.7497 64.1451 79.713 64.0922C79.544 63.8476 79.4973 63.4693 79.4881 63.1951C79.3696 63.3368 79.2453 63.4552 79.1265 63.55C78.65 63.93 77.9799 63.9295 77.504 63.55C77.3852 63.4554 77.2609 63.3368 77.1424 63.1951C77.133 63.4754 77.0843 63.8644 76.906 64.1083C76.8757 64.1499 76.8287 64.1839 76.7726 64.1983C76.6616 64.2265 76.5531 64.2587 76.4463 64.2941C76.6238 64.4976 76.8075 64.6708 76.9838 64.8115V64.8115Z" fill="#FCAD6D"/>
<path d="M78.3087 63.8344C78.0243 63.8329 77.7401 63.7382 77.504 63.5499C77.3852 63.4552 77.2609 63.3367 77.1424 63.1949C77.133 63.4753 77.0843 63.8642 76.906 64.1082C76.8757 64.1499 76.8287 64.1839 76.7726 64.1981C76.6618 64.2263 76.5531 64.2585 76.4463 64.294C76.6236 64.4978 76.8073 64.671 76.9837 64.8115C77.1976 64.9822 77.4404 65.107 77.6974 65.1852C78.1065 64.7624 78.2554 64.2094 78.3087 63.8344V63.8344Z" fill="#FD995B"/>
<path d="M81.5895 64.9222C81.4382 64.9094 81.3577 64.8492 81.1793 64.7459C80.8382 64.5484 80.486 64.388 80.1063 64.2694C79.9319 64.4728 79.7502 64.6441 79.5763 64.7829C79.2164 65.0699 78.7724 65.2257 78.315 65.2257C77.8577 65.2257 77.4135 65.0699 77.0538 64.7829C76.8798 64.6441 76.6983 64.4728 76.5238 64.2694C76.1453 64.3878 75.7908 64.549 75.4508 64.7459C75.2725 64.8492 75.192 64.9094 75.0406 64.9222C74.8814 64.9356 74.7364 64.9646 74.604 65.0069C75.5159 66.0529 76.8405 66.7112 78.3151 66.7112C79.7898 66.7112 81.1144 66.0529 82.0263 65.0069C81.8939 64.9648 81.7488 64.9356 81.5895 64.9222Z" fill="#3C58A0"/>
<path d="M77.9228 57.4973C76.7449 57.662 76.633 58.3478 76.6324 58.5993C76.6323 58.6522 76.6038 58.701 76.5576 58.7241C75.9449 59.0301 76.2752 60.5051 76.2752 60.5051C76.3367 60.5093 76.4289 60.5636 76.4771 60.5875C76.4888 60.5124 76.508 60.4383 76.5352 60.3668C76.5558 60.3123 76.5817 60.2573 76.6139 60.2052C76.67 60.115 76.6955 60.0084 76.6879 59.902C76.666 59.5942 76.6486 59.0166 77.0442 58.8338C77.3794 58.679 77.7904 58.7687 78.0526 58.8581C78.2229 58.9163 78.4073 58.9163 78.5775 58.8581C78.8397 58.7687 79.2508 58.679 79.5859 58.8338C79.9804 59.016 79.9642 59.5908 79.9425 59.8993C79.935 60.0066 79.9597 60.1142 80.0162 60.2052C80.0496 60.2589 80.076 60.3158 80.097 60.372C80.123 60.4419 80.1417 60.5142 80.1531 60.5875C80.2136 60.5573 80.3281 60.4959 80.4021 60.5067C80.4112 60.1843 80.4401 59.8366 80.4401 59.8366C80.7892 58.0811 79.1911 57.3198 77.9228 57.4973V57.4973Z" fill="#2A428C"/>
<path d="M77.9228 57.4979C76.7449 57.6626 76.633 58.3484 76.6324 58.5999C76.6323 58.6528 76.6038 58.7016 76.5576 58.7246C75.9449 59.0306 76.2752 60.5057 76.2752 60.5057C76.3367 60.5099 76.4289 60.5642 76.4771 60.5881C76.4888 60.513 76.508 60.4389 76.5352 60.3674C76.5558 60.3129 76.5817 60.2579 76.6139 60.2058C76.67 60.1156 76.6955 60.009 76.6879 59.9026C76.666 59.5948 76.6486 59.0172 77.0442 58.8344C77.3794 58.6796 77.7904 58.7693 78.0526 58.8587C78.1243 58.8832 78.1986 58.8967 78.2732 58.9006C78.2617 58.8804 78.2496 58.8605 78.2359 58.8408C77.7306 58.1115 78.433 57.5801 78.5686 57.4872C78.3512 57.4651 78.1325 57.4685 77.9228 57.4979V57.4979Z" fill="#1C2E7A"/>
<path d="M80.5067 60.5486C80.4149 60.4622 80.2322 60.506 80.1532 60.5588C80.1705 60.6695 80.1715 60.7828 80.1565 60.8945L80.0633 61.5919C80.0633 61.6481 80.0615 61.7032 80.0583 61.7573C80.2857 61.8278 80.3987 61.6181 80.4177 61.4743C80.4259 61.4124 80.4392 61.3514 80.4578 61.2918C80.5182 61.098 80.7365 60.7648 80.5067 60.5486V60.5486Z" fill="#FCAD6D"/>
<path d="M76.1237 60.5486C76.2155 60.4622 76.3981 60.506 76.4772 60.5588C76.4599 60.6695 76.4588 60.7828 76.4739 60.8945L76.5671 61.5919C76.5671 61.6481 76.5688 61.7032 76.572 61.7573C76.3447 61.8278 76.2318 61.6181 76.2127 61.4743C76.2045 61.4124 76.1912 61.3514 76.1725 61.2918C76.112 61.098 75.8939 60.7648 76.1237 60.5486V60.5486Z" fill="#FD995B"/>
<path d="M80.1248 60.3434C80.1038 60.2871 80.0774 60.2301 80.044 60.1766C79.9875 60.0856 79.9626 59.978 79.9703 59.8707C79.9921 59.5622 79.9804 58.9588 79.5859 58.7765C79.2508 58.6217 78.8397 58.7114 78.5776 58.8009C78.4073 58.859 78.2229 58.859 78.0526 58.8009C77.7904 58.7114 77.3794 58.6217 77.0442 58.7765C76.6486 58.9592 76.6381 59.5656 76.6601 59.8734C76.6677 59.9798 76.6421 60.0863 76.5861 60.1766C76.5538 60.2286 76.528 60.2837 76.5073 60.3382C76.4402 60.5149 76.4207 60.7067 76.4459 60.8944L76.5391 61.5919C76.5391 62.5946 77.0604 63.2761 77.5038 63.6296C77.7352 63.8141 78.0208 63.9144 78.3151 63.9144C78.6092 63.9144 78.8949 63.8142 79.1263 63.6296C79.5698 63.2761 80.0911 62.5945 80.0911 61.5919L80.1843 60.8945C80.2092 60.7087 80.1902 60.5188 80.1248 60.3434V60.3434Z" fill="#F9BA8F"/>
<path d="M78.7991 63.6296C78.3557 63.2761 77.8343 62.5945 77.8343 61.5919L77.7411 60.8944C77.716 60.7067 77.7355 60.5149 77.8025 60.3382C77.8232 60.2837 77.8491 60.2286 77.8813 60.1766C77.9374 60.0863 77.9628 59.9798 77.9553 59.8734C77.9354 59.5951 77.9423 59.0729 78.2361 58.8402C78.1741 58.8341 78.1126 58.8213 78.0529 58.8009C77.7907 58.7114 77.3796 58.6217 77.0445 58.7765C76.6489 58.9592 76.6383 59.5656 76.6603 59.8734C76.668 59.9798 76.6424 60.0863 76.5863 60.1766C76.5541 60.2286 76.5282 60.2837 76.5075 60.3382C76.4405 60.5149 76.421 60.7067 76.4461 60.8944L76.5393 61.5919C76.5393 62.5946 77.0607 63.2761 77.5039 63.6296C77.7353 63.8141 78.0211 63.9144 78.3152 63.9144C78.5433 63.9144 78.7661 63.8538 78.9627 63.7407C78.9057 63.7079 78.851 63.6711 78.7991 63.6296Z" fill="#FCAD6D"/>
<path d="M77.0538 64.7829C76.8798 64.6441 76.6983 64.4728 76.5238 64.2695C76.1453 64.388 75.7908 64.5491 75.4508 64.7461C75.2725 64.8493 75.192 64.9096 75.0406 64.9224C74.8814 64.9357 74.7364 64.9649 74.604 65.0071C74.9944 65.455 75.4611 65.831 75.9823 66.1155C76.1771 65.9509 76.4495 65.8013 76.8312 65.6936C77.231 65.5808 77.5244 65.3788 77.7405 65.1402C77.493 65.0665 77.2595 64.9468 77.0538 64.7829Z" fill="#2A428C"/>
<path d="M92.1295 66.5006C94.2182 66.5006 95.8547 64.9918 95.8547 64.9918C96.6349 64.0892 97.1089 62.9012 97.1089 61.5995C97.1089 58.7757 94.8795 56.4867 92.1295 56.4867C89.3795 56.4867 87.1501 58.7758 87.1501 61.5995C87.1501 62.9012 87.6242 64.0892 88.4045 64.9918C88.4045 64.9919 90.0411 66.5006 92.1295 66.5006Z" fill="#FFDD40"/>
<path d="M94.6103 62.7426C94.6103 62.7426 91.7176 58.2993 90.5672 58.2993C89.7017 58.2993 89.5695 57.5783 89.557 57.2211C88.1145 58.1166 87.1501 59.7423 87.1501 61.5996C87.1501 62.9014 87.6242 64.0894 88.4045 64.9919C88.4047 64.9921 90.0411 66.5006 92.1297 66.5006C94.2183 66.5006 95.8548 64.9919 95.8548 64.9919C96.2839 64.4954 96.6198 63.9123 96.8358 63.2717C95.4652 64.0058 94.6103 62.7426 94.6103 62.7426V62.7426Z" fill="#FFB332"/>
<path d="M93.9577 60.8531C93.962 61.0979 93.9385 61.3485 93.913 61.5158C93.7928 62.0601 93.619 62.534 93.3969 62.9244C93.2962 63.1013 93.1706 63.2623 93.0234 63.4026L93.0046 63.4205V63.5425C93.0046 63.6689 93.0525 63.7857 93.1339 63.8933C93.5897 63.865 93.9772 63.7703 94.2826 63.6623C94.6503 63.5323 94.8113 63.0847 94.6104 62.7428C94.1373 61.9377 94.2079 60.8531 94.2079 60.8531H93.9577Z" fill="#2A428C"/>
<path d="M94.6102 62.7426C94.5659 62.667 94.5263 62.5891 94.491 62.5097C93.9405 62.8377 93.7205 62.3731 93.7205 62.3731C93.7205 62.3731 93.7063 62.3517 93.6802 62.3118C93.5969 62.5338 93.5024 62.7386 93.3969 62.9241C93.2962 63.101 93.1706 63.262 93.0234 63.4022L93.0046 63.4202V63.5422C93.0046 63.6685 93.0525 63.7854 93.1339 63.893C93.5897 63.8647 93.9772 63.77 94.2826 63.6619C94.6501 63.5321 94.8111 63.0845 94.6102 62.7426V62.7426Z" fill="#1C2E7A"/>
<path d="M89.9768 63.6621C90.2822 63.7701 90.6697 63.8648 91.1256 63.8932C91.2069 63.7856 91.2548 63.6686 91.2548 63.5423V63.3926L91.2367 63.3748C91.102 63.2414 90.9861 63.0897 90.8919 62.9244C90.6696 62.5338 90.496 62.0601 90.3759 61.5163C90.3496 61.3587 90.3259 61.1039 90.3311 60.8533H90.0514C90.0514 60.8533 90.1219 61.9378 89.6489 62.7429C89.4483 63.0845 89.6093 63.5321 89.9768 63.6621V63.6621Z" fill="#1C2E7A"/>
<path d="M93.2125 57.7276C92.9291 57.5774 92.5767 57.4733 92.1444 57.4733C91.7121 57.4733 91.3598 57.5774 91.0763 57.7276C90.456 58.0562 90.0737 58.7089 90.0737 59.4129V60.2815V60.2818C90.1716 60.2794 90.2798 60.3124 90.3495 60.3601C90.3752 60.2738 90.4103 60.1991 90.4579 60.1441C90.5007 60.0945 90.5276 60.0334 90.5294 59.9678C90.5367 59.717 90.6008 59.1244 91.0308 58.8976C91.1506 58.8344 91.297 58.8826 91.3642 59.0024C91.6232 59.4635 92.2275 60.0712 93.5712 59.8122C93.6665 59.7938 93.7561 59.8667 93.759 59.9661V59.9676C93.7609 60.0331 93.7877 60.0944 93.8305 60.1439C93.8781 60.199 93.9132 60.2736 93.9389 60.36C94.0086 60.3122 94.1168 60.2794 94.2147 60.2816V60.2813V59.4127C94.2151 58.7089 93.8328 58.0563 93.2125 57.7276Z" fill="#2A428C"/>
<path d="M92.1186 59.6575C91.4526 58.3511 92.7039 57.5371 92.7039 57.5371C92.5344 57.4969 92.3484 57.4734 92.1444 57.4734C91.7121 57.4734 91.3598 57.5776 91.0763 57.7278C90.456 58.0564 90.0737 58.7091 90.0737 59.4131V60.2817V60.282C90.1716 60.2796 90.2798 60.3125 90.3495 60.3603C90.3752 60.274 90.4103 60.1993 90.4579 60.1443C90.5007 60.0947 90.5276 60.0335 90.5294 59.968C90.5367 59.7171 90.6008 59.1246 91.0308 58.8978C91.1506 58.8346 91.297 58.8828 91.3642 59.0026C91.5043 59.2519 91.7455 59.5438 92.1496 59.7186C92.1394 59.6982 92.129 59.6778 92.1186 59.6575V59.6575Z" fill="#1C2E7A"/>
<path d="M90.3325 61.5247C90.3325 61.5247 90.2202 60.7948 90.3496 60.3601C90.2322 60.2799 90.0055 60.2405 89.9034 60.3429C89.6946 60.5525 89.8476 60.869 89.9208 61.0691C89.9432 61.1305 89.9578 61.1925 89.9643 61.2547C89.9786 61.3899 90.0498 61.5877 90.3458 61.583C90.3415 61.5637 90.337 61.5444 90.3325 61.5247V61.5247Z" fill="#FD995B"/>
<path d="M94.3854 60.3429C94.2833 60.2405 94.0566 60.2797 93.9392 60.3602C94.0686 60.7948 93.9563 61.5247 93.9563 61.5247C93.9519 61.5444 93.9473 61.5637 93.9428 61.5831C94.2388 61.5877 94.3102 61.3899 94.3244 61.2549C94.3309 61.1927 94.3455 61.1305 94.3679 61.0692C94.4412 60.8692 94.5942 60.5526 94.3854 60.3429V60.3429Z" fill="#FCAD6D"/>
<path d="M90.26 64.4897C90.5911 65.0716 91.0925 65.5241 91.7101 65.7984C91.9867 65.9212 92.3038 65.9212 92.5803 65.7984C93.1977 65.5241 93.6992 65.0715 94.0304 64.4897C94.0429 64.4676 94.0549 64.4446 94.0669 64.4219C93.5472 64.217 93.0635 63.9251 93.0635 63.5426C93.0635 63.4094 93.0635 63.4493 93.0635 63.3631C92.8371 63.5708 92.4492 63.8354 92.1296 63.8433C91.8101 63.8354 91.422 63.5707 91.1958 63.3631C91.1958 63.6108 91.2599 63.9089 90.5016 64.287C90.4122 64.3315 90.3166 64.3735 90.2185 64.4127C90.2321 64.4384 90.2458 64.4647 90.26 64.4897V64.4897Z" fill="#FCAD6D"/>
<path d="M92.1216 63.8427C91.8035 63.8307 91.42 63.5691 91.1956 63.3631C91.1956 63.6108 91.2596 63.9089 90.5014 64.287C90.4119 64.3315 90.3164 64.3735 90.2183 64.4127C90.232 64.4387 90.2456 64.4648 90.2599 64.4899C90.5511 65.0017 90.9743 65.4134 91.4923 65.6918C91.9301 65.0663 92.0748 64.3189 92.1216 63.8427V63.8427Z" fill="#FD995B"/>
<path d="M95.3158 64.7848C95.2451 64.7652 94.5739 64.634 93.9823 64.3873C93.965 64.4194 93.9481 64.4525 93.9303 64.4838C93.6167 65.035 93.1416 65.4637 92.5565 65.7236C92.2945 65.8399 91.994 65.8399 91.732 65.7236C91.1469 65.4637 90.6718 65.035 90.3582 64.4838C90.3387 64.4495 90.3203 64.4135 90.3013 64.3783C89.695 64.6349 88.9464 64.7839 88.9433 64.7848C88.8152 64.81 88.6155 64.8673 88.4043 64.9918C89.3164 66.0471 90.6471 66.7122 92.1294 66.7122C93.6118 66.7122 94.9425 66.0469 95.8546 64.9918C95.6434 64.8673 95.4438 64.81 95.3158 64.7848V64.7848Z" fill="#FC90CE"/>
<path d="M93.774 59.9673C93.773 59.9354 93.7711 59.8968 93.7675 59.8538C93.7565 59.8376 93.7437 59.8228 93.7284 59.8102C93.682 59.7719 93.6217 59.7564 93.5633 59.7677C92.282 60.0147 91.6812 59.4755 91.4027 58.9798C91.3518 58.8893 91.2637 58.8347 91.1703 58.8258C91.0912 58.8484 91.0185 58.8821 90.9526 58.9272C90.5771 59.1839 90.5214 59.7401 90.5147 59.9675C90.513 60.0271 90.4896 60.0849 90.4469 60.1341C90.2118 60.4061 90.2632 61.2008 90.3181 61.5281C90.4396 62.0786 90.6156 62.5586 90.8411 62.9548C91.07 63.3571 91.4166 63.67 91.8435 63.8596C92.0347 63.9445 92.254 63.9445 92.4452 63.8596C92.8722 63.67 93.2189 63.3571 93.4477 62.9548C93.6732 62.5587 93.849 62.0786 93.9709 61.527C94.0236 61.183 94.0797 60.4091 93.842 60.1341C93.7993 60.0847 93.7758 60.027 93.774 59.9673V59.9673Z" fill="#F9BA8F"/>
<path d="M92.4124 62.9548C92.1869 62.5586 92.011 62.0785 91.8895 61.5281C91.8346 61.2008 91.7831 60.4061 92.0183 60.1341C92.0609 60.0847 92.0845 60.0271 92.0862 59.9675C92.0884 59.8925 92.096 59.7817 92.1186 59.6576C91.7668 59.492 91.5435 59.2305 91.4027 58.9798C91.3518 58.8893 91.2638 58.8347 91.1703 58.8258C91.0912 58.8484 91.0185 58.8821 90.9526 58.9272C90.5771 59.1839 90.5214 59.7401 90.5147 59.9675C90.513 60.0271 90.4896 60.0849 90.4469 60.1341C90.2118 60.4061 90.2632 61.2008 90.3181 61.5281C90.4396 62.0786 90.6156 62.5586 90.8411 62.9548C91.07 63.3571 91.4166 63.67 91.8435 63.8596C92.0347 63.9445 92.254 63.9445 92.4452 63.8596C92.6215 63.7813 92.7838 63.6817 92.9301 63.5639C92.7221 63.396 92.5468 63.1909 92.4124 62.9548V62.9548Z" fill="#FCAD6D"/>
<path d="M91.5357 65.6275C91.0405 65.3637 90.636 64.9719 90.3582 64.4838C90.3387 64.4495 90.3203 64.4135 90.3013 64.3783C89.695 64.6349 88.9464 64.7839 88.9433 64.7848C88.8152 64.81 88.6155 64.8673 88.4043 64.9918C88.9927 65.6725 89.7555 66.1906 90.6205 66.4728C91.0218 66.2578 91.3178 65.9576 91.5357 65.6275Z" fill="#F964B2"/>
<path d="M64.5011 66.4988C66.5897 66.4988 68.2263 64.9902 68.2263 64.9902C69.0064 64.0876 69.4807 62.8996 69.4807 61.5978C69.4807 58.774 67.2513 56.4851 64.5011 56.4851C61.751 56.4851 59.5217 58.7742 59.5217 61.5978C59.5217 62.8996 59.9958 64.0876 60.7761 64.9902C60.776 64.9902 62.4125 66.4988 64.5011 66.4988Z" fill="#4CE088"/>
<path d="M66.9819 62.7408C66.9819 62.7408 64.0892 58.2975 62.9387 58.2975C62.0731 58.2975 61.941 57.5766 61.9286 57.2194C60.486 58.1148 59.5217 59.7406 59.5217 61.5978C59.5217 62.8996 59.9958 64.0876 60.7761 64.9902C60.7761 64.9902 62.4126 66.4988 64.5013 66.4988C66.5899 66.4988 68.2264 64.9902 68.2264 64.9902C68.6555 64.4936 68.9914 63.9105 69.2073 63.2699C67.8368 64.004 66.9819 62.7408 66.9819 62.7408V62.7408Z" fill="#30C16B"/>
<path d="M66.3293 60.8514C66.3336 61.0961 66.31 61.3467 66.2846 61.514C66.1643 62.0583 65.9906 62.5323 65.7685 62.9226C65.6677 63.0997 65.5421 63.2605 65.395 63.4008L65.3762 63.4187V63.5407C65.3762 63.667 65.4241 63.784 65.5054 63.8916C65.9613 63.8632 66.3488 63.7685 66.6542 63.6605C67.0219 63.5305 67.1827 63.0829 66.982 62.7411C66.5089 61.9361 66.5794 60.8515 66.5794 60.8515H66.3293V60.8514Z" fill="#2A428C"/>
<path d="M66.9818 62.7408C66.9374 62.6653 66.8978 62.5874 66.8626 62.508C66.3121 62.836 66.0921 62.3713 66.0921 62.3713C66.0921 62.3713 66.0779 62.3499 66.0518 62.31C65.9685 62.532 65.8741 62.7368 65.7685 62.9223C65.6677 63.0994 65.5421 63.2603 65.395 63.4005L65.3762 63.4184V63.5404C65.3762 63.6667 65.4241 63.7837 65.5054 63.8913C65.9613 63.8629 66.3488 63.7682 66.6542 63.6602C67.0217 63.5303 67.1827 63.0828 66.9818 62.7408V62.7408Z" fill="#1C2E7A"/>
<path d="M62.3484 63.6603C62.6538 63.7684 63.0413 63.8632 63.4972 63.8914C63.5785 63.7838 63.6264 63.6669 63.6264 63.5406V63.3908L63.6083 63.373C63.4736 63.2396 63.3577 63.088 63.2635 62.9226C63.0412 62.532 62.8676 62.0583 62.7475 61.5146C62.7212 61.357 62.6973 61.1022 62.7027 60.8515H62.423C62.423 60.8515 62.4935 61.9361 62.0205 62.7411C61.8199 63.0828 61.9807 63.5303 62.3484 63.6603V63.6603Z" fill="#1C2E7A"/>
<path d="M65.5839 57.726C65.3004 57.5758 64.9481 57.4716 64.5158 57.4716C64.0835 57.4716 63.7311 57.5758 63.4477 57.726C62.8274 58.0546 62.4451 58.7072 62.4451 59.4113V60.2799V60.2802C62.5429 60.2778 62.6512 60.3107 62.7208 60.3585C62.7466 60.2722 62.7817 60.1975 62.8292 60.1424C62.872 60.0929 62.8989 60.0316 62.9008 59.9661C62.908 59.7153 62.9722 59.1228 63.4022 58.896C63.522 58.8328 63.6684 58.881 63.7356 59.0008C63.9946 59.4619 64.5989 60.0696 65.9426 59.8106C66.0378 59.7922 66.1274 59.8651 66.1305 59.9645V59.966C66.1323 60.0314 66.1592 60.0927 66.202 60.1423C66.2496 60.1974 66.2847 60.272 66.3104 60.3584C66.3801 60.3106 66.4883 60.2776 66.5862 60.28V60.2797V59.4111C66.5866 58.7071 66.2043 58.0546 65.5839 57.726Z" fill="#2A428C"/>
<path d="M64.4901 59.6557C63.8241 58.3493 65.0755 57.5353 65.0755 57.5353C64.906 57.4951 64.7201 57.4716 64.516 57.4716C64.0837 57.4716 63.7314 57.5758 63.4479 57.726C62.8276 58.0546 62.4453 58.7072 62.4453 59.4113V60.2799V60.2802C62.5432 60.2778 62.6514 60.3107 62.7211 60.3585C62.7468 60.2722 62.7819 60.1975 62.8295 60.1424C62.8723 60.0929 62.8991 60.0316 62.901 59.9661C62.9082 59.7153 62.9724 59.1228 63.4024 58.896C63.5222 58.8328 63.6686 58.881 63.7358 59.0008C63.8759 59.2501 64.1171 59.542 64.5212 59.7168C64.511 59.6964 64.5005 59.676 64.4901 59.6557V59.6557Z" fill="#1C2E7A"/>
<path d="M62.7041 61.5229C62.7041 61.5229 62.5918 60.793 62.7212 60.3584C62.6038 60.2781 62.377 60.2388 62.275 60.3412C62.0662 60.5507 62.2192 60.8672 62.2924 61.0673C62.3149 61.1287 62.3294 61.1908 62.3359 61.2529C62.3502 61.3881 62.4214 61.586 62.7174 61.5812C62.7131 61.5619 62.7086 61.5426 62.7041 61.5229V61.5229Z" fill="#FD995B"/>
<path d="M66.757 60.3412C66.6549 60.2388 66.4281 60.278 66.3108 60.3584C66.4401 60.7931 66.3278 61.5229 66.3278 61.5229C66.3235 61.5426 66.3189 61.5619 66.3144 61.5814C66.6104 61.586 66.6818 61.3882 66.696 61.2531C66.7025 61.1909 66.7171 61.1287 66.7395 61.0675C66.8127 60.8674 66.9658 60.5509 66.757 60.3412V60.3412Z" fill="#FCAD6D"/>
<path d="M62.6316 64.488C62.9627 65.0699 63.4641 65.5224 64.0817 65.7966C64.3583 65.9195 64.6754 65.9195 64.9519 65.7966C65.5693 65.5222 66.0708 65.0697 66.402 64.488C66.4145 64.4659 66.4265 64.4429 66.4385 64.42C65.9188 64.2151 65.435 63.9232 65.435 63.5407C65.435 63.4075 65.435 63.4474 65.435 63.3612C65.2088 63.5689 64.8208 63.8335 64.5012 63.8414C64.1817 63.8334 63.7936 63.5688 63.5674 63.3612C63.5674 63.6089 63.6314 63.907 62.8732 64.2851C62.7838 64.3297 62.6882 64.3716 62.5901 64.4108C62.6037 64.4366 62.6174 64.4629 62.6316 64.488V64.488Z" fill="#FCAD6D"/>
<path d="M64.4932 63.841C64.1751 63.8289 63.7916 63.5673 63.5672 63.3613C63.5672 63.609 63.6312 63.9072 62.873 64.2853C62.7835 64.3298 62.688 64.3718 62.5898 64.411C62.6036 64.437 62.6172 64.4631 62.6315 64.4882C62.9227 65 63.3459 65.4117 63.8639 65.6901C64.3015 65.0645 64.4463 64.3172 64.4932 63.841V63.841Z" fill="#FD995B"/>
<path d="M67.6872 64.783C67.6165 64.7634 66.9453 64.6322 66.3538 64.3856C66.3364 64.4176 66.3197 64.4507 66.3017 64.482C65.9881 65.0332 65.513 65.4619 64.928 65.7218C64.6659 65.8381 64.3656 65.8381 64.1036 65.7218C63.5185 65.4619 63.0434 65.0332 62.7298 64.482C62.7103 64.4478 62.6919 64.4117 62.6729 64.3765C62.0664 64.6331 61.318 64.7821 61.3148 64.783C61.1868 64.8082 60.987 64.8655 60.7759 64.99C61.688 66.0453 63.0187 66.7105 64.501 66.7105C65.9833 66.7105 67.314 66.0452 68.2262 64.99C68.0149 64.8655 67.8153 64.8082 67.6872 64.783V64.783Z" fill="#FC90CE"/>
<path d="M66.1456 59.9655C66.1446 59.9336 66.1427 59.8951 66.1391 59.852C66.1281 59.8358 66.1151 59.821 66.0999 59.8084C66.0535 59.7701 65.9933 59.7547 65.9349 59.7658C64.6536 60.0127 64.0528 59.4736 63.7743 58.9779C63.7234 58.8874 63.6352 58.8328 63.5419 58.8239C63.4628 58.8464 63.3901 58.8801 63.3242 58.9252C62.9487 59.182 62.8929 59.7382 62.8863 59.9655C62.8846 60.0252 62.8611 60.0829 62.8185 60.1322C62.5834 60.4042 62.6348 61.1989 62.6897 61.5261C62.8111 62.0767 62.9872 62.5567 63.2126 62.9529C63.4416 63.3552 63.7882 63.668 64.2151 63.8577C64.4063 63.9426 64.6256 63.9426 64.8168 63.8577C65.2437 63.668 65.5905 63.3552 65.8193 62.9529C66.0447 62.5568 66.2206 62.0767 66.3425 61.5251C66.3952 61.1811 66.4513 60.4073 66.2134 60.1322C66.1709 60.0829 66.1473 60.0252 66.1456 59.9655V59.9655Z" fill="#F9BA8F"/>
<path d="M64.7839 62.9531C64.5584 62.5568 64.3824 62.0768 64.261 61.5263C64.206 61.1991 64.1546 60.4044 64.3897 60.1324C64.4324 60.0831 64.4559 60.0254 64.4575 59.9657C64.4597 59.8908 64.4674 59.7799 64.4899 59.6559C64.1381 59.4902 63.9148 59.2288 63.774 58.9781C63.7232 58.8876 63.635 58.833 63.5416 58.8241C63.4626 58.8466 63.3899 58.8803 63.324 58.9254C62.9485 59.1822 62.8927 59.7384 62.886 59.9657C62.8843 60.0254 62.8609 60.0831 62.8183 60.1324C62.5831 60.4044 62.6346 61.1991 62.6895 61.5263C62.8109 62.0769 62.9869 62.5568 63.2124 62.9531C63.4413 63.3554 63.7879 63.6682 64.2149 63.8579C64.4061 63.9428 64.6253 63.9428 64.8165 63.8579C64.9927 63.7795 65.1552 63.6799 65.3014 63.5621C65.0936 63.3943 64.9183 63.1892 64.7839 62.9531V62.9531Z" fill="#FCAD6D"/>
<path d="M63.9073 65.6258C63.4121 65.3619 63.0076 64.9701 62.7298 64.482C62.7103 64.4478 62.6919 64.4117 62.6729 64.3765C62.0664 64.6331 61.318 64.7821 61.3148 64.783C61.1868 64.8082 60.987 64.8655 60.7759 64.99C61.3643 65.6707 62.1271 66.1888 62.9921 66.4711C63.3933 66.2561 63.6893 65.9558 63.9073 65.6258V65.6258Z" fill="#F964B2"/>
</g>
<defs>
<filter id="filter0_d" x="-1" y="0" width="174" height="175.982" filterUnits="userSpaceOnUse" color-interpolation-filters="sRGB">
<feFlood flood-opacity="0" result="BackgroundImageFix"/>
<feColorMatrix in="SourceAlpha" type="matrix" values="0 0 0 0 0 0 0 0 0 0 0 0 0 0 0 0 0 0 127 0"/>
<feOffset dy="4"/>
<feGaussianBlur stdDeviation="25"/>
<feColorMatrix type="matrix" values="0 0 0 0 0 0 0 0 0 0 0 0 0 0 0 0 0 0 0.15 0"/>
<feBlend mode="normal" in2="BackgroundImageFix" result="effect1_dropShadow"/>
<feBlend mode="normal" in="SourceGraphic" in2="effect1_dropShadow" result="shape"/>
</filter>
<linearGradient id="paint0_linear" x1="86" y1="49.2644" x2="128.82" y2="49.4072" gradientUnits="userSpaceOnUse">
<stop stop-color="#FF415B"/>
<stop stop-color="#B40042"/>
</linearGradient>
<clipPath id="clip0">
<rect width="74" height="75.9821" fill="white" transform="translate(49 46)"/>
</clipPath>
</defs>
</svg>
