<svg width="181" height="162" viewBox="0 0 181 162" fill="none" xmlns="http://www.w3.org/2000/svg">
<g clip-path="url(#clip0)" filter="url(#filter0_d)">
<path d="M116.706 51.9836V89.6961H83.3529V46.1667H110.339C113.85 46.1667 116.706 48.7755 116.706 51.9836Z" fill="#B40042"/>
<path d="M83.3529 46.1667V89.6961H56.3672C52.8556 89.6961 50 87.0872 50 83.8791V51.9836C50 48.7755 52.8556 46.1667 56.3672 46.1667H83.3529Z" fill="#FF415B"/>
<path d="M70.2255 59.2255H63.9215C61.4996 59.2255 59.5294 61.0254 59.5294 63.238V68.2718C59.5294 70.4844 61.4996 72.2843 63.9215 72.2843H70.2255C72.6474 72.2843 74.6177 70.4844 74.6177 68.2718V63.238C74.6177 61.0254 72.6474 59.2255 70.2255 59.2255Z" fill="#FFDD55"/>
<path d="M59.5294 76.6373H69.0588V80.9902H59.5294V76.6373Z" fill="#FF8859"/>
<path d="M73.8235 76.6373H83.3529V80.9902H73.8235V76.6373Z" fill="#FF8859"/>
<path d="M88.1177 76.6373H97.6471V80.9902H88.1177V76.6373Z" fill="#FF415B"/>
<path d="M126.235 74.2533V78.8137H121.471V74.2533C121.471 70.2529 117.908 66.9984 113.529 66.9984L112.522 65.0294L113.529 62.6454C120.535 62.6454 126.235 67.853 126.235 74.2533Z" fill="#B4D2D7"/>
<path d="M113.529 62.6454V66.9984C109.151 66.9984 105.588 70.2529 105.588 74.2533V78.8137H100.823V74.2533C100.823 67.853 106.524 62.6454 113.529 62.6454Z" fill="#E1EBF0"/>
<path d="M131 76.6373V91.8726C131 100.673 123.162 107.833 113.529 107.833V76.6373H131Z" fill="#FFDA44"/>
<path d="M113.529 76.6373V107.833C103.897 107.833 96.0588 100.673 96.0588 91.8726V76.6373H113.529Z" fill="#FFF68E"/>
<path d="M121.475 89.1375L113.529 95.6712L112.522 92.6866L113.529 89.8151L118.289 85.9018L121.475 89.1375Z" fill="#FF9F22"/>
<path d="M113.529 89.8151V95.6712L111.855 97.0482L105.491 91.2356L108.862 88.1566L112.027 91.0499L113.529 89.8151Z" fill="#FFDA44"/>
</g>
<defs>
<filter id="filter0_d" x="0" y="-6" width="181" height="174" filterUnits="userSpaceOnUse" color-interpolation-filters="sRGB">
<feFlood flood-opacity="0" result="BackgroundImageFix"/>
<feColorMatrix in="SourceAlpha" type="matrix" values="0 0 0 0 0 0 0 0 0 0 0 0 0 0 0 0 0 0 127 0"/>
<feOffset dy="4"/>
<feGaussianBlur stdDeviation="25"/>
<feColorMatrix type="matrix" values="0 0 0 0 0 0 0 0 0 0 0 0 0 0 0 0 0 0 0.25 0"/>
<feBlend mode="normal" in2="BackgroundImageFix" result="effect1_dropShadow"/>
<feBlend mode="normal" in="SourceGraphic" in2="effect1_dropShadow" result="shape"/>
</filter>
<clipPath id="clip0">
<rect width="81" height="74" fill="white" transform="translate(50 40)"/>
</clipPath>
</defs>
</svg>
